G04 #@! TF.GenerationSoftware,KiCad,Pcbnew,7.0.8*
G04 #@! TF.CreationDate,2023-10-17T11:30:24-05:00*
G04 #@! TF.ProjectId,Vessel,56657373-656c-42e6-9b69-6361645f7063,rev?*
G04 #@! TF.SameCoordinates,Original*
G04 #@! TF.FileFunction,Paste,Top*
G04 #@! TF.FilePolarity,Positive*
%FSLAX46Y46*%
G04 Gerber Fmt 4.6, Leading zero omitted, Abs format (unit mm)*
G04 Created by KiCad (PCBNEW 7.0.8) date 2023-10-17 11:30:24*
%MOMM*%
%LPD*%
G01*
G04 APERTURE LIST*
G04 Aperture macros list*
%AMRoundRect*
0 Rectangle with rounded corners*
0 $1 Rounding radius*
0 $2 $3 $4 $5 $6 $7 $8 $9 X,Y pos of 4 corners*
0 Add a 4 corners polygon primitive as box body*
4,1,4,$2,$3,$4,$5,$6,$7,$8,$9,$2,$3,0*
0 Add four circle primitives for the rounded corners*
1,1,$1+$1,$2,$3*
1,1,$1+$1,$4,$5*
1,1,$1+$1,$6,$7*
1,1,$1+$1,$8,$9*
0 Add four rect primitives between the rounded corners*
20,1,$1+$1,$2,$3,$4,$5,0*
20,1,$1+$1,$4,$5,$6,$7,0*
20,1,$1+$1,$6,$7,$8,$9,0*
20,1,$1+$1,$8,$9,$2,$3,0*%
%AMRotRect*
0 Rectangle, with rotation*
0 The origin of the aperture is its center*
0 $1 length*
0 $2 width*
0 $3 Rotation angle, in degrees counterclockwise*
0 Add horizontal line*
21,1,$1,$2,0,0,$3*%
G04 Aperture macros list end*
%ADD10RoundRect,0.250000X0.548008X0.088388X0.088388X0.548008X-0.548008X-0.088388X-0.088388X-0.548008X0*%
%ADD11RotRect,1.500000X0.550000X135.000000*%
%ADD12RotRect,1.500000X0.550000X225.000000*%
%ADD13RotRect,1.600000X1.300000X135.000000*%
%ADD14R,1.200000X1.200000*%
G04 APERTURE END LIST*
D10*
X455140384Y-188403784D03*
X453690816Y-186954216D03*
X457968784Y-185575384D03*
X456519216Y-184125816D03*
X443826684Y-171433284D03*
X442377116Y-169983716D03*
D11*
X454203482Y-183224236D03*
X454769167Y-182658550D03*
X455334852Y-182092865D03*
X455900538Y-181527180D03*
X456466223Y-180961494D03*
X457031909Y-180395809D03*
X457597594Y-179830123D03*
X458163280Y-179264438D03*
X458728965Y-178698752D03*
X459294650Y-178133067D03*
X459860336Y-177567382D03*
D12*
X459860336Y-175163218D03*
X459294650Y-174597533D03*
X458728965Y-174031848D03*
X458163280Y-173466162D03*
X457597594Y-172900477D03*
X457031909Y-172334791D03*
X456466223Y-171769106D03*
X455900538Y-171203420D03*
X455334852Y-170637735D03*
X454769167Y-170072050D03*
X454203482Y-169506364D03*
D11*
X451799318Y-169506364D03*
X451233633Y-170072050D03*
X450667948Y-170637735D03*
X450102262Y-171203420D03*
X449536577Y-171769106D03*
X448970891Y-172334791D03*
X448405206Y-172900477D03*
X447839520Y-173466162D03*
X447273835Y-174031848D03*
X446708150Y-174597533D03*
X446142464Y-175163218D03*
D12*
X446142464Y-177567382D03*
X446708150Y-178133067D03*
X447273835Y-178698752D03*
X447839520Y-179264438D03*
X448405206Y-179830123D03*
X448970891Y-180395809D03*
X449536577Y-180961494D03*
X450102262Y-181527180D03*
X450667948Y-182092865D03*
X451233633Y-182658550D03*
X451799318Y-183224236D03*
D10*
X460090084Y-183454084D03*
X458640516Y-182004516D03*
X437687484Y-177639584D03*
X436237916Y-176190016D03*
X444758484Y-184710684D03*
X443308916Y-183261116D03*
D13*
X438624367Y-179990681D03*
X440957819Y-182324133D03*
X442372033Y-180909919D03*
X440038581Y-178576467D03*
D10*
X441626884Y-189746184D03*
X440177316Y-188296616D03*
X434555884Y-182675084D03*
X433106316Y-181225516D03*
X445162484Y-193281684D03*
X443712916Y-191832116D03*
X438091384Y-186210684D03*
X436641816Y-184761116D03*
D14*
X271725000Y-252470000D03*
X271725000Y-249320000D03*
X447937500Y-252470000D03*
X447937500Y-249320000D03*
X224100000Y-271520000D03*
X224100000Y-268370000D03*
X190762500Y-290570000D03*
X190762500Y-287420000D03*
X347925000Y-230562500D03*
X347925000Y-227412500D03*
X162187500Y-328670000D03*
X162187500Y-325520000D03*
X395550000Y-271520000D03*
X395550000Y-268370000D03*
X386025000Y-252470000D03*
X386025000Y-249320000D03*
X424125000Y-309620000D03*
X424125000Y-306470000D03*
X347925000Y-252470000D03*
X347925000Y-249320000D03*
X286012500Y-230562500D03*
X286012500Y-227412500D03*
X328875000Y-328670000D03*
X328875000Y-325520000D03*
X157425000Y-230562500D03*
X157425000Y-227412500D03*
X219337500Y-206750000D03*
X219337500Y-203600000D03*
X176475000Y-252470000D03*
X176475000Y-249320000D03*
X205050000Y-271520000D03*
X205050000Y-268370000D03*
X424125000Y-271520000D03*
X424125000Y-268370000D03*
X338400000Y-271520000D03*
X338400000Y-268370000D03*
X371737500Y-309620000D03*
X371737500Y-306470000D03*
X286012500Y-290570000D03*
X286012500Y-287420000D03*
X209812500Y-290570000D03*
X209812500Y-287420000D03*
X186000000Y-230562500D03*
X186000000Y-227412500D03*
X195525000Y-252470000D03*
X195525000Y-249320000D03*
X186000000Y-328670000D03*
X186000000Y-325520000D03*
X305062500Y-290570000D03*
X305062500Y-287420000D03*
X424125000Y-252470000D03*
X424125000Y-249320000D03*
X166950000Y-271520000D03*
X166950000Y-268370000D03*
X266962500Y-230562500D03*
X266962500Y-227412500D03*
X186000000Y-271520000D03*
X186000000Y-268370000D03*
X205050000Y-230562500D03*
X205050000Y-227412500D03*
X209812500Y-328670000D03*
X209812500Y-325520000D03*
X352687500Y-328670000D03*
X352687500Y-325520000D03*
X314587500Y-309620000D03*
X314587500Y-306470000D03*
X447937500Y-290570000D03*
X447937500Y-287420000D03*
X224100000Y-230562500D03*
X224100000Y-227412500D03*
X328875000Y-252470000D03*
X328875000Y-249320000D03*
X466987500Y-290570000D03*
X466987500Y-287420000D03*
X324112500Y-230562500D03*
X324112500Y-227412500D03*
X262200000Y-206750000D03*
X262200000Y-203600000D03*
X243150000Y-206750000D03*
X243150000Y-203600000D03*
X181237500Y-309620000D03*
X181237500Y-306470000D03*
X390787500Y-206750000D03*
X390787500Y-203600000D03*
X447937500Y-271520000D03*
X447937500Y-268370000D03*
X305062500Y-230562500D03*
X305062500Y-227412500D03*
X428887500Y-230562500D03*
X428887500Y-227412500D03*
X405075000Y-328670000D03*
X405075000Y-325520000D03*
X176475000Y-206750000D03*
X176475000Y-203600000D03*
X466987500Y-309620000D03*
X466987500Y-306470000D03*
X171712500Y-290570000D03*
X171712500Y-287420000D03*
X352687500Y-309620000D03*
X352687500Y-306470000D03*
X381262500Y-290570000D03*
X381262500Y-287420000D03*
X371737500Y-206750000D03*
X371737500Y-203600000D03*
X233625000Y-252470000D03*
X233625000Y-249320000D03*
X324112500Y-290570000D03*
X324112500Y-287420000D03*
X343162500Y-290570000D03*
X343162500Y-287420000D03*
X295537500Y-309620000D03*
X295537500Y-306470000D03*
X424125000Y-328670000D03*
X424125000Y-325520000D03*
X366975000Y-230562500D03*
X366975000Y-227412500D03*
X257437500Y-309620000D03*
X257437500Y-306470000D03*
X243150000Y-271520000D03*
X243150000Y-268370000D03*
X157425000Y-206750000D03*
X157425000Y-203600000D03*
X290775000Y-252470000D03*
X290775000Y-249320000D03*
X200287500Y-206750000D03*
X200287500Y-203600000D03*
X376500000Y-271520000D03*
X376500000Y-268370000D03*
X328875000Y-206750000D03*
X328875000Y-203600000D03*
X200287500Y-309620000D03*
X200287500Y-306470000D03*
X405075000Y-230562500D03*
X405075000Y-227412500D03*
X238387500Y-309620000D03*
X238387500Y-306470000D03*
X347925000Y-206750000D03*
X347925000Y-203600000D03*
X281250000Y-271520000D03*
X281250000Y-268370000D03*
X466987500Y-206750000D03*
X466987500Y-203600000D03*
X243150000Y-230562500D03*
X243150000Y-227412500D03*
X319350000Y-271520000D03*
X319350000Y-268370000D03*
X466987500Y-271520000D03*
X466987500Y-268370000D03*
X466987500Y-252470000D03*
X466987500Y-249320000D03*
X300300000Y-271520000D03*
X300300000Y-268370000D03*
X362212500Y-290570000D03*
X362212500Y-287420000D03*
X214575000Y-252470000D03*
X214575000Y-249320000D03*
X357450000Y-271520000D03*
X357450000Y-268370000D03*
X219337500Y-309620000D03*
X219337500Y-306470000D03*
X309825000Y-252470000D03*
X309825000Y-249320000D03*
X447937500Y-206750000D03*
X447937500Y-203600000D03*
X247912500Y-290570000D03*
X247912500Y-287420000D03*
X386025000Y-230562500D03*
X386025000Y-227412500D03*
X443175000Y-328670000D03*
X443175000Y-325520000D03*
X228862500Y-290570000D03*
X228862500Y-287420000D03*
X400312500Y-309620000D03*
X400312500Y-306470000D03*
X447937500Y-230562500D03*
X447937500Y-227412500D03*
X333637500Y-309620000D03*
X333637500Y-306470000D03*
X400312500Y-290570000D03*
X400312500Y-287420000D03*
X157425000Y-252470000D03*
X157425000Y-249320000D03*
X376500000Y-328670000D03*
X376500000Y-325520000D03*
X286012500Y-206750000D03*
X286012500Y-203600000D03*
X262200000Y-271520000D03*
X262200000Y-268370000D03*
X466987500Y-230562500D03*
X466987500Y-227412500D03*
X162187500Y-309620000D03*
X162187500Y-306470000D03*
X276487500Y-309620000D03*
X276487500Y-306470000D03*
X266962500Y-290570000D03*
X266962500Y-287420000D03*
X366975000Y-252470000D03*
X366975000Y-249320000D03*
X305062500Y-206750000D03*
X305062500Y-203600000D03*
X428887500Y-206750000D03*
X428887500Y-203600000D03*
X252675000Y-252470000D03*
X252675000Y-249320000D03*
M02*
