G04 #@! TF.GenerationSoftware,KiCad,Pcbnew,7.0.8*
G04 #@! TF.CreationDate,2023-10-17T11:30:24-05:00*
G04 #@! TF.ProjectId,Vessel,56657373-656c-42e6-9b69-6361645f7063,rev?*
G04 #@! TF.SameCoordinates,Original*
G04 #@! TF.FileFunction,Legend,Bot*
G04 #@! TF.FilePolarity,Positive*
%FSLAX46Y46*%
G04 Gerber Fmt 4.6, Leading zero omitted, Abs format (unit mm)*
G04 Created by KiCad (PCBNEW 7.0.8) date 2023-10-17 11:30:24*
%MOMM*%
%LPD*%
G01*
G04 APERTURE LIST*
G04 Aperture macros list*
%AMRoundRect*
0 Rectangle with rounded corners*
0 $1 Rounding radius*
0 $2 $3 $4 $5 $6 $7 $8 $9 X,Y pos of 4 corners*
0 Add a 4 corners polygon primitive as box body*
4,1,4,$2,$3,$4,$5,$6,$7,$8,$9,$2,$3,0*
0 Add four circle primitives for the rounded corners*
1,1,$1+$1,$2,$3*
1,1,$1+$1,$4,$5*
1,1,$1+$1,$6,$7*
1,1,$1+$1,$8,$9*
0 Add four rect primitives between the rounded corners*
20,1,$1+$1,$2,$3,$4,$5,0*
20,1,$1+$1,$4,$5,$6,$7,0*
20,1,$1+$1,$6,$7,$8,$9,0*
20,1,$1+$1,$8,$9,$2,$3,0*%
%AMHorizOval*
0 Thick line with rounded ends*
0 $1 width*
0 $2 $3 position (X,Y) of the first rounded end (center of the circle)*
0 $4 $5 position (X,Y) of the second rounded end (center of the circle)*
0 Add line between two ends*
20,1,$1,$2,$3,$4,$5,0*
0 Add two circle primitives to create the rounded ends*
1,1,$1,$2,$3*
1,1,$1,$4,$5*%
G04 Aperture macros list end*
%ADD10C,0.150000*%
%ADD11C,0.120000*%
%ADD12R,1.600000X1.600000*%
%ADD13C,1.600000*%
%ADD14C,1.750000*%
%ADD15C,3.987800*%
%ADD16HorizOval,2.250000X0.655001X0.730000X-0.655001X-0.730000X0*%
%ADD17C,2.250000*%
%ADD18HorizOval,2.250000X0.020000X0.290000X-0.020000X-0.290000X0*%
%ADD19C,3.048000*%
%ADD20R,1.700000X1.000000*%
%ADD21RoundRect,0.250000X-0.325000X-0.450000X0.325000X-0.450000X0.325000X0.450000X-0.325000X0.450000X0*%
%ADD22O,1.700000X2.700000*%
%ADD23R,0.500000X2.250000*%
G04 APERTURE END LIST*
D10*
X467384932Y-175890100D02*
X467242075Y-175937719D01*
X467242075Y-175937719D02*
X467003980Y-175937719D01*
X467003980Y-175937719D02*
X466908742Y-175890100D01*
X466908742Y-175890100D02*
X466861123Y-175842480D01*
X466861123Y-175842480D02*
X466813504Y-175747242D01*
X466813504Y-175747242D02*
X466813504Y-175652004D01*
X466813504Y-175652004D02*
X466861123Y-175556766D01*
X466861123Y-175556766D02*
X466908742Y-175509147D01*
X466908742Y-175509147D02*
X467003980Y-175461528D01*
X467003980Y-175461528D02*
X467194456Y-175413909D01*
X467194456Y-175413909D02*
X467289694Y-175366290D01*
X467289694Y-175366290D02*
X467337313Y-175318671D01*
X467337313Y-175318671D02*
X467384932Y-175223433D01*
X467384932Y-175223433D02*
X467384932Y-175128195D01*
X467384932Y-175128195D02*
X467337313Y-175032957D01*
X467337313Y-175032957D02*
X467289694Y-174985338D01*
X467289694Y-174985338D02*
X467194456Y-174937719D01*
X467194456Y-174937719D02*
X466956361Y-174937719D01*
X466956361Y-174937719D02*
X466813504Y-174985338D01*
X466480170Y-174937719D02*
X466242075Y-175937719D01*
X466242075Y-175937719D02*
X466051599Y-175223433D01*
X466051599Y-175223433D02*
X465861123Y-175937719D01*
X465861123Y-175937719D02*
X465623028Y-174937719D01*
X464718266Y-175937719D02*
X465289694Y-175937719D01*
X465003980Y-175937719D02*
X465003980Y-174937719D01*
X465003980Y-174937719D02*
X465099218Y-175080576D01*
X465099218Y-175080576D02*
X465194456Y-175175814D01*
X465194456Y-175175814D02*
X465289694Y-175223433D01*
X466218266Y-178837719D02*
X466551599Y-178361528D01*
X466789694Y-178837719D02*
X466789694Y-177837719D01*
X466789694Y-177837719D02*
X466408742Y-177837719D01*
X466408742Y-177837719D02*
X466313504Y-177885338D01*
X466313504Y-177885338D02*
X466265885Y-177932957D01*
X466265885Y-177932957D02*
X466218266Y-178028195D01*
X466218266Y-178028195D02*
X466218266Y-178171052D01*
X466218266Y-178171052D02*
X466265885Y-178266290D01*
X466265885Y-178266290D02*
X466313504Y-178313909D01*
X466313504Y-178313909D02*
X466408742Y-178361528D01*
X466408742Y-178361528D02*
X466789694Y-178361528D01*
X465265885Y-178837719D02*
X465837313Y-178837719D01*
X465551599Y-178837719D02*
X465551599Y-177837719D01*
X465551599Y-177837719D02*
X465646837Y-177980576D01*
X465646837Y-177980576D02*
X465742075Y-178075814D01*
X465742075Y-178075814D02*
X465837313Y-178123433D01*
X304213094Y-169036819D02*
X304213094Y-169846342D01*
X304213094Y-169846342D02*
X304165475Y-169941580D01*
X304165475Y-169941580D02*
X304117856Y-169989200D01*
X304117856Y-169989200D02*
X304022618Y-170036819D01*
X304022618Y-170036819D02*
X303832142Y-170036819D01*
X303832142Y-170036819D02*
X303736904Y-169989200D01*
X303736904Y-169989200D02*
X303689285Y-169941580D01*
X303689285Y-169941580D02*
X303641666Y-169846342D01*
X303641666Y-169846342D02*
X303641666Y-169036819D01*
X303213094Y-169989200D02*
X303070237Y-170036819D01*
X303070237Y-170036819D02*
X302832142Y-170036819D01*
X302832142Y-170036819D02*
X302736904Y-169989200D01*
X302736904Y-169989200D02*
X302689285Y-169941580D01*
X302689285Y-169941580D02*
X302641666Y-169846342D01*
X302641666Y-169846342D02*
X302641666Y-169751104D01*
X302641666Y-169751104D02*
X302689285Y-169655866D01*
X302689285Y-169655866D02*
X302736904Y-169608247D01*
X302736904Y-169608247D02*
X302832142Y-169560628D01*
X302832142Y-169560628D02*
X303022618Y-169513009D01*
X303022618Y-169513009D02*
X303117856Y-169465390D01*
X303117856Y-169465390D02*
X303165475Y-169417771D01*
X303165475Y-169417771D02*
X303213094Y-169322533D01*
X303213094Y-169322533D02*
X303213094Y-169227295D01*
X303213094Y-169227295D02*
X303165475Y-169132057D01*
X303165475Y-169132057D02*
X303117856Y-169084438D01*
X303117856Y-169084438D02*
X303022618Y-169036819D01*
X303022618Y-169036819D02*
X302784523Y-169036819D01*
X302784523Y-169036819D02*
X302641666Y-169084438D01*
X301879761Y-169513009D02*
X301736904Y-169560628D01*
X301736904Y-169560628D02*
X301689285Y-169608247D01*
X301689285Y-169608247D02*
X301641666Y-169703485D01*
X301641666Y-169703485D02*
X301641666Y-169846342D01*
X301641666Y-169846342D02*
X301689285Y-169941580D01*
X301689285Y-169941580D02*
X301736904Y-169989200D01*
X301736904Y-169989200D02*
X301832142Y-170036819D01*
X301832142Y-170036819D02*
X302213094Y-170036819D01*
X302213094Y-170036819D02*
X302213094Y-169036819D01*
X302213094Y-169036819D02*
X301879761Y-169036819D01*
X301879761Y-169036819D02*
X301784523Y-169084438D01*
X301784523Y-169084438D02*
X301736904Y-169132057D01*
X301736904Y-169132057D02*
X301689285Y-169227295D01*
X301689285Y-169227295D02*
X301689285Y-169322533D01*
X301689285Y-169322533D02*
X301736904Y-169417771D01*
X301736904Y-169417771D02*
X301784523Y-169465390D01*
X301784523Y-169465390D02*
X301879761Y-169513009D01*
X301879761Y-169513009D02*
X302213094Y-169513009D01*
X300689285Y-170036819D02*
X301260713Y-170036819D01*
X300974999Y-170036819D02*
X300974999Y-169036819D01*
X300974999Y-169036819D02*
X301070237Y-169179676D01*
X301070237Y-169179676D02*
X301165475Y-169274914D01*
X301165475Y-169274914D02*
X301260713Y-169322533D01*
D11*
X463301600Y-172732900D02*
X463301600Y-170732900D01*
X464351600Y-169432900D02*
X464801600Y-168982900D01*
X464351600Y-174032900D02*
X464801600Y-174482900D01*
X464801600Y-168982900D02*
X467301600Y-168982900D01*
X464801600Y-174482900D02*
X467301600Y-174482900D01*
X467751600Y-169432900D02*
X467301600Y-168982900D01*
X467751600Y-174032900D02*
X467301600Y-174482900D01*
X468801600Y-172732900D02*
X468801600Y-170732900D01*
X465790348Y-176022900D02*
X466312852Y-176022900D01*
X465790348Y-177442900D02*
X466312852Y-177442900D01*
D10*
X306325000Y-167550000D02*
X306325000Y-173000000D01*
X298625000Y-167550000D02*
X298625000Y-173000000D01*
X298625000Y-173000000D02*
X306325000Y-173000000D01*
%LPC*%
D12*
X271725000Y-254795000D03*
D13*
X271725000Y-246995000D03*
D12*
X447937500Y-254795000D03*
D13*
X447937500Y-246995000D03*
D12*
X224100000Y-273845000D03*
D13*
X224100000Y-266045000D03*
D14*
X332820000Y-228487500D03*
D15*
X337900000Y-228487500D03*
D14*
X342980000Y-228487500D03*
D16*
X334745001Y-225217500D03*
D17*
X335400000Y-224487500D03*
D18*
X340420000Y-223697500D03*
D17*
X340440000Y-223407500D03*
D14*
X428070000Y-326595000D03*
D15*
X433150000Y-326595000D03*
D14*
X438230000Y-326595000D03*
D16*
X429995001Y-323325000D03*
D17*
X430650000Y-322595000D03*
D18*
X435670000Y-321805000D03*
D17*
X435690000Y-321515000D03*
D14*
X359013800Y-326595000D03*
D15*
X364093800Y-326595000D03*
D14*
X369173800Y-326595000D03*
D16*
X360938801Y-323325000D03*
D17*
X361593800Y-322595000D03*
D18*
X366613800Y-321805000D03*
D17*
X366633800Y-321515000D03*
D14*
X389970000Y-228487500D03*
D15*
X395050000Y-228487500D03*
D14*
X400130000Y-228487500D03*
D16*
X391895001Y-225217500D03*
D17*
X392550000Y-224487500D03*
D18*
X397570000Y-223697500D03*
D17*
X397590000Y-223407500D03*
D12*
X190762500Y-292895000D03*
D13*
X190762500Y-285095000D03*
D14*
X313770000Y-204675000D03*
D15*
X318850000Y-204675000D03*
D14*
X323930000Y-204675000D03*
D16*
X315695001Y-201405000D03*
D17*
X316350000Y-200675000D03*
D18*
X321370000Y-199885000D03*
D17*
X321390000Y-199595000D03*
D14*
X432832500Y-250395000D03*
D15*
X437912500Y-250395000D03*
D14*
X442992500Y-250395000D03*
D16*
X434757501Y-247125000D03*
D17*
X435412500Y-246395000D03*
D18*
X440432500Y-245605000D03*
D17*
X440452500Y-245315000D03*
D12*
X347925000Y-232887500D03*
D13*
X347925000Y-225087500D03*
D12*
X162187500Y-330995000D03*
D13*
X162187500Y-323195000D03*
D12*
X395550000Y-273845000D03*
D13*
X395550000Y-266045000D03*
D14*
X213757500Y-288495000D03*
D15*
X218837500Y-288495000D03*
D14*
X223917500Y-288495000D03*
D16*
X215682501Y-285225000D03*
D17*
X216337500Y-284495000D03*
D18*
X221357500Y-283705000D03*
D17*
X221377500Y-283415000D03*
D12*
X386025000Y-254795000D03*
D13*
X386025000Y-246995000D03*
D12*
X424125000Y-311945000D03*
D13*
X424125000Y-304145000D03*
D12*
X347925000Y-254795000D03*
D13*
X347925000Y-246995000D03*
D12*
X286012500Y-232887500D03*
D13*
X286012500Y-225087500D03*
D12*
X328875000Y-330995000D03*
D13*
X328875000Y-323195000D03*
D14*
X413782500Y-204675000D03*
D15*
X418862500Y-204675000D03*
D14*
X423942500Y-204675000D03*
D16*
X415707501Y-201405000D03*
D17*
X416362500Y-200675000D03*
D18*
X421382500Y-199885000D03*
D17*
X421402500Y-199595000D03*
D14*
X409020000Y-307545000D03*
D15*
X414100000Y-307545000D03*
D14*
X419180000Y-307545000D03*
D16*
X410945001Y-304275000D03*
D17*
X411600000Y-303545000D03*
D18*
X416620000Y-302755000D03*
D17*
X416640000Y-302465000D03*
D12*
X157425000Y-232887500D03*
D13*
X157425000Y-225087500D03*
D12*
X219337500Y-209075000D03*
D13*
X219337500Y-201275000D03*
D12*
X176475000Y-254795000D03*
D13*
X176475000Y-246995000D03*
D14*
X180420000Y-250395000D03*
D15*
X185500000Y-250395000D03*
D14*
X190580000Y-250395000D03*
D16*
X182345001Y-247125000D03*
D17*
X183000000Y-246395000D03*
D18*
X188020000Y-245605000D03*
D17*
X188040000Y-245315000D03*
D12*
X205050000Y-273845000D03*
D13*
X205050000Y-266045000D03*
D14*
X328057500Y-288495000D03*
D15*
X333137500Y-288495000D03*
D14*
X338217500Y-288495000D03*
D16*
X329982501Y-285225000D03*
D17*
X330637500Y-284495000D03*
D18*
X335657500Y-283705000D03*
D17*
X335677500Y-283415000D03*
D14*
X228045000Y-228487500D03*
D15*
X233125000Y-228487500D03*
D14*
X238205000Y-228487500D03*
D16*
X229970001Y-225217500D03*
D17*
X230625000Y-224487500D03*
D18*
X235645000Y-223697500D03*
D17*
X235665000Y-223407500D03*
D14*
X451882500Y-307545000D03*
D15*
X456962500Y-307545000D03*
D14*
X462042500Y-307545000D03*
D16*
X453807501Y-304275000D03*
D17*
X454462500Y-303545000D03*
D18*
X459482500Y-302755000D03*
D17*
X459502500Y-302465000D03*
D12*
X424125000Y-273845000D03*
D13*
X424125000Y-266045000D03*
D14*
X218520000Y-250395000D03*
D15*
X223600000Y-250395000D03*
D14*
X228680000Y-250395000D03*
D16*
X220445001Y-247125000D03*
D17*
X221100000Y-246395000D03*
D18*
X226120000Y-245605000D03*
D17*
X226140000Y-245315000D03*
D14*
X242332500Y-307545000D03*
D15*
X247412500Y-307545000D03*
D14*
X252492500Y-307545000D03*
D16*
X244257501Y-304275000D03*
D17*
X244912500Y-303545000D03*
D18*
X249932500Y-302755000D03*
D17*
X249952500Y-302465000D03*
D14*
X309007500Y-228487500D03*
D15*
X314087500Y-228487500D03*
D14*
X319167500Y-228487500D03*
D16*
X310932501Y-225217500D03*
D17*
X311587500Y-224487500D03*
D18*
X316607500Y-223697500D03*
D17*
X316627500Y-223407500D03*
D14*
X451882500Y-228487500D03*
D15*
X456962500Y-228487500D03*
D14*
X462042500Y-228487500D03*
D16*
X453807501Y-225217500D03*
D17*
X454462500Y-224487500D03*
D18*
X459482500Y-223697500D03*
D17*
X459502500Y-223407500D03*
D12*
X338400000Y-273845000D03*
D13*
X338400000Y-266045000D03*
D14*
X149463800Y-288495000D03*
D15*
X154543800Y-288495000D03*
D14*
X159623800Y-288495000D03*
D16*
X151388801Y-285225000D03*
D17*
X152043800Y-284495000D03*
D18*
X157063800Y-283705000D03*
D17*
X157083800Y-283415000D03*
D14*
X380445000Y-269445000D03*
D15*
X385525000Y-269445000D03*
D14*
X390605000Y-269445000D03*
D16*
X382370001Y-266175000D03*
D17*
X383025000Y-265445000D03*
D18*
X388045000Y-264655000D03*
D17*
X388065000Y-264365000D03*
D14*
X289957500Y-204675000D03*
D15*
X295037500Y-204675000D03*
D14*
X300117500Y-204675000D03*
D16*
X291882501Y-201405000D03*
D17*
X292537500Y-200675000D03*
D18*
X297557500Y-199885000D03*
D17*
X297577500Y-199595000D03*
D12*
X371737500Y-311945000D03*
D13*
X371737500Y-304145000D03*
D14*
X194707500Y-288495000D03*
D15*
X199787500Y-288495000D03*
D14*
X204867500Y-288495000D03*
D16*
X196632501Y-285225000D03*
D17*
X197287500Y-284495000D03*
D18*
X202307500Y-283705000D03*
D17*
X202327500Y-283415000D03*
D14*
X285195000Y-269445000D03*
D15*
X290275000Y-269445000D03*
D14*
X295355000Y-269445000D03*
D16*
X287120001Y-266175000D03*
D17*
X287775000Y-265445000D03*
D18*
X292795000Y-264655000D03*
D17*
X292815000Y-264365000D03*
D14*
X361395000Y-269445000D03*
D15*
X366475000Y-269445000D03*
D14*
X371555000Y-269445000D03*
D16*
X363320001Y-266175000D03*
D17*
X363975000Y-265445000D03*
D18*
X368995000Y-264655000D03*
D17*
X369015000Y-264365000D03*
D14*
X251857500Y-228487500D03*
D15*
X256937500Y-228487500D03*
D14*
X262017500Y-228487500D03*
D16*
X253782501Y-225217500D03*
D17*
X254437500Y-224487500D03*
D18*
X259457500Y-223697500D03*
D17*
X259477500Y-223407500D03*
D12*
X286012500Y-292895000D03*
D13*
X286012500Y-285095000D03*
D14*
X323295000Y-269445000D03*
D15*
X328375000Y-269445000D03*
D14*
X333455000Y-269445000D03*
D16*
X325220001Y-266175000D03*
D17*
X325875000Y-265445000D03*
D18*
X330895000Y-264655000D03*
D17*
X330915000Y-264365000D03*
D12*
X209812500Y-292895000D03*
D13*
X209812500Y-285095000D03*
D14*
X406638800Y-269445000D03*
D15*
X411718800Y-269445000D03*
D14*
X416798800Y-269445000D03*
D16*
X408563801Y-266175000D03*
D17*
X409218800Y-265445000D03*
D18*
X414238800Y-264655000D03*
D17*
X414258800Y-264365000D03*
D14*
X432832500Y-269445000D03*
D15*
X437912500Y-269445000D03*
D14*
X442992500Y-269445000D03*
D16*
X434757501Y-266175000D03*
D17*
X435412500Y-265445000D03*
D18*
X440432500Y-264655000D03*
D17*
X440452500Y-264365000D03*
D12*
X186000000Y-232887500D03*
D13*
X186000000Y-225087500D03*
D12*
X195525000Y-254795000D03*
D13*
X195525000Y-246995000D03*
D14*
X189945000Y-269445000D03*
D15*
X195025000Y-269445000D03*
D14*
X200105000Y-269445000D03*
D16*
X191870001Y-266175000D03*
D17*
X192525000Y-265445000D03*
D18*
X197545000Y-264655000D03*
D17*
X197565000Y-264365000D03*
D12*
X186000000Y-330995000D03*
D13*
X186000000Y-323195000D03*
D14*
X199470000Y-250395000D03*
D15*
X204550000Y-250395000D03*
D14*
X209630000Y-250395000D03*
D16*
X201395001Y-247125000D03*
D17*
X202050000Y-246395000D03*
D18*
X207070000Y-245605000D03*
D17*
X207090000Y-245315000D03*
D12*
X305062500Y-292895000D03*
D13*
X305062500Y-285095000D03*
D14*
X142320000Y-250395000D03*
D15*
X147400000Y-250395000D03*
D14*
X152480000Y-250395000D03*
D16*
X144245001Y-247125000D03*
D17*
X144900000Y-246395000D03*
D18*
X149920000Y-245605000D03*
D17*
X149940000Y-245315000D03*
D14*
X228045000Y-269445000D03*
D15*
X233125000Y-269445000D03*
D14*
X238205000Y-269445000D03*
D16*
X229970001Y-266175000D03*
D17*
X230625000Y-265445000D03*
D18*
X235645000Y-264655000D03*
D17*
X235665000Y-264365000D03*
D14*
X170895000Y-228487500D03*
D15*
X175975000Y-228487500D03*
D14*
X181055000Y-228487500D03*
D16*
X172820001Y-225217500D03*
D17*
X173475000Y-224487500D03*
D18*
X178495000Y-223697500D03*
D17*
X178515000Y-223407500D03*
D14*
X270907500Y-228487500D03*
D15*
X275987500Y-228487500D03*
D14*
X281067500Y-228487500D03*
D16*
X272832501Y-225217500D03*
D17*
X273487500Y-224487500D03*
D18*
X278507500Y-223697500D03*
D17*
X278527500Y-223407500D03*
D12*
X424125000Y-254795000D03*
D13*
X424125000Y-246995000D03*
D14*
X332820000Y-204675000D03*
D15*
X337900000Y-204675000D03*
D14*
X342980000Y-204675000D03*
D16*
X334745001Y-201405000D03*
D17*
X335400000Y-200675000D03*
D18*
X340420000Y-199885000D03*
D17*
X340440000Y-199595000D03*
D12*
X166950000Y-273845000D03*
D13*
X166950000Y-266045000D03*
D14*
X335201300Y-326595000D03*
D15*
X340281300Y-326595000D03*
D14*
X345361300Y-326595000D03*
D16*
X337126301Y-323325000D03*
D17*
X337781300Y-322595000D03*
D18*
X342801300Y-321805000D03*
D17*
X342821300Y-321515000D03*
D14*
X309007500Y-288495000D03*
D15*
X314087500Y-288495000D03*
D14*
X319167500Y-288495000D03*
D16*
X310932501Y-285225000D03*
D17*
X311587500Y-284495000D03*
D18*
X316607500Y-283705000D03*
D17*
X316627500Y-283415000D03*
D12*
X266962500Y-232887500D03*
D13*
X266962500Y-225087500D03*
D12*
X186000000Y-273845000D03*
D13*
X186000000Y-266045000D03*
D14*
X192326300Y-326595000D03*
D15*
X197406300Y-326595000D03*
D14*
X202486300Y-326595000D03*
D16*
X194251301Y-323325000D03*
D17*
X194906300Y-322595000D03*
D18*
X199926300Y-321805000D03*
D17*
X199946300Y-321515000D03*
D12*
X205050000Y-232887500D03*
D13*
X205050000Y-225087500D03*
D12*
X209812500Y-330995000D03*
D13*
X209812500Y-323195000D03*
D14*
X228045000Y-204675000D03*
D15*
X233125000Y-204675000D03*
D14*
X238205000Y-204675000D03*
D16*
X229970001Y-201405000D03*
D17*
X230625000Y-200675000D03*
D18*
X235645000Y-199885000D03*
D17*
X235665000Y-199595000D03*
D12*
X352687500Y-330995000D03*
D13*
X352687500Y-323195000D03*
D12*
X314587500Y-311945000D03*
D13*
X314587500Y-304145000D03*
D14*
X432832500Y-288495000D03*
D15*
X437912500Y-288495000D03*
D14*
X442992500Y-288495000D03*
D16*
X434757501Y-285225000D03*
D17*
X435412500Y-284495000D03*
D18*
X440432500Y-283705000D03*
D17*
X440452500Y-283415000D03*
D12*
X447937500Y-292895000D03*
D13*
X447937500Y-285095000D03*
D12*
X224100000Y-232887500D03*
D13*
X224100000Y-225087500D03*
D14*
X451882500Y-204675000D03*
D15*
X456962500Y-204675000D03*
D14*
X462042500Y-204675000D03*
D16*
X453807501Y-201405000D03*
D17*
X454462500Y-200675000D03*
D18*
X459482500Y-199885000D03*
D17*
X459502500Y-199595000D03*
D14*
X337582500Y-307545000D03*
D15*
X342662500Y-307545000D03*
D14*
X347742500Y-307545000D03*
D16*
X339507501Y-304275000D03*
D17*
X340162500Y-303545000D03*
D18*
X345182500Y-302755000D03*
D17*
X345202500Y-302465000D03*
D12*
X328875000Y-254795000D03*
D13*
X328875000Y-246995000D03*
D14*
X318532500Y-307545000D03*
D15*
X323612500Y-307545000D03*
D14*
X328692500Y-307545000D03*
D16*
X320457501Y-304275000D03*
D17*
X321112500Y-303545000D03*
D18*
X326132500Y-302755000D03*
D17*
X326152500Y-302465000D03*
D12*
X466987500Y-292895000D03*
D13*
X466987500Y-285095000D03*
D12*
X324112500Y-232887500D03*
D13*
X324112500Y-225087500D03*
D14*
X185182500Y-307545000D03*
D15*
X190262500Y-307545000D03*
D14*
X195342500Y-307545000D03*
D16*
X187107501Y-304275000D03*
D17*
X187762500Y-303545000D03*
D18*
X192782500Y-302755000D03*
D17*
X192802500Y-302465000D03*
D12*
X262200000Y-209075000D03*
D13*
X262200000Y-201275000D03*
D14*
X189945000Y-228487500D03*
D15*
X195025000Y-228487500D03*
D14*
X200105000Y-228487500D03*
D16*
X191870001Y-225217500D03*
D17*
X192525000Y-224487500D03*
D18*
X197545000Y-223697500D03*
D17*
X197565000Y-223407500D03*
D14*
X432832500Y-204675000D03*
D15*
X437912500Y-204675000D03*
D14*
X442992500Y-204675000D03*
D16*
X434757501Y-201405000D03*
D17*
X435412500Y-200675000D03*
D18*
X440432500Y-199885000D03*
D17*
X440452500Y-199595000D03*
D14*
X370920000Y-250395000D03*
D15*
X376000000Y-250395000D03*
D14*
X381080000Y-250395000D03*
D16*
X372845001Y-247125000D03*
D17*
X373500000Y-246395000D03*
D18*
X378520000Y-245605000D03*
D17*
X378540000Y-245315000D03*
D12*
X243150000Y-209075000D03*
D13*
X243150000Y-201275000D03*
D12*
X181237500Y-311945000D03*
D13*
X181237500Y-304145000D03*
D12*
X390787500Y-209075000D03*
D13*
X390787500Y-201275000D03*
D12*
X447937500Y-273845000D03*
D13*
X447937500Y-266045000D03*
D19*
X218843900Y-319610000D03*
D15*
X218843900Y-334850000D03*
D14*
X263763800Y-326595000D03*
D15*
X268843800Y-326595000D03*
D14*
X273923800Y-326595000D03*
D19*
X318843700Y-319610000D03*
D15*
X318843700Y-334850000D03*
D16*
X265688801Y-323325000D03*
D17*
X266343800Y-322595000D03*
D18*
X271363800Y-321805000D03*
D17*
X271383800Y-321515000D03*
D14*
X237570000Y-250395000D03*
D15*
X242650000Y-250395000D03*
D14*
X247730000Y-250395000D03*
D16*
X239495001Y-247125000D03*
D17*
X240150000Y-246395000D03*
D18*
X245170000Y-245605000D03*
D17*
X245190000Y-245315000D03*
D14*
X370920000Y-228487500D03*
D15*
X376000000Y-228487500D03*
D14*
X381080000Y-228487500D03*
D16*
X372845001Y-225217500D03*
D17*
X373500000Y-224487500D03*
D18*
X378520000Y-223697500D03*
D17*
X378540000Y-223407500D03*
D14*
X413782500Y-228487500D03*
D15*
X418862500Y-228487500D03*
D14*
X423942500Y-228487500D03*
D16*
X415707501Y-225217500D03*
D17*
X416362500Y-224487500D03*
D18*
X421382500Y-223697500D03*
D17*
X421402500Y-223407500D03*
D12*
X305062500Y-232887500D03*
D13*
X305062500Y-225087500D03*
D14*
X385207500Y-288495000D03*
D15*
X390287500Y-288495000D03*
D14*
X395367500Y-288495000D03*
D16*
X387132501Y-285225000D03*
D17*
X387787500Y-284495000D03*
D18*
X392807500Y-283705000D03*
D17*
X392827500Y-283415000D03*
D12*
X428887500Y-232887500D03*
D13*
X428887500Y-225087500D03*
D14*
X356632500Y-204675000D03*
D15*
X361712500Y-204675000D03*
D14*
X366792500Y-204675000D03*
D16*
X358557501Y-201405000D03*
D17*
X359212500Y-200675000D03*
D18*
X364232500Y-199885000D03*
D17*
X364252500Y-199595000D03*
D12*
X405075000Y-330995000D03*
D13*
X405075000Y-323195000D03*
D12*
X176475000Y-209075000D03*
D13*
X176475000Y-201275000D03*
D12*
X466987500Y-311945000D03*
D13*
X466987500Y-304145000D03*
D12*
X171712500Y-292895000D03*
D13*
X171712500Y-285095000D03*
D14*
X247095000Y-269445000D03*
D15*
X252175000Y-269445000D03*
D14*
X257255000Y-269445000D03*
D16*
X249020001Y-266175000D03*
D17*
X249675000Y-265445000D03*
D18*
X254695000Y-264655000D03*
D17*
X254715000Y-264365000D03*
D12*
X352687500Y-311945000D03*
D13*
X352687500Y-304145000D03*
D12*
X381262500Y-292895000D03*
D13*
X381262500Y-285095000D03*
D14*
X251857500Y-288495000D03*
D15*
X256937500Y-288495000D03*
D14*
X262017500Y-288495000D03*
D16*
X253782501Y-285225000D03*
D17*
X254437500Y-284495000D03*
D18*
X259457500Y-283705000D03*
D17*
X259477500Y-283415000D03*
D14*
X389970000Y-326595000D03*
D15*
X395050000Y-326595000D03*
D14*
X400130000Y-326595000D03*
D16*
X391895001Y-323325000D03*
D17*
X392550000Y-322595000D03*
D18*
X397570000Y-321805000D03*
D17*
X397590000Y-321515000D03*
D14*
X204232500Y-307545000D03*
D15*
X209312500Y-307545000D03*
D14*
X214392500Y-307545000D03*
D16*
X206157501Y-304275000D03*
D17*
X206812500Y-303545000D03*
D18*
X211832500Y-302755000D03*
D17*
X211852500Y-302465000D03*
D12*
X371737500Y-209075000D03*
D13*
X371737500Y-201275000D03*
D12*
X233625000Y-254795000D03*
D13*
X233625000Y-246995000D03*
D12*
X324112500Y-292895000D03*
D13*
X324112500Y-285095000D03*
D12*
X343162500Y-292895000D03*
D13*
X343162500Y-285095000D03*
D12*
X295537500Y-311945000D03*
D13*
X295537500Y-304145000D03*
D14*
X375682500Y-204675000D03*
D15*
X380762500Y-204675000D03*
D14*
X385842500Y-204675000D03*
D16*
X377607501Y-201405000D03*
D17*
X378262500Y-200675000D03*
D18*
X383282500Y-199885000D03*
D17*
X383302500Y-199595000D03*
D14*
X208995000Y-269445000D03*
D15*
X214075000Y-269445000D03*
D14*
X219155000Y-269445000D03*
D16*
X210920001Y-266175000D03*
D17*
X211575000Y-265445000D03*
D18*
X216595000Y-264655000D03*
D17*
X216615000Y-264365000D03*
D12*
X424125000Y-330995000D03*
D13*
X424125000Y-323195000D03*
D14*
X289957500Y-228487500D03*
D15*
X295037500Y-228487500D03*
D14*
X300117500Y-228487500D03*
D16*
X291882501Y-225217500D03*
D17*
X292537500Y-224487500D03*
D18*
X297557500Y-223697500D03*
D17*
X297577500Y-223407500D03*
D12*
X366975000Y-232887500D03*
D13*
X366975000Y-225087500D03*
D14*
X366157500Y-288495000D03*
D15*
X371237500Y-288495000D03*
D14*
X376317500Y-288495000D03*
D16*
X368082501Y-285225000D03*
D17*
X368737500Y-284495000D03*
D18*
X373757500Y-283705000D03*
D17*
X373777500Y-283415000D03*
D14*
X256620000Y-250395000D03*
D15*
X261700000Y-250395000D03*
D14*
X266780000Y-250395000D03*
D16*
X258545001Y-247125000D03*
D17*
X259200000Y-246395000D03*
D18*
X264220000Y-245605000D03*
D17*
X264240000Y-245315000D03*
D12*
X257437500Y-311945000D03*
D13*
X257437500Y-304145000D03*
D12*
X243150000Y-273845000D03*
D13*
X243150000Y-266045000D03*
D12*
X157425000Y-209075000D03*
D13*
X157425000Y-201275000D03*
D14*
X144701300Y-307545000D03*
D15*
X149781300Y-307545000D03*
D14*
X154861300Y-307545000D03*
D16*
X146626301Y-304275000D03*
D17*
X147281300Y-303545000D03*
D18*
X152301300Y-302755000D03*
D17*
X152321300Y-302465000D03*
D14*
X409020000Y-326595000D03*
D15*
X414100000Y-326595000D03*
D14*
X419180000Y-326595000D03*
D16*
X410945001Y-323325000D03*
D17*
X411600000Y-322595000D03*
D18*
X416620000Y-321805000D03*
D17*
X416640000Y-321515000D03*
D14*
X289957500Y-288495000D03*
D15*
X295037500Y-288495000D03*
D14*
X300117500Y-288495000D03*
D16*
X291882501Y-285225000D03*
D17*
X292537500Y-284495000D03*
D18*
X297557500Y-283705000D03*
D17*
X297577500Y-283415000D03*
D14*
X161370000Y-250395000D03*
D15*
X166450000Y-250395000D03*
D14*
X171530000Y-250395000D03*
D16*
X163295001Y-247125000D03*
D17*
X163950000Y-246395000D03*
D18*
X168970000Y-245605000D03*
D17*
X168990000Y-245315000D03*
D14*
X356632500Y-307545000D03*
D15*
X361712500Y-307545000D03*
D14*
X366792500Y-307545000D03*
D16*
X358557501Y-304275000D03*
D17*
X359212500Y-303545000D03*
D18*
X364232500Y-302755000D03*
D17*
X364252500Y-302465000D03*
D14*
X451882500Y-269445000D03*
D15*
X456962500Y-269445000D03*
D14*
X462042500Y-269445000D03*
D16*
X453807501Y-266175000D03*
D17*
X454462500Y-265445000D03*
D18*
X459482500Y-264655000D03*
D17*
X459502500Y-264365000D03*
D14*
X347107500Y-288495000D03*
D15*
X352187500Y-288495000D03*
D14*
X357267500Y-288495000D03*
D16*
X349032501Y-285225000D03*
D17*
X349687500Y-284495000D03*
D18*
X354707500Y-283705000D03*
D17*
X354727500Y-283415000D03*
D14*
X144701300Y-326595000D03*
D15*
X149781300Y-326595000D03*
D14*
X154861300Y-326595000D03*
D16*
X146626301Y-323325000D03*
D17*
X147281300Y-322595000D03*
D18*
X152301300Y-321805000D03*
D17*
X152321300Y-321515000D03*
D12*
X290775000Y-254795000D03*
D13*
X290775000Y-246995000D03*
D12*
X200287500Y-209075000D03*
D13*
X200287500Y-201275000D03*
D12*
X376500000Y-273845000D03*
D13*
X376500000Y-266045000D03*
D14*
X266145000Y-269445000D03*
D15*
X271225000Y-269445000D03*
D14*
X276305000Y-269445000D03*
D16*
X268070001Y-266175000D03*
D17*
X268725000Y-265445000D03*
D18*
X273745000Y-264655000D03*
D17*
X273765000Y-264365000D03*
D14*
X342345000Y-269445000D03*
D15*
X347425000Y-269445000D03*
D14*
X352505000Y-269445000D03*
D16*
X344270001Y-266175000D03*
D17*
X344925000Y-265445000D03*
D18*
X349945000Y-264655000D03*
D17*
X349965000Y-264365000D03*
D12*
X328875000Y-209075000D03*
D13*
X328875000Y-201275000D03*
D12*
X200287500Y-311945000D03*
D13*
X200287500Y-304145000D03*
D12*
X405075000Y-232887500D03*
D13*
X405075000Y-225087500D03*
D12*
X238387500Y-311945000D03*
D13*
X238387500Y-304145000D03*
D14*
X142320000Y-228487500D03*
D15*
X147400000Y-228487500D03*
D14*
X152480000Y-228487500D03*
D16*
X144245001Y-225217500D03*
D17*
X144900000Y-224487500D03*
D18*
X149920000Y-223697500D03*
D17*
X149940000Y-223407500D03*
D14*
X247095000Y-204675000D03*
D15*
X252175000Y-204675000D03*
D14*
X257255000Y-204675000D03*
D16*
X249020001Y-201405000D03*
D17*
X249675000Y-200675000D03*
D18*
X254695000Y-199885000D03*
D17*
X254715000Y-199595000D03*
D14*
X161370000Y-204675000D03*
D15*
X166450000Y-204675000D03*
D14*
X171530000Y-204675000D03*
D16*
X163295001Y-201405000D03*
D17*
X163950000Y-200675000D03*
D18*
X168970000Y-199885000D03*
D17*
X168990000Y-199595000D03*
D14*
X451882500Y-288495000D03*
D15*
X456962500Y-288495000D03*
D14*
X462042500Y-288495000D03*
D16*
X453807501Y-285225000D03*
D17*
X454462500Y-284495000D03*
D18*
X459482500Y-283705000D03*
D17*
X459502500Y-283415000D03*
D12*
X347925000Y-209075000D03*
D13*
X347925000Y-201275000D03*
D12*
X281250000Y-273845000D03*
D13*
X281250000Y-266045000D03*
D12*
X466987500Y-209075000D03*
D13*
X466987500Y-201275000D03*
D12*
X243150000Y-232887500D03*
D13*
X243150000Y-225087500D03*
D12*
X319350000Y-273845000D03*
D13*
X319350000Y-266045000D03*
D12*
X466987500Y-273845000D03*
D13*
X466987500Y-266045000D03*
D14*
X232807500Y-288495000D03*
D15*
X237887500Y-288495000D03*
D14*
X242967500Y-288495000D03*
D16*
X234732501Y-285225000D03*
D17*
X235387500Y-284495000D03*
D18*
X240407500Y-283705000D03*
D17*
X240427500Y-283415000D03*
D14*
X380445000Y-307545000D03*
D15*
X385525000Y-307545000D03*
D14*
X390605000Y-307545000D03*
D16*
X382370001Y-304275000D03*
D17*
X383025000Y-303545000D03*
D18*
X388045000Y-302755000D03*
D17*
X388065000Y-302465000D03*
D12*
X466987500Y-254795000D03*
D13*
X466987500Y-246995000D03*
D12*
X300300000Y-273845000D03*
D13*
X300300000Y-266045000D03*
D12*
X362212500Y-292895000D03*
D13*
X362212500Y-285095000D03*
D14*
X166132500Y-307545000D03*
D15*
X171212500Y-307545000D03*
D14*
X176292500Y-307545000D03*
D16*
X168057501Y-304275000D03*
D17*
X168712500Y-303545000D03*
D18*
X173732500Y-302755000D03*
D17*
X173752500Y-302465000D03*
D14*
X304245000Y-269445000D03*
D15*
X309325000Y-269445000D03*
D14*
X314405000Y-269445000D03*
D16*
X306170001Y-266175000D03*
D17*
X306825000Y-265445000D03*
D18*
X311845000Y-264655000D03*
D17*
X311865000Y-264365000D03*
D12*
X214575000Y-254795000D03*
D13*
X214575000Y-246995000D03*
D14*
X270907500Y-288495000D03*
D15*
X275987500Y-288495000D03*
D14*
X281067500Y-288495000D03*
D16*
X272832501Y-285225000D03*
D17*
X273487500Y-284495000D03*
D18*
X278507500Y-283705000D03*
D17*
X278527500Y-283415000D03*
D14*
X204232500Y-204675000D03*
D15*
X209312500Y-204675000D03*
D14*
X214392500Y-204675000D03*
D16*
X206157501Y-201405000D03*
D17*
X206812500Y-200675000D03*
D18*
X211832500Y-199885000D03*
D17*
X211852500Y-199595000D03*
D12*
X357450000Y-273845000D03*
D13*
X357450000Y-266045000D03*
D12*
X219337500Y-311945000D03*
D13*
X219337500Y-304145000D03*
D14*
X275670000Y-250395000D03*
D15*
X280750000Y-250395000D03*
D14*
X285830000Y-250395000D03*
D16*
X277595001Y-247125000D03*
D17*
X278250000Y-246395000D03*
D18*
X283270000Y-245605000D03*
D17*
X283290000Y-245315000D03*
D14*
X299482500Y-307545000D03*
D15*
X304562500Y-307545000D03*
D14*
X309642500Y-307545000D03*
D16*
X301407501Y-304275000D03*
D17*
X302062500Y-303545000D03*
D18*
X307082500Y-302755000D03*
D17*
X307102500Y-302465000D03*
D12*
X309825000Y-254795000D03*
D13*
X309825000Y-246995000D03*
D14*
X432832500Y-228487500D03*
D15*
X437912500Y-228487500D03*
D14*
X442992500Y-228487500D03*
D16*
X434757501Y-225217500D03*
D17*
X435412500Y-224487500D03*
D18*
X440432500Y-223697500D03*
D17*
X440452500Y-223407500D03*
D14*
X351870000Y-250395000D03*
D15*
X356950000Y-250395000D03*
D14*
X362030000Y-250395000D03*
D16*
X353795001Y-247125000D03*
D17*
X354450000Y-246395000D03*
D18*
X359470000Y-245605000D03*
D17*
X359490000Y-245315000D03*
D14*
X170895000Y-269445000D03*
D15*
X175975000Y-269445000D03*
D14*
X181055000Y-269445000D03*
D16*
X172820001Y-266175000D03*
D17*
X173475000Y-265445000D03*
D18*
X178495000Y-264655000D03*
D17*
X178515000Y-264365000D03*
D12*
X447937500Y-209075000D03*
D13*
X447937500Y-201275000D03*
D14*
X223282500Y-307545000D03*
D15*
X228362500Y-307545000D03*
D14*
X233442500Y-307545000D03*
D16*
X225207501Y-304275000D03*
D17*
X225862500Y-303545000D03*
D18*
X230882500Y-302755000D03*
D17*
X230902500Y-302465000D03*
D12*
X247912500Y-292895000D03*
D13*
X247912500Y-285095000D03*
D12*
X386025000Y-232887500D03*
D13*
X386025000Y-225087500D03*
D12*
X443175000Y-330995000D03*
D13*
X443175000Y-323195000D03*
D12*
X228862500Y-292895000D03*
D13*
X228862500Y-285095000D03*
D14*
X185182500Y-204675000D03*
D15*
X190262500Y-204675000D03*
D14*
X195342500Y-204675000D03*
D16*
X187107501Y-201405000D03*
D17*
X187762500Y-200675000D03*
D18*
X192782500Y-199885000D03*
D17*
X192802500Y-199595000D03*
D12*
X400312500Y-311945000D03*
D13*
X400312500Y-304145000D03*
D12*
X447937500Y-232887500D03*
D13*
X447937500Y-225087500D03*
D12*
X333637500Y-311945000D03*
D13*
X333637500Y-304145000D03*
D14*
X175657500Y-288495000D03*
D15*
X180737500Y-288495000D03*
D14*
X185817500Y-288495000D03*
D16*
X177582501Y-285225000D03*
D17*
X178237500Y-284495000D03*
D18*
X183257500Y-283705000D03*
D17*
X183277500Y-283415000D03*
D14*
X147082500Y-269445000D03*
D15*
X152162500Y-269445000D03*
D14*
X157242500Y-269445000D03*
D16*
X149007501Y-266175000D03*
D17*
X149662500Y-265445000D03*
D18*
X154682500Y-264655000D03*
D17*
X154702500Y-264365000D03*
D14*
X142320000Y-204675000D03*
D15*
X147400000Y-204675000D03*
D14*
X152480000Y-204675000D03*
D16*
X144245001Y-201405000D03*
D17*
X144900000Y-200675000D03*
D18*
X149920000Y-199885000D03*
D17*
X149940000Y-199595000D03*
D12*
X400312500Y-292895000D03*
D13*
X400312500Y-285095000D03*
D14*
X332820000Y-250395000D03*
D15*
X337900000Y-250395000D03*
D14*
X342980000Y-250395000D03*
D16*
X334745001Y-247125000D03*
D17*
X335400000Y-246395000D03*
D18*
X340420000Y-245605000D03*
D17*
X340440000Y-245315000D03*
D12*
X157425000Y-254795000D03*
D13*
X157425000Y-246995000D03*
D12*
X376500000Y-330995000D03*
D13*
X376500000Y-323195000D03*
D14*
X168513800Y-326595000D03*
D15*
X173593800Y-326595000D03*
D14*
X178673800Y-326595000D03*
D16*
X170438801Y-323325000D03*
D17*
X171093800Y-322595000D03*
D18*
X176113800Y-321805000D03*
D17*
X176133800Y-321515000D03*
D14*
X451882500Y-250395000D03*
D15*
X456962500Y-250395000D03*
D14*
X462042500Y-250395000D03*
D16*
X453807501Y-247125000D03*
D17*
X454462500Y-246395000D03*
D18*
X459482500Y-245605000D03*
D17*
X459502500Y-245315000D03*
D12*
X286012500Y-209075000D03*
D13*
X286012500Y-201275000D03*
D12*
X262200000Y-273845000D03*
D13*
X262200000Y-266045000D03*
D14*
X280432500Y-307545000D03*
D15*
X285512500Y-307545000D03*
D14*
X290592500Y-307545000D03*
D16*
X282357501Y-304275000D03*
D17*
X283012500Y-303545000D03*
D18*
X288032500Y-302755000D03*
D17*
X288052500Y-302465000D03*
D12*
X466987500Y-232887500D03*
D13*
X466987500Y-225087500D03*
D14*
X261382500Y-307545000D03*
D15*
X266462500Y-307545000D03*
D14*
X271542500Y-307545000D03*
D16*
X263307501Y-304275000D03*
D17*
X263962500Y-303545000D03*
D18*
X268982500Y-302755000D03*
D17*
X269002500Y-302465000D03*
D14*
X270907500Y-204675000D03*
D15*
X275987500Y-204675000D03*
D14*
X281067500Y-204675000D03*
D16*
X272832501Y-201405000D03*
D17*
X273487500Y-200675000D03*
D18*
X278507500Y-199885000D03*
D17*
X278527500Y-199595000D03*
D12*
X162187500Y-311945000D03*
D13*
X162187500Y-304145000D03*
D12*
X276487500Y-311945000D03*
D13*
X276487500Y-304145000D03*
D12*
X266962500Y-292895000D03*
D13*
X266962500Y-285095000D03*
D12*
X366975000Y-254795000D03*
D13*
X366975000Y-246995000D03*
D14*
X294720000Y-250395000D03*
D15*
X299800000Y-250395000D03*
D14*
X304880000Y-250395000D03*
D16*
X296645001Y-247125000D03*
D17*
X297300000Y-246395000D03*
D18*
X302320000Y-245605000D03*
D17*
X302340000Y-245315000D03*
D12*
X305062500Y-209075000D03*
D13*
X305062500Y-201275000D03*
D12*
X428887500Y-209075000D03*
D13*
X428887500Y-201275000D03*
D19*
X392637000Y-243410000D03*
D15*
X392637000Y-258650000D03*
D14*
X399495000Y-250395000D03*
D15*
X404575000Y-250395000D03*
D14*
X409655000Y-250395000D03*
D19*
X416513000Y-243410000D03*
D15*
X416513000Y-258650000D03*
D16*
X401420001Y-247125000D03*
D17*
X402075000Y-246395000D03*
D18*
X407095000Y-245605000D03*
D17*
X407115000Y-245315000D03*
D14*
X313770000Y-250395000D03*
D15*
X318850000Y-250395000D03*
D14*
X323930000Y-250395000D03*
D16*
X315695001Y-247125000D03*
D17*
X316350000Y-246395000D03*
D18*
X321370000Y-245605000D03*
D17*
X321390000Y-245315000D03*
D12*
X252675000Y-254795000D03*
D13*
X252675000Y-246995000D03*
D14*
X208995000Y-228487500D03*
D15*
X214075000Y-228487500D03*
D14*
X219155000Y-228487500D03*
D16*
X210920001Y-225217500D03*
D17*
X211575000Y-224487500D03*
D18*
X216595000Y-223697500D03*
D17*
X216615000Y-223407500D03*
D14*
X351870000Y-228487500D03*
D15*
X356950000Y-228487500D03*
D14*
X362030000Y-228487500D03*
D16*
X353795001Y-225217500D03*
D17*
X354450000Y-224487500D03*
D18*
X359470000Y-223697500D03*
D17*
X359490000Y-223407500D03*
D20*
X462901600Y-173632900D03*
X469201600Y-173632900D03*
X462901600Y-169832900D03*
X469201600Y-169832900D03*
D21*
X465026600Y-176732900D03*
X467076600Y-176732900D03*
D22*
X306125000Y-167550000D03*
X298825000Y-167550000D03*
X306125000Y-172050000D03*
X298825000Y-172050000D03*
D23*
X304075000Y-172050000D03*
X303275000Y-172050000D03*
X302475000Y-172050000D03*
X301675000Y-172050000D03*
X300875000Y-172050000D03*
%LPD*%
M02*
