G04 #@! TF.GenerationSoftware,KiCad,Pcbnew,7.0.8*
G04 #@! TF.CreationDate,2023-10-17T11:30:24-05:00*
G04 #@! TF.ProjectId,Vessel,56657373-656c-42e6-9b69-6361645f7063,rev?*
G04 #@! TF.SameCoordinates,Original*
G04 #@! TF.FileFunction,Soldermask,Bot*
G04 #@! TF.FilePolarity,Negative*
%FSLAX46Y46*%
G04 Gerber Fmt 4.6, Leading zero omitted, Abs format (unit mm)*
G04 Created by KiCad (PCBNEW 7.0.8) date 2023-10-17 11:30:24*
%MOMM*%
%LPD*%
G01*
G04 APERTURE LIST*
G04 Aperture macros list*
%AMRoundRect*
0 Rectangle with rounded corners*
0 $1 Rounding radius*
0 $2 $3 $4 $5 $6 $7 $8 $9 X,Y pos of 4 corners*
0 Add a 4 corners polygon primitive as box body*
4,1,4,$2,$3,$4,$5,$6,$7,$8,$9,$2,$3,0*
0 Add four circle primitives for the rounded corners*
1,1,$1+$1,$2,$3*
1,1,$1+$1,$4,$5*
1,1,$1+$1,$6,$7*
1,1,$1+$1,$8,$9*
0 Add four rect primitives between the rounded corners*
20,1,$1+$1,$2,$3,$4,$5,0*
20,1,$1+$1,$4,$5,$6,$7,0*
20,1,$1+$1,$6,$7,$8,$9,0*
20,1,$1+$1,$8,$9,$2,$3,0*%
%AMHorizOval*
0 Thick line with rounded ends*
0 $1 width*
0 $2 $3 position (X,Y) of the first rounded end (center of the circle)*
0 $4 $5 position (X,Y) of the second rounded end (center of the circle)*
0 Add line between two ends*
20,1,$1,$2,$3,$4,$5,0*
0 Add two circle primitives to create the rounded ends*
1,1,$1,$2,$3*
1,1,$1,$4,$5*%
G04 Aperture macros list end*
%ADD10R,1.600000X1.600000*%
%ADD11C,1.600000*%
%ADD12C,1.750000*%
%ADD13C,3.987800*%
%ADD14HorizOval,2.250000X0.655001X0.730000X-0.655001X-0.730000X0*%
%ADD15C,2.250000*%
%ADD16HorizOval,2.250000X0.020000X0.290000X-0.020000X-0.290000X0*%
%ADD17C,3.048000*%
%ADD18R,1.700000X1.000000*%
%ADD19RoundRect,0.250000X-0.325000X-0.450000X0.325000X-0.450000X0.325000X0.450000X-0.325000X0.450000X0*%
%ADD20O,1.700000X2.700000*%
%ADD21R,0.500000X2.250000*%
G04 APERTURE END LIST*
D10*
X271725000Y-254795000D03*
D11*
X271725000Y-246995000D03*
D10*
X447937500Y-254795000D03*
D11*
X447937500Y-246995000D03*
D10*
X224100000Y-273845000D03*
D11*
X224100000Y-266045000D03*
D12*
X332820000Y-228487500D03*
D13*
X337900000Y-228487500D03*
D12*
X342980000Y-228487500D03*
D14*
X334745001Y-225217500D03*
D15*
X335400000Y-224487500D03*
D16*
X340420000Y-223697500D03*
D15*
X340440000Y-223407500D03*
D12*
X428070000Y-326595000D03*
D13*
X433150000Y-326595000D03*
D12*
X438230000Y-326595000D03*
D14*
X429995001Y-323325000D03*
D15*
X430650000Y-322595000D03*
D16*
X435670000Y-321805000D03*
D15*
X435690000Y-321515000D03*
D12*
X359013800Y-326595000D03*
D13*
X364093800Y-326595000D03*
D12*
X369173800Y-326595000D03*
D14*
X360938801Y-323325000D03*
D15*
X361593800Y-322595000D03*
D16*
X366613800Y-321805000D03*
D15*
X366633800Y-321515000D03*
D12*
X389970000Y-228487500D03*
D13*
X395050000Y-228487500D03*
D12*
X400130000Y-228487500D03*
D14*
X391895001Y-225217500D03*
D15*
X392550000Y-224487500D03*
D16*
X397570000Y-223697500D03*
D15*
X397590000Y-223407500D03*
D10*
X190762500Y-292895000D03*
D11*
X190762500Y-285095000D03*
D12*
X313770000Y-204675000D03*
D13*
X318850000Y-204675000D03*
D12*
X323930000Y-204675000D03*
D14*
X315695001Y-201405000D03*
D15*
X316350000Y-200675000D03*
D16*
X321370000Y-199885000D03*
D15*
X321390000Y-199595000D03*
D12*
X432832500Y-250395000D03*
D13*
X437912500Y-250395000D03*
D12*
X442992500Y-250395000D03*
D14*
X434757501Y-247125000D03*
D15*
X435412500Y-246395000D03*
D16*
X440432500Y-245605000D03*
D15*
X440452500Y-245315000D03*
D10*
X347925000Y-232887500D03*
D11*
X347925000Y-225087500D03*
D10*
X162187500Y-330995000D03*
D11*
X162187500Y-323195000D03*
D10*
X395550000Y-273845000D03*
D11*
X395550000Y-266045000D03*
D12*
X213757500Y-288495000D03*
D13*
X218837500Y-288495000D03*
D12*
X223917500Y-288495000D03*
D14*
X215682501Y-285225000D03*
D15*
X216337500Y-284495000D03*
D16*
X221357500Y-283705000D03*
D15*
X221377500Y-283415000D03*
D10*
X386025000Y-254795000D03*
D11*
X386025000Y-246995000D03*
D10*
X424125000Y-311945000D03*
D11*
X424125000Y-304145000D03*
D10*
X347925000Y-254795000D03*
D11*
X347925000Y-246995000D03*
D10*
X286012500Y-232887500D03*
D11*
X286012500Y-225087500D03*
D10*
X328875000Y-330995000D03*
D11*
X328875000Y-323195000D03*
D12*
X413782500Y-204675000D03*
D13*
X418862500Y-204675000D03*
D12*
X423942500Y-204675000D03*
D14*
X415707501Y-201405000D03*
D15*
X416362500Y-200675000D03*
D16*
X421382500Y-199885000D03*
D15*
X421402500Y-199595000D03*
D12*
X409020000Y-307545000D03*
D13*
X414100000Y-307545000D03*
D12*
X419180000Y-307545000D03*
D14*
X410945001Y-304275000D03*
D15*
X411600000Y-303545000D03*
D16*
X416620000Y-302755000D03*
D15*
X416640000Y-302465000D03*
D10*
X157425000Y-232887500D03*
D11*
X157425000Y-225087500D03*
D10*
X219337500Y-209075000D03*
D11*
X219337500Y-201275000D03*
D10*
X176475000Y-254795000D03*
D11*
X176475000Y-246995000D03*
D12*
X180420000Y-250395000D03*
D13*
X185500000Y-250395000D03*
D12*
X190580000Y-250395000D03*
D14*
X182345001Y-247125000D03*
D15*
X183000000Y-246395000D03*
D16*
X188020000Y-245605000D03*
D15*
X188040000Y-245315000D03*
D10*
X205050000Y-273845000D03*
D11*
X205050000Y-266045000D03*
D12*
X328057500Y-288495000D03*
D13*
X333137500Y-288495000D03*
D12*
X338217500Y-288495000D03*
D14*
X329982501Y-285225000D03*
D15*
X330637500Y-284495000D03*
D16*
X335657500Y-283705000D03*
D15*
X335677500Y-283415000D03*
D12*
X228045000Y-228487500D03*
D13*
X233125000Y-228487500D03*
D12*
X238205000Y-228487500D03*
D14*
X229970001Y-225217500D03*
D15*
X230625000Y-224487500D03*
D16*
X235645000Y-223697500D03*
D15*
X235665000Y-223407500D03*
D12*
X451882500Y-307545000D03*
D13*
X456962500Y-307545000D03*
D12*
X462042500Y-307545000D03*
D14*
X453807501Y-304275000D03*
D15*
X454462500Y-303545000D03*
D16*
X459482500Y-302755000D03*
D15*
X459502500Y-302465000D03*
D10*
X424125000Y-273845000D03*
D11*
X424125000Y-266045000D03*
D12*
X218520000Y-250395000D03*
D13*
X223600000Y-250395000D03*
D12*
X228680000Y-250395000D03*
D14*
X220445001Y-247125000D03*
D15*
X221100000Y-246395000D03*
D16*
X226120000Y-245605000D03*
D15*
X226140000Y-245315000D03*
D12*
X242332500Y-307545000D03*
D13*
X247412500Y-307545000D03*
D12*
X252492500Y-307545000D03*
D14*
X244257501Y-304275000D03*
D15*
X244912500Y-303545000D03*
D16*
X249932500Y-302755000D03*
D15*
X249952500Y-302465000D03*
D12*
X309007500Y-228487500D03*
D13*
X314087500Y-228487500D03*
D12*
X319167500Y-228487500D03*
D14*
X310932501Y-225217500D03*
D15*
X311587500Y-224487500D03*
D16*
X316607500Y-223697500D03*
D15*
X316627500Y-223407500D03*
D12*
X451882500Y-228487500D03*
D13*
X456962500Y-228487500D03*
D12*
X462042500Y-228487500D03*
D14*
X453807501Y-225217500D03*
D15*
X454462500Y-224487500D03*
D16*
X459482500Y-223697500D03*
D15*
X459502500Y-223407500D03*
D10*
X338400000Y-273845000D03*
D11*
X338400000Y-266045000D03*
D12*
X149463800Y-288495000D03*
D13*
X154543800Y-288495000D03*
D12*
X159623800Y-288495000D03*
D14*
X151388801Y-285225000D03*
D15*
X152043800Y-284495000D03*
D16*
X157063800Y-283705000D03*
D15*
X157083800Y-283415000D03*
D12*
X380445000Y-269445000D03*
D13*
X385525000Y-269445000D03*
D12*
X390605000Y-269445000D03*
D14*
X382370001Y-266175000D03*
D15*
X383025000Y-265445000D03*
D16*
X388045000Y-264655000D03*
D15*
X388065000Y-264365000D03*
D12*
X289957500Y-204675000D03*
D13*
X295037500Y-204675000D03*
D12*
X300117500Y-204675000D03*
D14*
X291882501Y-201405000D03*
D15*
X292537500Y-200675000D03*
D16*
X297557500Y-199885000D03*
D15*
X297577500Y-199595000D03*
D10*
X371737500Y-311945000D03*
D11*
X371737500Y-304145000D03*
D12*
X194707500Y-288495000D03*
D13*
X199787500Y-288495000D03*
D12*
X204867500Y-288495000D03*
D14*
X196632501Y-285225000D03*
D15*
X197287500Y-284495000D03*
D16*
X202307500Y-283705000D03*
D15*
X202327500Y-283415000D03*
D12*
X285195000Y-269445000D03*
D13*
X290275000Y-269445000D03*
D12*
X295355000Y-269445000D03*
D14*
X287120001Y-266175000D03*
D15*
X287775000Y-265445000D03*
D16*
X292795000Y-264655000D03*
D15*
X292815000Y-264365000D03*
D12*
X361395000Y-269445000D03*
D13*
X366475000Y-269445000D03*
D12*
X371555000Y-269445000D03*
D14*
X363320001Y-266175000D03*
D15*
X363975000Y-265445000D03*
D16*
X368995000Y-264655000D03*
D15*
X369015000Y-264365000D03*
D12*
X251857500Y-228487500D03*
D13*
X256937500Y-228487500D03*
D12*
X262017500Y-228487500D03*
D14*
X253782501Y-225217500D03*
D15*
X254437500Y-224487500D03*
D16*
X259457500Y-223697500D03*
D15*
X259477500Y-223407500D03*
D10*
X286012500Y-292895000D03*
D11*
X286012500Y-285095000D03*
D12*
X323295000Y-269445000D03*
D13*
X328375000Y-269445000D03*
D12*
X333455000Y-269445000D03*
D14*
X325220001Y-266175000D03*
D15*
X325875000Y-265445000D03*
D16*
X330895000Y-264655000D03*
D15*
X330915000Y-264365000D03*
D10*
X209812500Y-292895000D03*
D11*
X209812500Y-285095000D03*
D12*
X406638800Y-269445000D03*
D13*
X411718800Y-269445000D03*
D12*
X416798800Y-269445000D03*
D14*
X408563801Y-266175000D03*
D15*
X409218800Y-265445000D03*
D16*
X414238800Y-264655000D03*
D15*
X414258800Y-264365000D03*
D12*
X432832500Y-269445000D03*
D13*
X437912500Y-269445000D03*
D12*
X442992500Y-269445000D03*
D14*
X434757501Y-266175000D03*
D15*
X435412500Y-265445000D03*
D16*
X440432500Y-264655000D03*
D15*
X440452500Y-264365000D03*
D10*
X186000000Y-232887500D03*
D11*
X186000000Y-225087500D03*
D10*
X195525000Y-254795000D03*
D11*
X195525000Y-246995000D03*
D12*
X189945000Y-269445000D03*
D13*
X195025000Y-269445000D03*
D12*
X200105000Y-269445000D03*
D14*
X191870001Y-266175000D03*
D15*
X192525000Y-265445000D03*
D16*
X197545000Y-264655000D03*
D15*
X197565000Y-264365000D03*
D10*
X186000000Y-330995000D03*
D11*
X186000000Y-323195000D03*
D12*
X199470000Y-250395000D03*
D13*
X204550000Y-250395000D03*
D12*
X209630000Y-250395000D03*
D14*
X201395001Y-247125000D03*
D15*
X202050000Y-246395000D03*
D16*
X207070000Y-245605000D03*
D15*
X207090000Y-245315000D03*
D10*
X305062500Y-292895000D03*
D11*
X305062500Y-285095000D03*
D12*
X142320000Y-250395000D03*
D13*
X147400000Y-250395000D03*
D12*
X152480000Y-250395000D03*
D14*
X144245001Y-247125000D03*
D15*
X144900000Y-246395000D03*
D16*
X149920000Y-245605000D03*
D15*
X149940000Y-245315000D03*
D12*
X228045000Y-269445000D03*
D13*
X233125000Y-269445000D03*
D12*
X238205000Y-269445000D03*
D14*
X229970001Y-266175000D03*
D15*
X230625000Y-265445000D03*
D16*
X235645000Y-264655000D03*
D15*
X235665000Y-264365000D03*
D12*
X170895000Y-228487500D03*
D13*
X175975000Y-228487500D03*
D12*
X181055000Y-228487500D03*
D14*
X172820001Y-225217500D03*
D15*
X173475000Y-224487500D03*
D16*
X178495000Y-223697500D03*
D15*
X178515000Y-223407500D03*
D12*
X270907500Y-228487500D03*
D13*
X275987500Y-228487500D03*
D12*
X281067500Y-228487500D03*
D14*
X272832501Y-225217500D03*
D15*
X273487500Y-224487500D03*
D16*
X278507500Y-223697500D03*
D15*
X278527500Y-223407500D03*
D10*
X424125000Y-254795000D03*
D11*
X424125000Y-246995000D03*
D12*
X332820000Y-204675000D03*
D13*
X337900000Y-204675000D03*
D12*
X342980000Y-204675000D03*
D14*
X334745001Y-201405000D03*
D15*
X335400000Y-200675000D03*
D16*
X340420000Y-199885000D03*
D15*
X340440000Y-199595000D03*
D10*
X166950000Y-273845000D03*
D11*
X166950000Y-266045000D03*
D12*
X335201300Y-326595000D03*
D13*
X340281300Y-326595000D03*
D12*
X345361300Y-326595000D03*
D14*
X337126301Y-323325000D03*
D15*
X337781300Y-322595000D03*
D16*
X342801300Y-321805000D03*
D15*
X342821300Y-321515000D03*
D12*
X309007500Y-288495000D03*
D13*
X314087500Y-288495000D03*
D12*
X319167500Y-288495000D03*
D14*
X310932501Y-285225000D03*
D15*
X311587500Y-284495000D03*
D16*
X316607500Y-283705000D03*
D15*
X316627500Y-283415000D03*
D10*
X266962500Y-232887500D03*
D11*
X266962500Y-225087500D03*
D10*
X186000000Y-273845000D03*
D11*
X186000000Y-266045000D03*
D12*
X192326300Y-326595000D03*
D13*
X197406300Y-326595000D03*
D12*
X202486300Y-326595000D03*
D14*
X194251301Y-323325000D03*
D15*
X194906300Y-322595000D03*
D16*
X199926300Y-321805000D03*
D15*
X199946300Y-321515000D03*
D10*
X205050000Y-232887500D03*
D11*
X205050000Y-225087500D03*
D10*
X209812500Y-330995000D03*
D11*
X209812500Y-323195000D03*
D12*
X228045000Y-204675000D03*
D13*
X233125000Y-204675000D03*
D12*
X238205000Y-204675000D03*
D14*
X229970001Y-201405000D03*
D15*
X230625000Y-200675000D03*
D16*
X235645000Y-199885000D03*
D15*
X235665000Y-199595000D03*
D10*
X352687500Y-330995000D03*
D11*
X352687500Y-323195000D03*
D10*
X314587500Y-311945000D03*
D11*
X314587500Y-304145000D03*
D12*
X432832500Y-288495000D03*
D13*
X437912500Y-288495000D03*
D12*
X442992500Y-288495000D03*
D14*
X434757501Y-285225000D03*
D15*
X435412500Y-284495000D03*
D16*
X440432500Y-283705000D03*
D15*
X440452500Y-283415000D03*
D10*
X447937500Y-292895000D03*
D11*
X447937500Y-285095000D03*
D10*
X224100000Y-232887500D03*
D11*
X224100000Y-225087500D03*
D12*
X451882500Y-204675000D03*
D13*
X456962500Y-204675000D03*
D12*
X462042500Y-204675000D03*
D14*
X453807501Y-201405000D03*
D15*
X454462500Y-200675000D03*
D16*
X459482500Y-199885000D03*
D15*
X459502500Y-199595000D03*
D12*
X337582500Y-307545000D03*
D13*
X342662500Y-307545000D03*
D12*
X347742500Y-307545000D03*
D14*
X339507501Y-304275000D03*
D15*
X340162500Y-303545000D03*
D16*
X345182500Y-302755000D03*
D15*
X345202500Y-302465000D03*
D10*
X328875000Y-254795000D03*
D11*
X328875000Y-246995000D03*
D12*
X318532500Y-307545000D03*
D13*
X323612500Y-307545000D03*
D12*
X328692500Y-307545000D03*
D14*
X320457501Y-304275000D03*
D15*
X321112500Y-303545000D03*
D16*
X326132500Y-302755000D03*
D15*
X326152500Y-302465000D03*
D10*
X466987500Y-292895000D03*
D11*
X466987500Y-285095000D03*
D10*
X324112500Y-232887500D03*
D11*
X324112500Y-225087500D03*
D12*
X185182500Y-307545000D03*
D13*
X190262500Y-307545000D03*
D12*
X195342500Y-307545000D03*
D14*
X187107501Y-304275000D03*
D15*
X187762500Y-303545000D03*
D16*
X192782500Y-302755000D03*
D15*
X192802500Y-302465000D03*
D10*
X262200000Y-209075000D03*
D11*
X262200000Y-201275000D03*
D12*
X189945000Y-228487500D03*
D13*
X195025000Y-228487500D03*
D12*
X200105000Y-228487500D03*
D14*
X191870001Y-225217500D03*
D15*
X192525000Y-224487500D03*
D16*
X197545000Y-223697500D03*
D15*
X197565000Y-223407500D03*
D12*
X432832500Y-204675000D03*
D13*
X437912500Y-204675000D03*
D12*
X442992500Y-204675000D03*
D14*
X434757501Y-201405000D03*
D15*
X435412500Y-200675000D03*
D16*
X440432500Y-199885000D03*
D15*
X440452500Y-199595000D03*
D12*
X370920000Y-250395000D03*
D13*
X376000000Y-250395000D03*
D12*
X381080000Y-250395000D03*
D14*
X372845001Y-247125000D03*
D15*
X373500000Y-246395000D03*
D16*
X378520000Y-245605000D03*
D15*
X378540000Y-245315000D03*
D10*
X243150000Y-209075000D03*
D11*
X243150000Y-201275000D03*
D10*
X181237500Y-311945000D03*
D11*
X181237500Y-304145000D03*
D10*
X390787500Y-209075000D03*
D11*
X390787500Y-201275000D03*
D10*
X447937500Y-273845000D03*
D11*
X447937500Y-266045000D03*
D17*
X218843900Y-319610000D03*
D13*
X218843900Y-334850000D03*
D12*
X263763800Y-326595000D03*
D13*
X268843800Y-326595000D03*
D12*
X273923800Y-326595000D03*
D17*
X318843700Y-319610000D03*
D13*
X318843700Y-334850000D03*
D14*
X265688801Y-323325000D03*
D15*
X266343800Y-322595000D03*
D16*
X271363800Y-321805000D03*
D15*
X271383800Y-321515000D03*
D12*
X237570000Y-250395000D03*
D13*
X242650000Y-250395000D03*
D12*
X247730000Y-250395000D03*
D14*
X239495001Y-247125000D03*
D15*
X240150000Y-246395000D03*
D16*
X245170000Y-245605000D03*
D15*
X245190000Y-245315000D03*
D12*
X370920000Y-228487500D03*
D13*
X376000000Y-228487500D03*
D12*
X381080000Y-228487500D03*
D14*
X372845001Y-225217500D03*
D15*
X373500000Y-224487500D03*
D16*
X378520000Y-223697500D03*
D15*
X378540000Y-223407500D03*
D12*
X413782500Y-228487500D03*
D13*
X418862500Y-228487500D03*
D12*
X423942500Y-228487500D03*
D14*
X415707501Y-225217500D03*
D15*
X416362500Y-224487500D03*
D16*
X421382500Y-223697500D03*
D15*
X421402500Y-223407500D03*
D10*
X305062500Y-232887500D03*
D11*
X305062500Y-225087500D03*
D12*
X385207500Y-288495000D03*
D13*
X390287500Y-288495000D03*
D12*
X395367500Y-288495000D03*
D14*
X387132501Y-285225000D03*
D15*
X387787500Y-284495000D03*
D16*
X392807500Y-283705000D03*
D15*
X392827500Y-283415000D03*
D10*
X428887500Y-232887500D03*
D11*
X428887500Y-225087500D03*
D12*
X356632500Y-204675000D03*
D13*
X361712500Y-204675000D03*
D12*
X366792500Y-204675000D03*
D14*
X358557501Y-201405000D03*
D15*
X359212500Y-200675000D03*
D16*
X364232500Y-199885000D03*
D15*
X364252500Y-199595000D03*
D10*
X405075000Y-330995000D03*
D11*
X405075000Y-323195000D03*
D10*
X176475000Y-209075000D03*
D11*
X176475000Y-201275000D03*
D10*
X466987500Y-311945000D03*
D11*
X466987500Y-304145000D03*
D10*
X171712500Y-292895000D03*
D11*
X171712500Y-285095000D03*
D12*
X247095000Y-269445000D03*
D13*
X252175000Y-269445000D03*
D12*
X257255000Y-269445000D03*
D14*
X249020001Y-266175000D03*
D15*
X249675000Y-265445000D03*
D16*
X254695000Y-264655000D03*
D15*
X254715000Y-264365000D03*
D10*
X352687500Y-311945000D03*
D11*
X352687500Y-304145000D03*
D10*
X381262500Y-292895000D03*
D11*
X381262500Y-285095000D03*
D12*
X251857500Y-288495000D03*
D13*
X256937500Y-288495000D03*
D12*
X262017500Y-288495000D03*
D14*
X253782501Y-285225000D03*
D15*
X254437500Y-284495000D03*
D16*
X259457500Y-283705000D03*
D15*
X259477500Y-283415000D03*
D12*
X389970000Y-326595000D03*
D13*
X395050000Y-326595000D03*
D12*
X400130000Y-326595000D03*
D14*
X391895001Y-323325000D03*
D15*
X392550000Y-322595000D03*
D16*
X397570000Y-321805000D03*
D15*
X397590000Y-321515000D03*
D12*
X204232500Y-307545000D03*
D13*
X209312500Y-307545000D03*
D12*
X214392500Y-307545000D03*
D14*
X206157501Y-304275000D03*
D15*
X206812500Y-303545000D03*
D16*
X211832500Y-302755000D03*
D15*
X211852500Y-302465000D03*
D10*
X371737500Y-209075000D03*
D11*
X371737500Y-201275000D03*
D10*
X233625000Y-254795000D03*
D11*
X233625000Y-246995000D03*
D10*
X324112500Y-292895000D03*
D11*
X324112500Y-285095000D03*
D10*
X343162500Y-292895000D03*
D11*
X343162500Y-285095000D03*
D10*
X295537500Y-311945000D03*
D11*
X295537500Y-304145000D03*
D12*
X375682500Y-204675000D03*
D13*
X380762500Y-204675000D03*
D12*
X385842500Y-204675000D03*
D14*
X377607501Y-201405000D03*
D15*
X378262500Y-200675000D03*
D16*
X383282500Y-199885000D03*
D15*
X383302500Y-199595000D03*
D12*
X208995000Y-269445000D03*
D13*
X214075000Y-269445000D03*
D12*
X219155000Y-269445000D03*
D14*
X210920001Y-266175000D03*
D15*
X211575000Y-265445000D03*
D16*
X216595000Y-264655000D03*
D15*
X216615000Y-264365000D03*
D10*
X424125000Y-330995000D03*
D11*
X424125000Y-323195000D03*
D12*
X289957500Y-228487500D03*
D13*
X295037500Y-228487500D03*
D12*
X300117500Y-228487500D03*
D14*
X291882501Y-225217500D03*
D15*
X292537500Y-224487500D03*
D16*
X297557500Y-223697500D03*
D15*
X297577500Y-223407500D03*
D10*
X366975000Y-232887500D03*
D11*
X366975000Y-225087500D03*
D12*
X366157500Y-288495000D03*
D13*
X371237500Y-288495000D03*
D12*
X376317500Y-288495000D03*
D14*
X368082501Y-285225000D03*
D15*
X368737500Y-284495000D03*
D16*
X373757500Y-283705000D03*
D15*
X373777500Y-283415000D03*
D12*
X256620000Y-250395000D03*
D13*
X261700000Y-250395000D03*
D12*
X266780000Y-250395000D03*
D14*
X258545001Y-247125000D03*
D15*
X259200000Y-246395000D03*
D16*
X264220000Y-245605000D03*
D15*
X264240000Y-245315000D03*
D10*
X257437500Y-311945000D03*
D11*
X257437500Y-304145000D03*
D10*
X243150000Y-273845000D03*
D11*
X243150000Y-266045000D03*
D10*
X157425000Y-209075000D03*
D11*
X157425000Y-201275000D03*
D12*
X144701300Y-307545000D03*
D13*
X149781300Y-307545000D03*
D12*
X154861300Y-307545000D03*
D14*
X146626301Y-304275000D03*
D15*
X147281300Y-303545000D03*
D16*
X152301300Y-302755000D03*
D15*
X152321300Y-302465000D03*
D12*
X409020000Y-326595000D03*
D13*
X414100000Y-326595000D03*
D12*
X419180000Y-326595000D03*
D14*
X410945001Y-323325000D03*
D15*
X411600000Y-322595000D03*
D16*
X416620000Y-321805000D03*
D15*
X416640000Y-321515000D03*
D12*
X289957500Y-288495000D03*
D13*
X295037500Y-288495000D03*
D12*
X300117500Y-288495000D03*
D14*
X291882501Y-285225000D03*
D15*
X292537500Y-284495000D03*
D16*
X297557500Y-283705000D03*
D15*
X297577500Y-283415000D03*
D12*
X161370000Y-250395000D03*
D13*
X166450000Y-250395000D03*
D12*
X171530000Y-250395000D03*
D14*
X163295001Y-247125000D03*
D15*
X163950000Y-246395000D03*
D16*
X168970000Y-245605000D03*
D15*
X168990000Y-245315000D03*
D12*
X356632500Y-307545000D03*
D13*
X361712500Y-307545000D03*
D12*
X366792500Y-307545000D03*
D14*
X358557501Y-304275000D03*
D15*
X359212500Y-303545000D03*
D16*
X364232500Y-302755000D03*
D15*
X364252500Y-302465000D03*
D12*
X451882500Y-269445000D03*
D13*
X456962500Y-269445000D03*
D12*
X462042500Y-269445000D03*
D14*
X453807501Y-266175000D03*
D15*
X454462500Y-265445000D03*
D16*
X459482500Y-264655000D03*
D15*
X459502500Y-264365000D03*
D12*
X347107500Y-288495000D03*
D13*
X352187500Y-288495000D03*
D12*
X357267500Y-288495000D03*
D14*
X349032501Y-285225000D03*
D15*
X349687500Y-284495000D03*
D16*
X354707500Y-283705000D03*
D15*
X354727500Y-283415000D03*
D12*
X144701300Y-326595000D03*
D13*
X149781300Y-326595000D03*
D12*
X154861300Y-326595000D03*
D14*
X146626301Y-323325000D03*
D15*
X147281300Y-322595000D03*
D16*
X152301300Y-321805000D03*
D15*
X152321300Y-321515000D03*
D10*
X290775000Y-254795000D03*
D11*
X290775000Y-246995000D03*
D10*
X200287500Y-209075000D03*
D11*
X200287500Y-201275000D03*
D10*
X376500000Y-273845000D03*
D11*
X376500000Y-266045000D03*
D12*
X266145000Y-269445000D03*
D13*
X271225000Y-269445000D03*
D12*
X276305000Y-269445000D03*
D14*
X268070001Y-266175000D03*
D15*
X268725000Y-265445000D03*
D16*
X273745000Y-264655000D03*
D15*
X273765000Y-264365000D03*
D12*
X342345000Y-269445000D03*
D13*
X347425000Y-269445000D03*
D12*
X352505000Y-269445000D03*
D14*
X344270001Y-266175000D03*
D15*
X344925000Y-265445000D03*
D16*
X349945000Y-264655000D03*
D15*
X349965000Y-264365000D03*
D10*
X328875000Y-209075000D03*
D11*
X328875000Y-201275000D03*
D10*
X200287500Y-311945000D03*
D11*
X200287500Y-304145000D03*
D10*
X405075000Y-232887500D03*
D11*
X405075000Y-225087500D03*
D10*
X238387500Y-311945000D03*
D11*
X238387500Y-304145000D03*
D12*
X142320000Y-228487500D03*
D13*
X147400000Y-228487500D03*
D12*
X152480000Y-228487500D03*
D14*
X144245001Y-225217500D03*
D15*
X144900000Y-224487500D03*
D16*
X149920000Y-223697500D03*
D15*
X149940000Y-223407500D03*
D12*
X247095000Y-204675000D03*
D13*
X252175000Y-204675000D03*
D12*
X257255000Y-204675000D03*
D14*
X249020001Y-201405000D03*
D15*
X249675000Y-200675000D03*
D16*
X254695000Y-199885000D03*
D15*
X254715000Y-199595000D03*
D12*
X161370000Y-204675000D03*
D13*
X166450000Y-204675000D03*
D12*
X171530000Y-204675000D03*
D14*
X163295001Y-201405000D03*
D15*
X163950000Y-200675000D03*
D16*
X168970000Y-199885000D03*
D15*
X168990000Y-199595000D03*
D12*
X451882500Y-288495000D03*
D13*
X456962500Y-288495000D03*
D12*
X462042500Y-288495000D03*
D14*
X453807501Y-285225000D03*
D15*
X454462500Y-284495000D03*
D16*
X459482500Y-283705000D03*
D15*
X459502500Y-283415000D03*
D10*
X347925000Y-209075000D03*
D11*
X347925000Y-201275000D03*
D10*
X281250000Y-273845000D03*
D11*
X281250000Y-266045000D03*
D10*
X466987500Y-209075000D03*
D11*
X466987500Y-201275000D03*
D10*
X243150000Y-232887500D03*
D11*
X243150000Y-225087500D03*
D10*
X319350000Y-273845000D03*
D11*
X319350000Y-266045000D03*
D10*
X466987500Y-273845000D03*
D11*
X466987500Y-266045000D03*
D12*
X232807500Y-288495000D03*
D13*
X237887500Y-288495000D03*
D12*
X242967500Y-288495000D03*
D14*
X234732501Y-285225000D03*
D15*
X235387500Y-284495000D03*
D16*
X240407500Y-283705000D03*
D15*
X240427500Y-283415000D03*
D12*
X380445000Y-307545000D03*
D13*
X385525000Y-307545000D03*
D12*
X390605000Y-307545000D03*
D14*
X382370001Y-304275000D03*
D15*
X383025000Y-303545000D03*
D16*
X388045000Y-302755000D03*
D15*
X388065000Y-302465000D03*
D10*
X466987500Y-254795000D03*
D11*
X466987500Y-246995000D03*
D10*
X300300000Y-273845000D03*
D11*
X300300000Y-266045000D03*
D10*
X362212500Y-292895000D03*
D11*
X362212500Y-285095000D03*
D12*
X166132500Y-307545000D03*
D13*
X171212500Y-307545000D03*
D12*
X176292500Y-307545000D03*
D14*
X168057501Y-304275000D03*
D15*
X168712500Y-303545000D03*
D16*
X173732500Y-302755000D03*
D15*
X173752500Y-302465000D03*
D12*
X304245000Y-269445000D03*
D13*
X309325000Y-269445000D03*
D12*
X314405000Y-269445000D03*
D14*
X306170001Y-266175000D03*
D15*
X306825000Y-265445000D03*
D16*
X311845000Y-264655000D03*
D15*
X311865000Y-264365000D03*
D10*
X214575000Y-254795000D03*
D11*
X214575000Y-246995000D03*
D12*
X270907500Y-288495000D03*
D13*
X275987500Y-288495000D03*
D12*
X281067500Y-288495000D03*
D14*
X272832501Y-285225000D03*
D15*
X273487500Y-284495000D03*
D16*
X278507500Y-283705000D03*
D15*
X278527500Y-283415000D03*
D12*
X204232500Y-204675000D03*
D13*
X209312500Y-204675000D03*
D12*
X214392500Y-204675000D03*
D14*
X206157501Y-201405000D03*
D15*
X206812500Y-200675000D03*
D16*
X211832500Y-199885000D03*
D15*
X211852500Y-199595000D03*
D10*
X357450000Y-273845000D03*
D11*
X357450000Y-266045000D03*
D10*
X219337500Y-311945000D03*
D11*
X219337500Y-304145000D03*
D12*
X275670000Y-250395000D03*
D13*
X280750000Y-250395000D03*
D12*
X285830000Y-250395000D03*
D14*
X277595001Y-247125000D03*
D15*
X278250000Y-246395000D03*
D16*
X283270000Y-245605000D03*
D15*
X283290000Y-245315000D03*
D12*
X299482500Y-307545000D03*
D13*
X304562500Y-307545000D03*
D12*
X309642500Y-307545000D03*
D14*
X301407501Y-304275000D03*
D15*
X302062500Y-303545000D03*
D16*
X307082500Y-302755000D03*
D15*
X307102500Y-302465000D03*
D10*
X309825000Y-254795000D03*
D11*
X309825000Y-246995000D03*
D12*
X432832500Y-228487500D03*
D13*
X437912500Y-228487500D03*
D12*
X442992500Y-228487500D03*
D14*
X434757501Y-225217500D03*
D15*
X435412500Y-224487500D03*
D16*
X440432500Y-223697500D03*
D15*
X440452500Y-223407500D03*
D12*
X351870000Y-250395000D03*
D13*
X356950000Y-250395000D03*
D12*
X362030000Y-250395000D03*
D14*
X353795001Y-247125000D03*
D15*
X354450000Y-246395000D03*
D16*
X359470000Y-245605000D03*
D15*
X359490000Y-245315000D03*
D12*
X170895000Y-269445000D03*
D13*
X175975000Y-269445000D03*
D12*
X181055000Y-269445000D03*
D14*
X172820001Y-266175000D03*
D15*
X173475000Y-265445000D03*
D16*
X178495000Y-264655000D03*
D15*
X178515000Y-264365000D03*
D10*
X447937500Y-209075000D03*
D11*
X447937500Y-201275000D03*
D12*
X223282500Y-307545000D03*
D13*
X228362500Y-307545000D03*
D12*
X233442500Y-307545000D03*
D14*
X225207501Y-304275000D03*
D15*
X225862500Y-303545000D03*
D16*
X230882500Y-302755000D03*
D15*
X230902500Y-302465000D03*
D10*
X247912500Y-292895000D03*
D11*
X247912500Y-285095000D03*
D10*
X386025000Y-232887500D03*
D11*
X386025000Y-225087500D03*
D10*
X443175000Y-330995000D03*
D11*
X443175000Y-323195000D03*
D10*
X228862500Y-292895000D03*
D11*
X228862500Y-285095000D03*
D12*
X185182500Y-204675000D03*
D13*
X190262500Y-204675000D03*
D12*
X195342500Y-204675000D03*
D14*
X187107501Y-201405000D03*
D15*
X187762500Y-200675000D03*
D16*
X192782500Y-199885000D03*
D15*
X192802500Y-199595000D03*
D10*
X400312500Y-311945000D03*
D11*
X400312500Y-304145000D03*
D10*
X447937500Y-232887500D03*
D11*
X447937500Y-225087500D03*
D10*
X333637500Y-311945000D03*
D11*
X333637500Y-304145000D03*
D12*
X175657500Y-288495000D03*
D13*
X180737500Y-288495000D03*
D12*
X185817500Y-288495000D03*
D14*
X177582501Y-285225000D03*
D15*
X178237500Y-284495000D03*
D16*
X183257500Y-283705000D03*
D15*
X183277500Y-283415000D03*
D12*
X147082500Y-269445000D03*
D13*
X152162500Y-269445000D03*
D12*
X157242500Y-269445000D03*
D14*
X149007501Y-266175000D03*
D15*
X149662500Y-265445000D03*
D16*
X154682500Y-264655000D03*
D15*
X154702500Y-264365000D03*
D12*
X142320000Y-204675000D03*
D13*
X147400000Y-204675000D03*
D12*
X152480000Y-204675000D03*
D14*
X144245001Y-201405000D03*
D15*
X144900000Y-200675000D03*
D16*
X149920000Y-199885000D03*
D15*
X149940000Y-199595000D03*
D10*
X400312500Y-292895000D03*
D11*
X400312500Y-285095000D03*
D12*
X332820000Y-250395000D03*
D13*
X337900000Y-250395000D03*
D12*
X342980000Y-250395000D03*
D14*
X334745001Y-247125000D03*
D15*
X335400000Y-246395000D03*
D16*
X340420000Y-245605000D03*
D15*
X340440000Y-245315000D03*
D10*
X157425000Y-254795000D03*
D11*
X157425000Y-246995000D03*
D10*
X376500000Y-330995000D03*
D11*
X376500000Y-323195000D03*
D12*
X168513800Y-326595000D03*
D13*
X173593800Y-326595000D03*
D12*
X178673800Y-326595000D03*
D14*
X170438801Y-323325000D03*
D15*
X171093800Y-322595000D03*
D16*
X176113800Y-321805000D03*
D15*
X176133800Y-321515000D03*
D12*
X451882500Y-250395000D03*
D13*
X456962500Y-250395000D03*
D12*
X462042500Y-250395000D03*
D14*
X453807501Y-247125000D03*
D15*
X454462500Y-246395000D03*
D16*
X459482500Y-245605000D03*
D15*
X459502500Y-245315000D03*
D10*
X286012500Y-209075000D03*
D11*
X286012500Y-201275000D03*
D10*
X262200000Y-273845000D03*
D11*
X262200000Y-266045000D03*
D12*
X280432500Y-307545000D03*
D13*
X285512500Y-307545000D03*
D12*
X290592500Y-307545000D03*
D14*
X282357501Y-304275000D03*
D15*
X283012500Y-303545000D03*
D16*
X288032500Y-302755000D03*
D15*
X288052500Y-302465000D03*
D10*
X466987500Y-232887500D03*
D11*
X466987500Y-225087500D03*
D12*
X261382500Y-307545000D03*
D13*
X266462500Y-307545000D03*
D12*
X271542500Y-307545000D03*
D14*
X263307501Y-304275000D03*
D15*
X263962500Y-303545000D03*
D16*
X268982500Y-302755000D03*
D15*
X269002500Y-302465000D03*
D12*
X270907500Y-204675000D03*
D13*
X275987500Y-204675000D03*
D12*
X281067500Y-204675000D03*
D14*
X272832501Y-201405000D03*
D15*
X273487500Y-200675000D03*
D16*
X278507500Y-199885000D03*
D15*
X278527500Y-199595000D03*
D10*
X162187500Y-311945000D03*
D11*
X162187500Y-304145000D03*
D10*
X276487500Y-311945000D03*
D11*
X276487500Y-304145000D03*
D10*
X266962500Y-292895000D03*
D11*
X266962500Y-285095000D03*
D10*
X366975000Y-254795000D03*
D11*
X366975000Y-246995000D03*
D12*
X294720000Y-250395000D03*
D13*
X299800000Y-250395000D03*
D12*
X304880000Y-250395000D03*
D14*
X296645001Y-247125000D03*
D15*
X297300000Y-246395000D03*
D16*
X302320000Y-245605000D03*
D15*
X302340000Y-245315000D03*
D10*
X305062500Y-209075000D03*
D11*
X305062500Y-201275000D03*
D10*
X428887500Y-209075000D03*
D11*
X428887500Y-201275000D03*
D17*
X392637000Y-243410000D03*
D13*
X392637000Y-258650000D03*
D12*
X399495000Y-250395000D03*
D13*
X404575000Y-250395000D03*
D12*
X409655000Y-250395000D03*
D17*
X416513000Y-243410000D03*
D13*
X416513000Y-258650000D03*
D14*
X401420001Y-247125000D03*
D15*
X402075000Y-246395000D03*
D16*
X407095000Y-245605000D03*
D15*
X407115000Y-245315000D03*
D12*
X313770000Y-250395000D03*
D13*
X318850000Y-250395000D03*
D12*
X323930000Y-250395000D03*
D14*
X315695001Y-247125000D03*
D15*
X316350000Y-246395000D03*
D16*
X321370000Y-245605000D03*
D15*
X321390000Y-245315000D03*
D10*
X252675000Y-254795000D03*
D11*
X252675000Y-246995000D03*
D12*
X208995000Y-228487500D03*
D13*
X214075000Y-228487500D03*
D12*
X219155000Y-228487500D03*
D14*
X210920001Y-225217500D03*
D15*
X211575000Y-224487500D03*
D16*
X216595000Y-223697500D03*
D15*
X216615000Y-223407500D03*
D12*
X351870000Y-228487500D03*
D13*
X356950000Y-228487500D03*
D12*
X362030000Y-228487500D03*
D14*
X353795001Y-225217500D03*
D15*
X354450000Y-224487500D03*
D16*
X359470000Y-223697500D03*
D15*
X359490000Y-223407500D03*
D18*
X462901600Y-173632900D03*
X469201600Y-173632900D03*
X462901600Y-169832900D03*
X469201600Y-169832900D03*
D19*
X465026600Y-176732900D03*
X467076600Y-176732900D03*
D20*
X306125000Y-167550000D03*
X298825000Y-167550000D03*
X306125000Y-172050000D03*
X298825000Y-172050000D03*
D21*
X304075000Y-172050000D03*
X303275000Y-172050000D03*
X302475000Y-172050000D03*
X301675000Y-172050000D03*
X300875000Y-172050000D03*
M02*
