G04 #@! TF.GenerationSoftware,KiCad,Pcbnew,7.0.8*
G04 #@! TF.CreationDate,2023-10-17T11:30:24-05:00*
G04 #@! TF.ProjectId,Vessel,56657373-656c-42e6-9b69-6361645f7063,rev?*
G04 #@! TF.SameCoordinates,Original*
G04 #@! TF.FileFunction,Soldermask,Top*
G04 #@! TF.FilePolarity,Negative*
%FSLAX46Y46*%
G04 Gerber Fmt 4.6, Leading zero omitted, Abs format (unit mm)*
G04 Created by KiCad (PCBNEW 7.0.8) date 2023-10-17 11:30:24*
%MOMM*%
%LPD*%
G01*
G04 APERTURE LIST*
G04 Aperture macros list*
%AMRoundRect*
0 Rectangle with rounded corners*
0 $1 Rounding radius*
0 $2 $3 $4 $5 $6 $7 $8 $9 X,Y pos of 4 corners*
0 Add a 4 corners polygon primitive as box body*
4,1,4,$2,$3,$4,$5,$6,$7,$8,$9,$2,$3,0*
0 Add four circle primitives for the rounded corners*
1,1,$1+$1,$2,$3*
1,1,$1+$1,$4,$5*
1,1,$1+$1,$6,$7*
1,1,$1+$1,$8,$9*
0 Add four rect primitives between the rounded corners*
20,1,$1+$1,$2,$3,$4,$5,0*
20,1,$1+$1,$4,$5,$6,$7,0*
20,1,$1+$1,$6,$7,$8,$9,0*
20,1,$1+$1,$8,$9,$2,$3,0*%
%AMRotRect*
0 Rectangle, with rotation*
0 The origin of the aperture is its center*
0 $1 length*
0 $2 width*
0 $3 Rotation angle, in degrees counterclockwise*
0 Add horizontal line*
21,1,$1,$2,0,0,$3*%
G04 Aperture macros list end*
%ADD10RoundRect,0.250000X0.548008X0.088388X0.088388X0.548008X-0.548008X-0.088388X-0.088388X-0.548008X0*%
%ADD11RotRect,1.500000X0.550000X135.000000*%
%ADD12RotRect,1.500000X0.550000X225.000000*%
%ADD13RotRect,1.600000X1.300000X135.000000*%
%ADD14R,1.600000X1.600000*%
%ADD15R,1.200000X1.200000*%
%ADD16C,1.600000*%
%ADD17C,1.750000*%
%ADD18C,3.987800*%
%ADD19C,3.048000*%
%ADD20O,1.700000X2.700000*%
G04 APERTURE END LIST*
D10*
X455140384Y-188403784D03*
X453690816Y-186954216D03*
X457968784Y-185575384D03*
X456519216Y-184125816D03*
X443826684Y-171433284D03*
X442377116Y-169983716D03*
D11*
X454203482Y-183224236D03*
X454769167Y-182658550D03*
X455334852Y-182092865D03*
X455900538Y-181527180D03*
X456466223Y-180961494D03*
X457031909Y-180395809D03*
X457597594Y-179830123D03*
X458163280Y-179264438D03*
X458728965Y-178698752D03*
X459294650Y-178133067D03*
X459860336Y-177567382D03*
D12*
X459860336Y-175163218D03*
X459294650Y-174597533D03*
X458728965Y-174031848D03*
X458163280Y-173466162D03*
X457597594Y-172900477D03*
X457031909Y-172334791D03*
X456466223Y-171769106D03*
X455900538Y-171203420D03*
X455334852Y-170637735D03*
X454769167Y-170072050D03*
X454203482Y-169506364D03*
D11*
X451799318Y-169506364D03*
X451233633Y-170072050D03*
X450667948Y-170637735D03*
X450102262Y-171203420D03*
X449536577Y-171769106D03*
X448970891Y-172334791D03*
X448405206Y-172900477D03*
X447839520Y-173466162D03*
X447273835Y-174031848D03*
X446708150Y-174597533D03*
X446142464Y-175163218D03*
D12*
X446142464Y-177567382D03*
X446708150Y-178133067D03*
X447273835Y-178698752D03*
X447839520Y-179264438D03*
X448405206Y-179830123D03*
X448970891Y-180395809D03*
X449536577Y-180961494D03*
X450102262Y-181527180D03*
X450667948Y-182092865D03*
X451233633Y-182658550D03*
X451799318Y-183224236D03*
D10*
X460090084Y-183454084D03*
X458640516Y-182004516D03*
X437687484Y-177639584D03*
X436237916Y-176190016D03*
X444758484Y-184710684D03*
X443308916Y-183261116D03*
D13*
X438624367Y-179990681D03*
X440957819Y-182324133D03*
X442372033Y-180909919D03*
X440038581Y-178576467D03*
D10*
X441626884Y-189746184D03*
X440177316Y-188296616D03*
X434555884Y-182675084D03*
X433106316Y-181225516D03*
X445162484Y-193281684D03*
X443712916Y-191832116D03*
X438091384Y-186210684D03*
X436641816Y-184761116D03*
D14*
X271725000Y-254795000D03*
D15*
X271725000Y-252470000D03*
X271725000Y-249320000D03*
D16*
X271725000Y-246995000D03*
D14*
X447937500Y-254795000D03*
D15*
X447937500Y-252470000D03*
X447937500Y-249320000D03*
D16*
X447937500Y-246995000D03*
D14*
X224100000Y-273845000D03*
D15*
X224100000Y-271520000D03*
X224100000Y-268370000D03*
D16*
X224100000Y-266045000D03*
D17*
X332820000Y-228487500D03*
D18*
X337900000Y-228487500D03*
D17*
X342980000Y-228487500D03*
X428070000Y-326595000D03*
D18*
X433150000Y-326595000D03*
D17*
X438230000Y-326595000D03*
X359013800Y-326595000D03*
D18*
X364093800Y-326595000D03*
D17*
X369173800Y-326595000D03*
X389970000Y-228487500D03*
D18*
X395050000Y-228487500D03*
D17*
X400130000Y-228487500D03*
D14*
X190762500Y-292895000D03*
D15*
X190762500Y-290570000D03*
X190762500Y-287420000D03*
D16*
X190762500Y-285095000D03*
D17*
X313770000Y-204675000D03*
D18*
X318850000Y-204675000D03*
D17*
X323930000Y-204675000D03*
X432832500Y-250395000D03*
D18*
X437912500Y-250395000D03*
D17*
X442992500Y-250395000D03*
D14*
X347925000Y-232887500D03*
D15*
X347925000Y-230562500D03*
X347925000Y-227412500D03*
D16*
X347925000Y-225087500D03*
D14*
X162187500Y-330995000D03*
D15*
X162187500Y-328670000D03*
X162187500Y-325520000D03*
D16*
X162187500Y-323195000D03*
D14*
X395550000Y-273845000D03*
D15*
X395550000Y-271520000D03*
X395550000Y-268370000D03*
D16*
X395550000Y-266045000D03*
D17*
X213757500Y-288495000D03*
D18*
X218837500Y-288495000D03*
D17*
X223917500Y-288495000D03*
D14*
X386025000Y-254795000D03*
D15*
X386025000Y-252470000D03*
X386025000Y-249320000D03*
D16*
X386025000Y-246995000D03*
D14*
X424125000Y-311945000D03*
D15*
X424125000Y-309620000D03*
X424125000Y-306470000D03*
D16*
X424125000Y-304145000D03*
D14*
X347925000Y-254795000D03*
D15*
X347925000Y-252470000D03*
X347925000Y-249320000D03*
D16*
X347925000Y-246995000D03*
D14*
X286012500Y-232887500D03*
D15*
X286012500Y-230562500D03*
X286012500Y-227412500D03*
D16*
X286012500Y-225087500D03*
D14*
X328875000Y-330995000D03*
D15*
X328875000Y-328670000D03*
X328875000Y-325520000D03*
D16*
X328875000Y-323195000D03*
D17*
X413782500Y-204675000D03*
D18*
X418862500Y-204675000D03*
D17*
X423942500Y-204675000D03*
X409020000Y-307545000D03*
D18*
X414100000Y-307545000D03*
D17*
X419180000Y-307545000D03*
D14*
X157425000Y-232887500D03*
D15*
X157425000Y-230562500D03*
X157425000Y-227412500D03*
D16*
X157425000Y-225087500D03*
D14*
X219337500Y-209075000D03*
D15*
X219337500Y-206750000D03*
X219337500Y-203600000D03*
D16*
X219337500Y-201275000D03*
D14*
X176475000Y-254795000D03*
D15*
X176475000Y-252470000D03*
X176475000Y-249320000D03*
D16*
X176475000Y-246995000D03*
D17*
X180420000Y-250395000D03*
D18*
X185500000Y-250395000D03*
D17*
X190580000Y-250395000D03*
D14*
X205050000Y-273845000D03*
D15*
X205050000Y-271520000D03*
X205050000Y-268370000D03*
D16*
X205050000Y-266045000D03*
D17*
X328057500Y-288495000D03*
D18*
X333137500Y-288495000D03*
D17*
X338217500Y-288495000D03*
X228045000Y-228487500D03*
D18*
X233125000Y-228487500D03*
D17*
X238205000Y-228487500D03*
X451882500Y-307545000D03*
D18*
X456962500Y-307545000D03*
D17*
X462042500Y-307545000D03*
D14*
X424125000Y-273845000D03*
D15*
X424125000Y-271520000D03*
X424125000Y-268370000D03*
D16*
X424125000Y-266045000D03*
D17*
X218520000Y-250395000D03*
D18*
X223600000Y-250395000D03*
D17*
X228680000Y-250395000D03*
X242332500Y-307545000D03*
D18*
X247412500Y-307545000D03*
D17*
X252492500Y-307545000D03*
X309007500Y-228487500D03*
D18*
X314087500Y-228487500D03*
D17*
X319167500Y-228487500D03*
X451882500Y-228487500D03*
D18*
X456962500Y-228487500D03*
D17*
X462042500Y-228487500D03*
D14*
X338400000Y-273845000D03*
D15*
X338400000Y-271520000D03*
X338400000Y-268370000D03*
D16*
X338400000Y-266045000D03*
D17*
X149463800Y-288495000D03*
D18*
X154543800Y-288495000D03*
D17*
X159623800Y-288495000D03*
X380445000Y-269445000D03*
D18*
X385525000Y-269445000D03*
D17*
X390605000Y-269445000D03*
X289957500Y-204675000D03*
D18*
X295037500Y-204675000D03*
D17*
X300117500Y-204675000D03*
D14*
X371737500Y-311945000D03*
D15*
X371737500Y-309620000D03*
X371737500Y-306470000D03*
D16*
X371737500Y-304145000D03*
D17*
X194707500Y-288495000D03*
D18*
X199787500Y-288495000D03*
D17*
X204867500Y-288495000D03*
X285195000Y-269445000D03*
D18*
X290275000Y-269445000D03*
D17*
X295355000Y-269445000D03*
X361395000Y-269445000D03*
D18*
X366475000Y-269445000D03*
D17*
X371555000Y-269445000D03*
X251857500Y-228487500D03*
D18*
X256937500Y-228487500D03*
D17*
X262017500Y-228487500D03*
D14*
X286012500Y-292895000D03*
D15*
X286012500Y-290570000D03*
X286012500Y-287420000D03*
D16*
X286012500Y-285095000D03*
D17*
X323295000Y-269445000D03*
D18*
X328375000Y-269445000D03*
D17*
X333455000Y-269445000D03*
D14*
X209812500Y-292895000D03*
D15*
X209812500Y-290570000D03*
X209812500Y-287420000D03*
D16*
X209812500Y-285095000D03*
D17*
X406638800Y-269445000D03*
D18*
X411718800Y-269445000D03*
D17*
X416798800Y-269445000D03*
X432832500Y-269445000D03*
D18*
X437912500Y-269445000D03*
D17*
X442992500Y-269445000D03*
D14*
X186000000Y-232887500D03*
D15*
X186000000Y-230562500D03*
X186000000Y-227412500D03*
D16*
X186000000Y-225087500D03*
D14*
X195525000Y-254795000D03*
D15*
X195525000Y-252470000D03*
X195525000Y-249320000D03*
D16*
X195525000Y-246995000D03*
D17*
X189945000Y-269445000D03*
D18*
X195025000Y-269445000D03*
D17*
X200105000Y-269445000D03*
D14*
X186000000Y-330995000D03*
D15*
X186000000Y-328670000D03*
X186000000Y-325520000D03*
D16*
X186000000Y-323195000D03*
D17*
X199470000Y-250395000D03*
D18*
X204550000Y-250395000D03*
D17*
X209630000Y-250395000D03*
D14*
X305062500Y-292895000D03*
D15*
X305062500Y-290570000D03*
X305062500Y-287420000D03*
D16*
X305062500Y-285095000D03*
D17*
X142320000Y-250395000D03*
D18*
X147400000Y-250395000D03*
D17*
X152480000Y-250395000D03*
X228045000Y-269445000D03*
D18*
X233125000Y-269445000D03*
D17*
X238205000Y-269445000D03*
X170895000Y-228487500D03*
D18*
X175975000Y-228487500D03*
D17*
X181055000Y-228487500D03*
X270907500Y-228487500D03*
D18*
X275987500Y-228487500D03*
D17*
X281067500Y-228487500D03*
D14*
X424125000Y-254795000D03*
D15*
X424125000Y-252470000D03*
X424125000Y-249320000D03*
D16*
X424125000Y-246995000D03*
D17*
X332820000Y-204675000D03*
D18*
X337900000Y-204675000D03*
D17*
X342980000Y-204675000D03*
D14*
X166950000Y-273845000D03*
D15*
X166950000Y-271520000D03*
X166950000Y-268370000D03*
D16*
X166950000Y-266045000D03*
D17*
X335201300Y-326595000D03*
D18*
X340281300Y-326595000D03*
D17*
X345361300Y-326595000D03*
X309007500Y-288495000D03*
D18*
X314087500Y-288495000D03*
D17*
X319167500Y-288495000D03*
D14*
X266962500Y-232887500D03*
D15*
X266962500Y-230562500D03*
X266962500Y-227412500D03*
D16*
X266962500Y-225087500D03*
D14*
X186000000Y-273845000D03*
D15*
X186000000Y-271520000D03*
X186000000Y-268370000D03*
D16*
X186000000Y-266045000D03*
D17*
X192326300Y-326595000D03*
D18*
X197406300Y-326595000D03*
D17*
X202486300Y-326595000D03*
D14*
X205050000Y-232887500D03*
D15*
X205050000Y-230562500D03*
X205050000Y-227412500D03*
D16*
X205050000Y-225087500D03*
D14*
X209812500Y-330995000D03*
D15*
X209812500Y-328670000D03*
X209812500Y-325520000D03*
D16*
X209812500Y-323195000D03*
D17*
X228045000Y-204675000D03*
D18*
X233125000Y-204675000D03*
D17*
X238205000Y-204675000D03*
D14*
X352687500Y-330995000D03*
D15*
X352687500Y-328670000D03*
X352687500Y-325520000D03*
D16*
X352687500Y-323195000D03*
D14*
X314587500Y-311945000D03*
D15*
X314587500Y-309620000D03*
X314587500Y-306470000D03*
D16*
X314587500Y-304145000D03*
D17*
X432832500Y-288495000D03*
D18*
X437912500Y-288495000D03*
D17*
X442992500Y-288495000D03*
D14*
X447937500Y-292895000D03*
D15*
X447937500Y-290570000D03*
X447937500Y-287420000D03*
D16*
X447937500Y-285095000D03*
D14*
X224100000Y-232887500D03*
D15*
X224100000Y-230562500D03*
X224100000Y-227412500D03*
D16*
X224100000Y-225087500D03*
D17*
X451882500Y-204675000D03*
D18*
X456962500Y-204675000D03*
D17*
X462042500Y-204675000D03*
X337582500Y-307545000D03*
D18*
X342662500Y-307545000D03*
D17*
X347742500Y-307545000D03*
D14*
X328875000Y-254795000D03*
D15*
X328875000Y-252470000D03*
X328875000Y-249320000D03*
D16*
X328875000Y-246995000D03*
D17*
X318532500Y-307545000D03*
D18*
X323612500Y-307545000D03*
D17*
X328692500Y-307545000D03*
D14*
X466987500Y-292895000D03*
D15*
X466987500Y-290570000D03*
X466987500Y-287420000D03*
D16*
X466987500Y-285095000D03*
D14*
X324112500Y-232887500D03*
D15*
X324112500Y-230562500D03*
X324112500Y-227412500D03*
D16*
X324112500Y-225087500D03*
D17*
X185182500Y-307545000D03*
D18*
X190262500Y-307545000D03*
D17*
X195342500Y-307545000D03*
D14*
X262200000Y-209075000D03*
D15*
X262200000Y-206750000D03*
X262200000Y-203600000D03*
D16*
X262200000Y-201275000D03*
D17*
X189945000Y-228487500D03*
D18*
X195025000Y-228487500D03*
D17*
X200105000Y-228487500D03*
X432832500Y-204675000D03*
D18*
X437912500Y-204675000D03*
D17*
X442992500Y-204675000D03*
X370920000Y-250395000D03*
D18*
X376000000Y-250395000D03*
D17*
X381080000Y-250395000D03*
D14*
X243150000Y-209075000D03*
D15*
X243150000Y-206750000D03*
X243150000Y-203600000D03*
D16*
X243150000Y-201275000D03*
D14*
X181237500Y-311945000D03*
D15*
X181237500Y-309620000D03*
X181237500Y-306470000D03*
D16*
X181237500Y-304145000D03*
D14*
X390787500Y-209075000D03*
D15*
X390787500Y-206750000D03*
X390787500Y-203600000D03*
D16*
X390787500Y-201275000D03*
D14*
X447937500Y-273845000D03*
D15*
X447937500Y-271520000D03*
X447937500Y-268370000D03*
D16*
X447937500Y-266045000D03*
D19*
X218843900Y-319610000D03*
D18*
X218843900Y-334850000D03*
D17*
X263763800Y-326595000D03*
D18*
X268843800Y-326595000D03*
D17*
X273923800Y-326595000D03*
D19*
X318843700Y-319610000D03*
D18*
X318843700Y-334850000D03*
D17*
X237570000Y-250395000D03*
D18*
X242650000Y-250395000D03*
D17*
X247730000Y-250395000D03*
X370920000Y-228487500D03*
D18*
X376000000Y-228487500D03*
D17*
X381080000Y-228487500D03*
X413782500Y-228487500D03*
D18*
X418862500Y-228487500D03*
D17*
X423942500Y-228487500D03*
D14*
X305062500Y-232887500D03*
D15*
X305062500Y-230562500D03*
X305062500Y-227412500D03*
D16*
X305062500Y-225087500D03*
D17*
X385207500Y-288495000D03*
D18*
X390287500Y-288495000D03*
D17*
X395367500Y-288495000D03*
D14*
X428887500Y-232887500D03*
D15*
X428887500Y-230562500D03*
X428887500Y-227412500D03*
D16*
X428887500Y-225087500D03*
D17*
X356632500Y-204675000D03*
D18*
X361712500Y-204675000D03*
D17*
X366792500Y-204675000D03*
D14*
X405075000Y-330995000D03*
D15*
X405075000Y-328670000D03*
X405075000Y-325520000D03*
D16*
X405075000Y-323195000D03*
D14*
X176475000Y-209075000D03*
D15*
X176475000Y-206750000D03*
X176475000Y-203600000D03*
D16*
X176475000Y-201275000D03*
D14*
X466987500Y-311945000D03*
D15*
X466987500Y-309620000D03*
X466987500Y-306470000D03*
D16*
X466987500Y-304145000D03*
D14*
X171712500Y-292895000D03*
D15*
X171712500Y-290570000D03*
X171712500Y-287420000D03*
D16*
X171712500Y-285095000D03*
D17*
X247095000Y-269445000D03*
D18*
X252175000Y-269445000D03*
D17*
X257255000Y-269445000D03*
D14*
X352687500Y-311945000D03*
D15*
X352687500Y-309620000D03*
X352687500Y-306470000D03*
D16*
X352687500Y-304145000D03*
D14*
X381262500Y-292895000D03*
D15*
X381262500Y-290570000D03*
X381262500Y-287420000D03*
D16*
X381262500Y-285095000D03*
D17*
X251857500Y-288495000D03*
D18*
X256937500Y-288495000D03*
D17*
X262017500Y-288495000D03*
X389970000Y-326595000D03*
D18*
X395050000Y-326595000D03*
D17*
X400130000Y-326595000D03*
X204232500Y-307545000D03*
D18*
X209312500Y-307545000D03*
D17*
X214392500Y-307545000D03*
D14*
X371737500Y-209075000D03*
D15*
X371737500Y-206750000D03*
X371737500Y-203600000D03*
D16*
X371737500Y-201275000D03*
D14*
X233625000Y-254795000D03*
D15*
X233625000Y-252470000D03*
X233625000Y-249320000D03*
D16*
X233625000Y-246995000D03*
D14*
X324112500Y-292895000D03*
D15*
X324112500Y-290570000D03*
X324112500Y-287420000D03*
D16*
X324112500Y-285095000D03*
D14*
X343162500Y-292895000D03*
D15*
X343162500Y-290570000D03*
X343162500Y-287420000D03*
D16*
X343162500Y-285095000D03*
D14*
X295537500Y-311945000D03*
D15*
X295537500Y-309620000D03*
X295537500Y-306470000D03*
D16*
X295537500Y-304145000D03*
D17*
X375682500Y-204675000D03*
D18*
X380762500Y-204675000D03*
D17*
X385842500Y-204675000D03*
X208995000Y-269445000D03*
D18*
X214075000Y-269445000D03*
D17*
X219155000Y-269445000D03*
D14*
X424125000Y-330995000D03*
D15*
X424125000Y-328670000D03*
X424125000Y-325520000D03*
D16*
X424125000Y-323195000D03*
D17*
X289957500Y-228487500D03*
D18*
X295037500Y-228487500D03*
D17*
X300117500Y-228487500D03*
D14*
X366975000Y-232887500D03*
D15*
X366975000Y-230562500D03*
X366975000Y-227412500D03*
D16*
X366975000Y-225087500D03*
D17*
X366157500Y-288495000D03*
D18*
X371237500Y-288495000D03*
D17*
X376317500Y-288495000D03*
X256620000Y-250395000D03*
D18*
X261700000Y-250395000D03*
D17*
X266780000Y-250395000D03*
D14*
X257437500Y-311945000D03*
D15*
X257437500Y-309620000D03*
X257437500Y-306470000D03*
D16*
X257437500Y-304145000D03*
D14*
X243150000Y-273845000D03*
D15*
X243150000Y-271520000D03*
X243150000Y-268370000D03*
D16*
X243150000Y-266045000D03*
D14*
X157425000Y-209075000D03*
D15*
X157425000Y-206750000D03*
X157425000Y-203600000D03*
D16*
X157425000Y-201275000D03*
D17*
X144701300Y-307545000D03*
D18*
X149781300Y-307545000D03*
D17*
X154861300Y-307545000D03*
X409020000Y-326595000D03*
D18*
X414100000Y-326595000D03*
D17*
X419180000Y-326595000D03*
X289957500Y-288495000D03*
D18*
X295037500Y-288495000D03*
D17*
X300117500Y-288495000D03*
X161370000Y-250395000D03*
D18*
X166450000Y-250395000D03*
D17*
X171530000Y-250395000D03*
X356632500Y-307545000D03*
D18*
X361712500Y-307545000D03*
D17*
X366792500Y-307545000D03*
X451882500Y-269445000D03*
D18*
X456962500Y-269445000D03*
D17*
X462042500Y-269445000D03*
X347107500Y-288495000D03*
D18*
X352187500Y-288495000D03*
D17*
X357267500Y-288495000D03*
X144701300Y-326595000D03*
D18*
X149781300Y-326595000D03*
D17*
X154861300Y-326595000D03*
D14*
X290775000Y-254795000D03*
D15*
X290775000Y-252470000D03*
X290775000Y-249320000D03*
D16*
X290775000Y-246995000D03*
D14*
X200287500Y-209075000D03*
D15*
X200287500Y-206750000D03*
X200287500Y-203600000D03*
D16*
X200287500Y-201275000D03*
D14*
X376500000Y-273845000D03*
D15*
X376500000Y-271520000D03*
X376500000Y-268370000D03*
D16*
X376500000Y-266045000D03*
D17*
X266145000Y-269445000D03*
D18*
X271225000Y-269445000D03*
D17*
X276305000Y-269445000D03*
X342345000Y-269445000D03*
D18*
X347425000Y-269445000D03*
D17*
X352505000Y-269445000D03*
D14*
X328875000Y-209075000D03*
D15*
X328875000Y-206750000D03*
X328875000Y-203600000D03*
D16*
X328875000Y-201275000D03*
D14*
X200287500Y-311945000D03*
D15*
X200287500Y-309620000D03*
X200287500Y-306470000D03*
D16*
X200287500Y-304145000D03*
D14*
X405075000Y-232887500D03*
D15*
X405075000Y-230562500D03*
X405075000Y-227412500D03*
D16*
X405075000Y-225087500D03*
D14*
X238387500Y-311945000D03*
D15*
X238387500Y-309620000D03*
X238387500Y-306470000D03*
D16*
X238387500Y-304145000D03*
D17*
X142320000Y-228487500D03*
D18*
X147400000Y-228487500D03*
D17*
X152480000Y-228487500D03*
X247095000Y-204675000D03*
D18*
X252175000Y-204675000D03*
D17*
X257255000Y-204675000D03*
X161370000Y-204675000D03*
D18*
X166450000Y-204675000D03*
D17*
X171530000Y-204675000D03*
X451882500Y-288495000D03*
D18*
X456962500Y-288495000D03*
D17*
X462042500Y-288495000D03*
D14*
X347925000Y-209075000D03*
D15*
X347925000Y-206750000D03*
X347925000Y-203600000D03*
D16*
X347925000Y-201275000D03*
D14*
X281250000Y-273845000D03*
D15*
X281250000Y-271520000D03*
X281250000Y-268370000D03*
D16*
X281250000Y-266045000D03*
D14*
X466987500Y-209075000D03*
D15*
X466987500Y-206750000D03*
X466987500Y-203600000D03*
D16*
X466987500Y-201275000D03*
D14*
X243150000Y-232887500D03*
D15*
X243150000Y-230562500D03*
X243150000Y-227412500D03*
D16*
X243150000Y-225087500D03*
D14*
X319350000Y-273845000D03*
D15*
X319350000Y-271520000D03*
X319350000Y-268370000D03*
D16*
X319350000Y-266045000D03*
D14*
X466987500Y-273845000D03*
D15*
X466987500Y-271520000D03*
X466987500Y-268370000D03*
D16*
X466987500Y-266045000D03*
D17*
X232807500Y-288495000D03*
D18*
X237887500Y-288495000D03*
D17*
X242967500Y-288495000D03*
X380445000Y-307545000D03*
D18*
X385525000Y-307545000D03*
D17*
X390605000Y-307545000D03*
D14*
X466987500Y-254795000D03*
D15*
X466987500Y-252470000D03*
X466987500Y-249320000D03*
D16*
X466987500Y-246995000D03*
D14*
X300300000Y-273845000D03*
D15*
X300300000Y-271520000D03*
X300300000Y-268370000D03*
D16*
X300300000Y-266045000D03*
D14*
X362212500Y-292895000D03*
D15*
X362212500Y-290570000D03*
X362212500Y-287420000D03*
D16*
X362212500Y-285095000D03*
D17*
X166132500Y-307545000D03*
D18*
X171212500Y-307545000D03*
D17*
X176292500Y-307545000D03*
X304245000Y-269445000D03*
D18*
X309325000Y-269445000D03*
D17*
X314405000Y-269445000D03*
D14*
X214575000Y-254795000D03*
D15*
X214575000Y-252470000D03*
X214575000Y-249320000D03*
D16*
X214575000Y-246995000D03*
D17*
X270907500Y-288495000D03*
D18*
X275987500Y-288495000D03*
D17*
X281067500Y-288495000D03*
X204232500Y-204675000D03*
D18*
X209312500Y-204675000D03*
D17*
X214392500Y-204675000D03*
D14*
X357450000Y-273845000D03*
D15*
X357450000Y-271520000D03*
X357450000Y-268370000D03*
D16*
X357450000Y-266045000D03*
D14*
X219337500Y-311945000D03*
D15*
X219337500Y-309620000D03*
X219337500Y-306470000D03*
D16*
X219337500Y-304145000D03*
D17*
X275670000Y-250395000D03*
D18*
X280750000Y-250395000D03*
D17*
X285830000Y-250395000D03*
X299482500Y-307545000D03*
D18*
X304562500Y-307545000D03*
D17*
X309642500Y-307545000D03*
D14*
X309825000Y-254795000D03*
D15*
X309825000Y-252470000D03*
X309825000Y-249320000D03*
D16*
X309825000Y-246995000D03*
D17*
X432832500Y-228487500D03*
D18*
X437912500Y-228487500D03*
D17*
X442992500Y-228487500D03*
X351870000Y-250395000D03*
D18*
X356950000Y-250395000D03*
D17*
X362030000Y-250395000D03*
X170895000Y-269445000D03*
D18*
X175975000Y-269445000D03*
D17*
X181055000Y-269445000D03*
D14*
X447937500Y-209075000D03*
D15*
X447937500Y-206750000D03*
X447937500Y-203600000D03*
D16*
X447937500Y-201275000D03*
D17*
X223282500Y-307545000D03*
D18*
X228362500Y-307545000D03*
D17*
X233442500Y-307545000D03*
D14*
X247912500Y-292895000D03*
D15*
X247912500Y-290570000D03*
X247912500Y-287420000D03*
D16*
X247912500Y-285095000D03*
D14*
X386025000Y-232887500D03*
D15*
X386025000Y-230562500D03*
X386025000Y-227412500D03*
D16*
X386025000Y-225087500D03*
D14*
X443175000Y-330995000D03*
D15*
X443175000Y-328670000D03*
X443175000Y-325520000D03*
D16*
X443175000Y-323195000D03*
D14*
X228862500Y-292895000D03*
D15*
X228862500Y-290570000D03*
X228862500Y-287420000D03*
D16*
X228862500Y-285095000D03*
D17*
X185182500Y-204675000D03*
D18*
X190262500Y-204675000D03*
D17*
X195342500Y-204675000D03*
D14*
X400312500Y-311945000D03*
D15*
X400312500Y-309620000D03*
X400312500Y-306470000D03*
D16*
X400312500Y-304145000D03*
D14*
X447937500Y-232887500D03*
D15*
X447937500Y-230562500D03*
X447937500Y-227412500D03*
D16*
X447937500Y-225087500D03*
D14*
X333637500Y-311945000D03*
D15*
X333637500Y-309620000D03*
X333637500Y-306470000D03*
D16*
X333637500Y-304145000D03*
D17*
X175657500Y-288495000D03*
D18*
X180737500Y-288495000D03*
D17*
X185817500Y-288495000D03*
X147082500Y-269445000D03*
D18*
X152162500Y-269445000D03*
D17*
X157242500Y-269445000D03*
X142320000Y-204675000D03*
D18*
X147400000Y-204675000D03*
D17*
X152480000Y-204675000D03*
D14*
X400312500Y-292895000D03*
D15*
X400312500Y-290570000D03*
X400312500Y-287420000D03*
D16*
X400312500Y-285095000D03*
D17*
X332820000Y-250395000D03*
D18*
X337900000Y-250395000D03*
D17*
X342980000Y-250395000D03*
D14*
X157425000Y-254795000D03*
D15*
X157425000Y-252470000D03*
X157425000Y-249320000D03*
D16*
X157425000Y-246995000D03*
D14*
X376500000Y-330995000D03*
D15*
X376500000Y-328670000D03*
X376500000Y-325520000D03*
D16*
X376500000Y-323195000D03*
D17*
X168513800Y-326595000D03*
D18*
X173593800Y-326595000D03*
D17*
X178673800Y-326595000D03*
X451882500Y-250395000D03*
D18*
X456962500Y-250395000D03*
D17*
X462042500Y-250395000D03*
D14*
X286012500Y-209075000D03*
D15*
X286012500Y-206750000D03*
X286012500Y-203600000D03*
D16*
X286012500Y-201275000D03*
D14*
X262200000Y-273845000D03*
D15*
X262200000Y-271520000D03*
X262200000Y-268370000D03*
D16*
X262200000Y-266045000D03*
D17*
X280432500Y-307545000D03*
D18*
X285512500Y-307545000D03*
D17*
X290592500Y-307545000D03*
D14*
X466987500Y-232887500D03*
D15*
X466987500Y-230562500D03*
X466987500Y-227412500D03*
D16*
X466987500Y-225087500D03*
D17*
X261382500Y-307545000D03*
D18*
X266462500Y-307545000D03*
D17*
X271542500Y-307545000D03*
X270907500Y-204675000D03*
D18*
X275987500Y-204675000D03*
D17*
X281067500Y-204675000D03*
D14*
X162187500Y-311945000D03*
D15*
X162187500Y-309620000D03*
X162187500Y-306470000D03*
D16*
X162187500Y-304145000D03*
D14*
X276487500Y-311945000D03*
D15*
X276487500Y-309620000D03*
X276487500Y-306470000D03*
D16*
X276487500Y-304145000D03*
D14*
X266962500Y-292895000D03*
D15*
X266962500Y-290570000D03*
X266962500Y-287420000D03*
D16*
X266962500Y-285095000D03*
D14*
X366975000Y-254795000D03*
D15*
X366975000Y-252470000D03*
X366975000Y-249320000D03*
D16*
X366975000Y-246995000D03*
D17*
X294720000Y-250395000D03*
D18*
X299800000Y-250395000D03*
D17*
X304880000Y-250395000D03*
D14*
X305062500Y-209075000D03*
D15*
X305062500Y-206750000D03*
X305062500Y-203600000D03*
D16*
X305062500Y-201275000D03*
D14*
X428887500Y-209075000D03*
D15*
X428887500Y-206750000D03*
X428887500Y-203600000D03*
D16*
X428887500Y-201275000D03*
D19*
X392637000Y-243410000D03*
D18*
X392637000Y-258650000D03*
D17*
X399495000Y-250395000D03*
D18*
X404575000Y-250395000D03*
D17*
X409655000Y-250395000D03*
D19*
X416513000Y-243410000D03*
D18*
X416513000Y-258650000D03*
D17*
X313770000Y-250395000D03*
D18*
X318850000Y-250395000D03*
D17*
X323930000Y-250395000D03*
D14*
X252675000Y-254795000D03*
D15*
X252675000Y-252470000D03*
X252675000Y-249320000D03*
D16*
X252675000Y-246995000D03*
D17*
X208995000Y-228487500D03*
D18*
X214075000Y-228487500D03*
D17*
X219155000Y-228487500D03*
X351870000Y-228487500D03*
D18*
X356950000Y-228487500D03*
D17*
X362030000Y-228487500D03*
D20*
X306125000Y-167550000D03*
X298825000Y-167550000D03*
X306125000Y-172050000D03*
X298825000Y-172050000D03*
M02*
