G04 #@! TF.GenerationSoftware,KiCad,Pcbnew,7.0.8*
G04 #@! TF.CreationDate,2023-10-17T11:30:24-05:00*
G04 #@! TF.ProjectId,Vessel,56657373-656c-42e6-9b69-6361645f7063,rev?*
G04 #@! TF.SameCoordinates,Original*
G04 #@! TF.FileFunction,Copper,L2,Bot*
G04 #@! TF.FilePolarity,Positive*
%FSLAX46Y46*%
G04 Gerber Fmt 4.6, Leading zero omitted, Abs format (unit mm)*
G04 Created by KiCad (PCBNEW 7.0.8) date 2023-10-17 11:30:24*
%MOMM*%
%LPD*%
G01*
G04 APERTURE LIST*
G04 Aperture macros list*
%AMRoundRect*
0 Rectangle with rounded corners*
0 $1 Rounding radius*
0 $2 $3 $4 $5 $6 $7 $8 $9 X,Y pos of 4 corners*
0 Add a 4 corners polygon primitive as box body*
4,1,4,$2,$3,$4,$5,$6,$7,$8,$9,$2,$3,0*
0 Add four circle primitives for the rounded corners*
1,1,$1+$1,$2,$3*
1,1,$1+$1,$4,$5*
1,1,$1+$1,$6,$7*
1,1,$1+$1,$8,$9*
0 Add four rect primitives between the rounded corners*
20,1,$1+$1,$2,$3,$4,$5,0*
20,1,$1+$1,$4,$5,$6,$7,0*
20,1,$1+$1,$6,$7,$8,$9,0*
20,1,$1+$1,$8,$9,$2,$3,0*%
%AMHorizOval*
0 Thick line with rounded ends*
0 $1 width*
0 $2 $3 position (X,Y) of the first rounded end (center of the circle)*
0 $4 $5 position (X,Y) of the second rounded end (center of the circle)*
0 Add line between two ends*
20,1,$1,$2,$3,$4,$5,0*
0 Add two circle primitives to create the rounded ends*
1,1,$1,$2,$3*
1,1,$1,$4,$5*%
G04 Aperture macros list end*
G04 #@! TA.AperFunction,ComponentPad*
%ADD10R,1.600000X1.600000*%
G04 #@! TD*
G04 #@! TA.AperFunction,ComponentPad*
%ADD11C,1.600000*%
G04 #@! TD*
G04 #@! TA.AperFunction,ComponentPad*
%ADD12HorizOval,2.250000X0.655001X0.730000X-0.655001X-0.730000X0*%
G04 #@! TD*
G04 #@! TA.AperFunction,ComponentPad*
%ADD13C,2.250000*%
G04 #@! TD*
G04 #@! TA.AperFunction,ComponentPad*
%ADD14HorizOval,2.250000X0.020000X0.290000X-0.020000X-0.290000X0*%
G04 #@! TD*
G04 #@! TA.AperFunction,SMDPad,CuDef*
%ADD15R,1.700000X1.000000*%
G04 #@! TD*
G04 #@! TA.AperFunction,SMDPad,CuDef*
%ADD16RoundRect,0.250000X-0.325000X-0.450000X0.325000X-0.450000X0.325000X0.450000X-0.325000X0.450000X0*%
G04 #@! TD*
G04 #@! TA.AperFunction,ComponentPad*
%ADD17O,1.700000X2.700000*%
G04 #@! TD*
G04 #@! TA.AperFunction,SMDPad,CuDef*
%ADD18R,0.500000X2.250000*%
G04 #@! TD*
G04 #@! TA.AperFunction,ViaPad*
%ADD19C,0.800000*%
G04 #@! TD*
G04 #@! TA.AperFunction,Conductor*
%ADD20C,0.250000*%
G04 #@! TD*
G04 APERTURE END LIST*
D10*
X271725000Y-254795000D03*
D11*
X271725000Y-246995000D03*
D10*
X447937500Y-254795000D03*
D11*
X447937500Y-246995000D03*
D10*
X224100000Y-273845000D03*
D11*
X224100000Y-266045000D03*
D12*
X334745001Y-225217500D03*
D13*
X335400000Y-224487500D03*
D14*
X340420000Y-223697500D03*
D13*
X340440000Y-223407500D03*
D12*
X429995001Y-323325000D03*
D13*
X430650000Y-322595000D03*
D14*
X435670000Y-321805000D03*
D13*
X435690000Y-321515000D03*
D12*
X360938801Y-323325000D03*
D13*
X361593800Y-322595000D03*
D14*
X366613800Y-321805000D03*
D13*
X366633800Y-321515000D03*
D12*
X391895001Y-225217500D03*
D13*
X392550000Y-224487500D03*
D14*
X397570000Y-223697500D03*
D13*
X397590000Y-223407500D03*
D10*
X190762500Y-292895000D03*
D11*
X190762500Y-285095000D03*
D12*
X315695001Y-201405000D03*
D13*
X316350000Y-200675000D03*
D14*
X321370000Y-199885000D03*
D13*
X321390000Y-199595000D03*
D12*
X434757501Y-247125000D03*
D13*
X435412500Y-246395000D03*
D14*
X440432500Y-245605000D03*
D13*
X440452500Y-245315000D03*
D10*
X347925000Y-232887500D03*
D11*
X347925000Y-225087500D03*
D10*
X162187500Y-330995000D03*
D11*
X162187500Y-323195000D03*
D10*
X395550000Y-273845000D03*
D11*
X395550000Y-266045000D03*
D12*
X215682501Y-285225000D03*
D13*
X216337500Y-284495000D03*
D14*
X221357500Y-283705000D03*
D13*
X221377500Y-283415000D03*
D10*
X386025000Y-254795000D03*
D11*
X386025000Y-246995000D03*
D10*
X424125000Y-311945000D03*
D11*
X424125000Y-304145000D03*
D10*
X347925000Y-254795000D03*
D11*
X347925000Y-246995000D03*
D10*
X286012500Y-232887500D03*
D11*
X286012500Y-225087500D03*
D10*
X328875000Y-330995000D03*
D11*
X328875000Y-323195000D03*
D12*
X415707501Y-201405000D03*
D13*
X416362500Y-200675000D03*
D14*
X421382500Y-199885000D03*
D13*
X421402500Y-199595000D03*
D12*
X410945001Y-304275000D03*
D13*
X411600000Y-303545000D03*
D14*
X416620000Y-302755000D03*
D13*
X416640000Y-302465000D03*
D10*
X157425000Y-232887500D03*
D11*
X157425000Y-225087500D03*
D10*
X219337500Y-209075000D03*
D11*
X219337500Y-201275000D03*
D10*
X176475000Y-254795000D03*
D11*
X176475000Y-246995000D03*
D12*
X182345001Y-247125000D03*
D13*
X183000000Y-246395000D03*
D14*
X188020000Y-245605000D03*
D13*
X188040000Y-245315000D03*
D10*
X205050000Y-273845000D03*
D11*
X205050000Y-266045000D03*
D12*
X329982501Y-285225000D03*
D13*
X330637500Y-284495000D03*
D14*
X335657500Y-283705000D03*
D13*
X335677500Y-283415000D03*
D12*
X229970001Y-225217500D03*
D13*
X230625000Y-224487500D03*
D14*
X235645000Y-223697500D03*
D13*
X235665000Y-223407500D03*
D12*
X453807501Y-304275000D03*
D13*
X454462500Y-303545000D03*
D14*
X459482500Y-302755000D03*
D13*
X459502500Y-302465000D03*
D10*
X424125000Y-273845000D03*
D11*
X424125000Y-266045000D03*
D12*
X220445001Y-247125000D03*
D13*
X221100000Y-246395000D03*
D14*
X226120000Y-245605000D03*
D13*
X226140000Y-245315000D03*
D12*
X244257501Y-304275000D03*
D13*
X244912500Y-303545000D03*
D14*
X249932500Y-302755000D03*
D13*
X249952500Y-302465000D03*
D12*
X310932501Y-225217500D03*
D13*
X311587500Y-224487500D03*
D14*
X316607500Y-223697500D03*
D13*
X316627500Y-223407500D03*
D12*
X453807501Y-225217500D03*
D13*
X454462500Y-224487500D03*
D14*
X459482500Y-223697500D03*
D13*
X459502500Y-223407500D03*
D10*
X338400000Y-273845000D03*
D11*
X338400000Y-266045000D03*
D12*
X151388801Y-285225000D03*
D13*
X152043800Y-284495000D03*
D14*
X157063800Y-283705000D03*
D13*
X157083800Y-283415000D03*
D12*
X382370001Y-266175000D03*
D13*
X383025000Y-265445000D03*
D14*
X388045000Y-264655000D03*
D13*
X388065000Y-264365000D03*
D12*
X291882501Y-201405000D03*
D13*
X292537500Y-200675000D03*
D14*
X297557500Y-199885000D03*
D13*
X297577500Y-199595000D03*
D10*
X371737500Y-311945000D03*
D11*
X371737500Y-304145000D03*
D12*
X196632501Y-285225000D03*
D13*
X197287500Y-284495000D03*
D14*
X202307500Y-283705000D03*
D13*
X202327500Y-283415000D03*
D12*
X287120001Y-266175000D03*
D13*
X287775000Y-265445000D03*
D14*
X292795000Y-264655000D03*
D13*
X292815000Y-264365000D03*
D12*
X363320001Y-266175000D03*
D13*
X363975000Y-265445000D03*
D14*
X368995000Y-264655000D03*
D13*
X369015000Y-264365000D03*
D12*
X253782501Y-225217500D03*
D13*
X254437500Y-224487500D03*
D14*
X259457500Y-223697500D03*
D13*
X259477500Y-223407500D03*
D10*
X286012500Y-292895000D03*
D11*
X286012500Y-285095000D03*
D12*
X325220001Y-266175000D03*
D13*
X325875000Y-265445000D03*
D14*
X330895000Y-264655000D03*
D13*
X330915000Y-264365000D03*
D10*
X209812500Y-292895000D03*
D11*
X209812500Y-285095000D03*
D12*
X408563801Y-266175000D03*
D13*
X409218800Y-265445000D03*
D14*
X414238800Y-264655000D03*
D13*
X414258800Y-264365000D03*
D12*
X434757501Y-266175000D03*
D13*
X435412500Y-265445000D03*
D14*
X440432500Y-264655000D03*
D13*
X440452500Y-264365000D03*
D10*
X186000000Y-232887500D03*
D11*
X186000000Y-225087500D03*
D10*
X195525000Y-254795000D03*
D11*
X195525000Y-246995000D03*
D12*
X191870001Y-266175000D03*
D13*
X192525000Y-265445000D03*
D14*
X197545000Y-264655000D03*
D13*
X197565000Y-264365000D03*
D10*
X186000000Y-330995000D03*
D11*
X186000000Y-323195000D03*
D12*
X201395001Y-247125000D03*
D13*
X202050000Y-246395000D03*
D14*
X207070000Y-245605000D03*
D13*
X207090000Y-245315000D03*
D10*
X305062500Y-292895000D03*
D11*
X305062500Y-285095000D03*
D12*
X144245001Y-247125000D03*
D13*
X144900000Y-246395000D03*
D14*
X149920000Y-245605000D03*
D13*
X149940000Y-245315000D03*
D12*
X229970001Y-266175000D03*
D13*
X230625000Y-265445000D03*
D14*
X235645000Y-264655000D03*
D13*
X235665000Y-264365000D03*
D12*
X172820001Y-225217500D03*
D13*
X173475000Y-224487500D03*
D14*
X178495000Y-223697500D03*
D13*
X178515000Y-223407500D03*
D12*
X272832501Y-225217500D03*
D13*
X273487500Y-224487500D03*
D14*
X278507500Y-223697500D03*
D13*
X278527500Y-223407500D03*
D10*
X424125000Y-254795000D03*
D11*
X424125000Y-246995000D03*
D12*
X334745001Y-201405000D03*
D13*
X335400000Y-200675000D03*
D14*
X340420000Y-199885000D03*
D13*
X340440000Y-199595000D03*
D10*
X166950000Y-273845000D03*
D11*
X166950000Y-266045000D03*
D12*
X337126301Y-323325000D03*
D13*
X337781300Y-322595000D03*
D14*
X342801300Y-321805000D03*
D13*
X342821300Y-321515000D03*
D12*
X310932501Y-285225000D03*
D13*
X311587500Y-284495000D03*
D14*
X316607500Y-283705000D03*
D13*
X316627500Y-283415000D03*
D10*
X266962500Y-232887500D03*
D11*
X266962500Y-225087500D03*
D10*
X186000000Y-273845000D03*
D11*
X186000000Y-266045000D03*
D12*
X194251301Y-323325000D03*
D13*
X194906300Y-322595000D03*
D14*
X199926300Y-321805000D03*
D13*
X199946300Y-321515000D03*
D10*
X205050000Y-232887500D03*
D11*
X205050000Y-225087500D03*
D10*
X209812500Y-330995000D03*
D11*
X209812500Y-323195000D03*
D12*
X229970001Y-201405000D03*
D13*
X230625000Y-200675000D03*
D14*
X235645000Y-199885000D03*
D13*
X235665000Y-199595000D03*
D10*
X352687500Y-330995000D03*
D11*
X352687500Y-323195000D03*
D10*
X314587500Y-311945000D03*
D11*
X314587500Y-304145000D03*
D12*
X434757501Y-285225000D03*
D13*
X435412500Y-284495000D03*
D14*
X440432500Y-283705000D03*
D13*
X440452500Y-283415000D03*
D10*
X447937500Y-292895000D03*
D11*
X447937500Y-285095000D03*
D10*
X224100000Y-232887500D03*
D11*
X224100000Y-225087500D03*
D12*
X453807501Y-201405000D03*
D13*
X454462500Y-200675000D03*
D14*
X459482500Y-199885000D03*
D13*
X459502500Y-199595000D03*
D12*
X339507501Y-304275000D03*
D13*
X340162500Y-303545000D03*
D14*
X345182500Y-302755000D03*
D13*
X345202500Y-302465000D03*
D10*
X328875000Y-254795000D03*
D11*
X328875000Y-246995000D03*
D12*
X320457501Y-304275000D03*
D13*
X321112500Y-303545000D03*
D14*
X326132500Y-302755000D03*
D13*
X326152500Y-302465000D03*
D10*
X466987500Y-292895000D03*
D11*
X466987500Y-285095000D03*
D10*
X324112500Y-232887500D03*
D11*
X324112500Y-225087500D03*
D12*
X187107501Y-304275000D03*
D13*
X187762500Y-303545000D03*
D14*
X192782500Y-302755000D03*
D13*
X192802500Y-302465000D03*
D10*
X262200000Y-209075000D03*
D11*
X262200000Y-201275000D03*
D12*
X191870001Y-225217500D03*
D13*
X192525000Y-224487500D03*
D14*
X197545000Y-223697500D03*
D13*
X197565000Y-223407500D03*
D12*
X434757501Y-201405000D03*
D13*
X435412500Y-200675000D03*
D14*
X440432500Y-199885000D03*
D13*
X440452500Y-199595000D03*
D12*
X372845001Y-247125000D03*
D13*
X373500000Y-246395000D03*
D14*
X378520000Y-245605000D03*
D13*
X378540000Y-245315000D03*
D10*
X243150000Y-209075000D03*
D11*
X243150000Y-201275000D03*
D10*
X181237500Y-311945000D03*
D11*
X181237500Y-304145000D03*
D10*
X390787500Y-209075000D03*
D11*
X390787500Y-201275000D03*
D10*
X447937500Y-273845000D03*
D11*
X447937500Y-266045000D03*
D12*
X265688801Y-323325000D03*
D13*
X266343800Y-322595000D03*
D14*
X271363800Y-321805000D03*
D13*
X271383800Y-321515000D03*
D12*
X239495001Y-247125000D03*
D13*
X240150000Y-246395000D03*
D14*
X245170000Y-245605000D03*
D13*
X245190000Y-245315000D03*
D12*
X372845001Y-225217500D03*
D13*
X373500000Y-224487500D03*
D14*
X378520000Y-223697500D03*
D13*
X378540000Y-223407500D03*
D12*
X415707501Y-225217500D03*
D13*
X416362500Y-224487500D03*
D14*
X421382500Y-223697500D03*
D13*
X421402500Y-223407500D03*
D10*
X305062500Y-232887500D03*
D11*
X305062500Y-225087500D03*
D12*
X387132501Y-285225000D03*
D13*
X387787500Y-284495000D03*
D14*
X392807500Y-283705000D03*
D13*
X392827500Y-283415000D03*
D10*
X428887500Y-232887500D03*
D11*
X428887500Y-225087500D03*
D12*
X358557501Y-201405000D03*
D13*
X359212500Y-200675000D03*
D14*
X364232500Y-199885000D03*
D13*
X364252500Y-199595000D03*
D10*
X405075000Y-330995000D03*
D11*
X405075000Y-323195000D03*
D10*
X176475000Y-209075000D03*
D11*
X176475000Y-201275000D03*
D10*
X466987500Y-311945000D03*
D11*
X466987500Y-304145000D03*
D10*
X171712500Y-292895000D03*
D11*
X171712500Y-285095000D03*
D12*
X249020001Y-266175000D03*
D13*
X249675000Y-265445000D03*
D14*
X254695000Y-264655000D03*
D13*
X254715000Y-264365000D03*
D10*
X352687500Y-311945000D03*
D11*
X352687500Y-304145000D03*
D10*
X381262500Y-292895000D03*
D11*
X381262500Y-285095000D03*
D12*
X253782501Y-285225000D03*
D13*
X254437500Y-284495000D03*
D14*
X259457500Y-283705000D03*
D13*
X259477500Y-283415000D03*
D12*
X391895001Y-323325000D03*
D13*
X392550000Y-322595000D03*
D14*
X397570000Y-321805000D03*
D13*
X397590000Y-321515000D03*
D12*
X206157501Y-304275000D03*
D13*
X206812500Y-303545000D03*
D14*
X211832500Y-302755000D03*
D13*
X211852500Y-302465000D03*
D10*
X371737500Y-209075000D03*
D11*
X371737500Y-201275000D03*
D10*
X233625000Y-254795000D03*
D11*
X233625000Y-246995000D03*
D10*
X324112500Y-292895000D03*
D11*
X324112500Y-285095000D03*
D10*
X343162500Y-292895000D03*
D11*
X343162500Y-285095000D03*
D10*
X295537500Y-311945000D03*
D11*
X295537500Y-304145000D03*
D12*
X377607501Y-201405000D03*
D13*
X378262500Y-200675000D03*
D14*
X383282500Y-199885000D03*
D13*
X383302500Y-199595000D03*
D12*
X210920001Y-266175000D03*
D13*
X211575000Y-265445000D03*
D14*
X216595000Y-264655000D03*
D13*
X216615000Y-264365000D03*
D10*
X424125000Y-330995000D03*
D11*
X424125000Y-323195000D03*
D12*
X291882501Y-225217500D03*
D13*
X292537500Y-224487500D03*
D14*
X297557500Y-223697500D03*
D13*
X297577500Y-223407500D03*
D10*
X366975000Y-232887500D03*
D11*
X366975000Y-225087500D03*
D12*
X368082501Y-285225000D03*
D13*
X368737500Y-284495000D03*
D14*
X373757500Y-283705000D03*
D13*
X373777500Y-283415000D03*
D12*
X258545001Y-247125000D03*
D13*
X259200000Y-246395000D03*
D14*
X264220000Y-245605000D03*
D13*
X264240000Y-245315000D03*
D10*
X257437500Y-311945000D03*
D11*
X257437500Y-304145000D03*
D10*
X243150000Y-273845000D03*
D11*
X243150000Y-266045000D03*
D10*
X157425000Y-209075000D03*
D11*
X157425000Y-201275000D03*
D12*
X146626301Y-304275000D03*
D13*
X147281300Y-303545000D03*
D14*
X152301300Y-302755000D03*
D13*
X152321300Y-302465000D03*
D12*
X410945001Y-323325000D03*
D13*
X411600000Y-322595000D03*
D14*
X416620000Y-321805000D03*
D13*
X416640000Y-321515000D03*
D12*
X291882501Y-285225000D03*
D13*
X292537500Y-284495000D03*
D14*
X297557500Y-283705000D03*
D13*
X297577500Y-283415000D03*
D12*
X163295001Y-247125000D03*
D13*
X163950000Y-246395000D03*
D14*
X168970000Y-245605000D03*
D13*
X168990000Y-245315000D03*
D12*
X358557501Y-304275000D03*
D13*
X359212500Y-303545000D03*
D14*
X364232500Y-302755000D03*
D13*
X364252500Y-302465000D03*
D12*
X453807501Y-266175000D03*
D13*
X454462500Y-265445000D03*
D14*
X459482500Y-264655000D03*
D13*
X459502500Y-264365000D03*
D12*
X349032501Y-285225000D03*
D13*
X349687500Y-284495000D03*
D14*
X354707500Y-283705000D03*
D13*
X354727500Y-283415000D03*
D12*
X146626301Y-323325000D03*
D13*
X147281300Y-322595000D03*
D14*
X152301300Y-321805000D03*
D13*
X152321300Y-321515000D03*
D10*
X290775000Y-254795000D03*
D11*
X290775000Y-246995000D03*
D10*
X200287500Y-209075000D03*
D11*
X200287500Y-201275000D03*
D10*
X376500000Y-273845000D03*
D11*
X376500000Y-266045000D03*
D12*
X268070001Y-266175000D03*
D13*
X268725000Y-265445000D03*
D14*
X273745000Y-264655000D03*
D13*
X273765000Y-264365000D03*
D12*
X344270001Y-266175000D03*
D13*
X344925000Y-265445000D03*
D14*
X349945000Y-264655000D03*
D13*
X349965000Y-264365000D03*
D10*
X328875000Y-209075000D03*
D11*
X328875000Y-201275000D03*
D10*
X200287500Y-311945000D03*
D11*
X200287500Y-304145000D03*
D10*
X405075000Y-232887500D03*
D11*
X405075000Y-225087500D03*
D10*
X238387500Y-311945000D03*
D11*
X238387500Y-304145000D03*
D12*
X144245001Y-225217500D03*
D13*
X144900000Y-224487500D03*
D14*
X149920000Y-223697500D03*
D13*
X149940000Y-223407500D03*
D12*
X249020001Y-201405000D03*
D13*
X249675000Y-200675000D03*
D14*
X254695000Y-199885000D03*
D13*
X254715000Y-199595000D03*
D12*
X163295001Y-201405000D03*
D13*
X163950000Y-200675000D03*
D14*
X168970000Y-199885000D03*
D13*
X168990000Y-199595000D03*
D12*
X453807501Y-285225000D03*
D13*
X454462500Y-284495000D03*
D14*
X459482500Y-283705000D03*
D13*
X459502500Y-283415000D03*
D10*
X347925000Y-209075000D03*
D11*
X347925000Y-201275000D03*
D10*
X281250000Y-273845000D03*
D11*
X281250000Y-266045000D03*
D10*
X466987500Y-209075000D03*
D11*
X466987500Y-201275000D03*
D10*
X243150000Y-232887500D03*
D11*
X243150000Y-225087500D03*
D10*
X319350000Y-273845000D03*
D11*
X319350000Y-266045000D03*
D10*
X466987500Y-273845000D03*
D11*
X466987500Y-266045000D03*
D12*
X234732501Y-285225000D03*
D13*
X235387500Y-284495000D03*
D14*
X240407500Y-283705000D03*
D13*
X240427500Y-283415000D03*
D12*
X382370001Y-304275000D03*
D13*
X383025000Y-303545000D03*
D14*
X388045000Y-302755000D03*
D13*
X388065000Y-302465000D03*
D10*
X466987500Y-254795000D03*
D11*
X466987500Y-246995000D03*
D10*
X300300000Y-273845000D03*
D11*
X300300000Y-266045000D03*
D10*
X362212500Y-292895000D03*
D11*
X362212500Y-285095000D03*
D12*
X168057501Y-304275000D03*
D13*
X168712500Y-303545000D03*
D14*
X173732500Y-302755000D03*
D13*
X173752500Y-302465000D03*
D12*
X306170001Y-266175000D03*
D13*
X306825000Y-265445000D03*
D14*
X311845000Y-264655000D03*
D13*
X311865000Y-264365000D03*
D10*
X214575000Y-254795000D03*
D11*
X214575000Y-246995000D03*
D12*
X272832501Y-285225000D03*
D13*
X273487500Y-284495000D03*
D14*
X278507500Y-283705000D03*
D13*
X278527500Y-283415000D03*
D12*
X206157501Y-201405000D03*
D13*
X206812500Y-200675000D03*
D14*
X211832500Y-199885000D03*
D13*
X211852500Y-199595000D03*
D10*
X357450000Y-273845000D03*
D11*
X357450000Y-266045000D03*
D10*
X219337500Y-311945000D03*
D11*
X219337500Y-304145000D03*
D12*
X277595001Y-247125000D03*
D13*
X278250000Y-246395000D03*
D14*
X283270000Y-245605000D03*
D13*
X283290000Y-245315000D03*
D12*
X301407501Y-304275000D03*
D13*
X302062500Y-303545000D03*
D14*
X307082500Y-302755000D03*
D13*
X307102500Y-302465000D03*
D10*
X309825000Y-254795000D03*
D11*
X309825000Y-246995000D03*
D12*
X434757501Y-225217500D03*
D13*
X435412500Y-224487500D03*
D14*
X440432500Y-223697500D03*
D13*
X440452500Y-223407500D03*
D12*
X353795001Y-247125000D03*
D13*
X354450000Y-246395000D03*
D14*
X359470000Y-245605000D03*
D13*
X359490000Y-245315000D03*
D12*
X172820001Y-266175000D03*
D13*
X173475000Y-265445000D03*
D14*
X178495000Y-264655000D03*
D13*
X178515000Y-264365000D03*
D10*
X447937500Y-209075000D03*
D11*
X447937500Y-201275000D03*
D12*
X225207501Y-304275000D03*
D13*
X225862500Y-303545000D03*
D14*
X230882500Y-302755000D03*
D13*
X230902500Y-302465000D03*
D10*
X247912500Y-292895000D03*
D11*
X247912500Y-285095000D03*
D10*
X386025000Y-232887500D03*
D11*
X386025000Y-225087500D03*
D10*
X443175000Y-330995000D03*
D11*
X443175000Y-323195000D03*
D10*
X228862500Y-292895000D03*
D11*
X228862500Y-285095000D03*
D12*
X187107501Y-201405000D03*
D13*
X187762500Y-200675000D03*
D14*
X192782500Y-199885000D03*
D13*
X192802500Y-199595000D03*
D10*
X400312500Y-311945000D03*
D11*
X400312500Y-304145000D03*
D10*
X447937500Y-232887500D03*
D11*
X447937500Y-225087500D03*
D10*
X333637500Y-311945000D03*
D11*
X333637500Y-304145000D03*
D12*
X177582501Y-285225000D03*
D13*
X178237500Y-284495000D03*
D14*
X183257500Y-283705000D03*
D13*
X183277500Y-283415000D03*
D12*
X149007501Y-266175000D03*
D13*
X149662500Y-265445000D03*
D14*
X154682500Y-264655000D03*
D13*
X154702500Y-264365000D03*
D12*
X144245001Y-201405000D03*
D13*
X144900000Y-200675000D03*
D14*
X149920000Y-199885000D03*
D13*
X149940000Y-199595000D03*
D10*
X400312500Y-292895000D03*
D11*
X400312500Y-285095000D03*
D12*
X334745001Y-247125000D03*
D13*
X335400000Y-246395000D03*
D14*
X340420000Y-245605000D03*
D13*
X340440000Y-245315000D03*
D10*
X157425000Y-254795000D03*
D11*
X157425000Y-246995000D03*
D10*
X376500000Y-330995000D03*
D11*
X376500000Y-323195000D03*
D12*
X170438801Y-323325000D03*
D13*
X171093800Y-322595000D03*
D14*
X176113800Y-321805000D03*
D13*
X176133800Y-321515000D03*
D12*
X453807501Y-247125000D03*
D13*
X454462500Y-246395000D03*
D14*
X459482500Y-245605000D03*
D13*
X459502500Y-245315000D03*
D10*
X286012500Y-209075000D03*
D11*
X286012500Y-201275000D03*
D10*
X262200000Y-273845000D03*
D11*
X262200000Y-266045000D03*
D12*
X282357501Y-304275000D03*
D13*
X283012500Y-303545000D03*
D14*
X288032500Y-302755000D03*
D13*
X288052500Y-302465000D03*
D10*
X466987500Y-232887500D03*
D11*
X466987500Y-225087500D03*
D12*
X263307501Y-304275000D03*
D13*
X263962500Y-303545000D03*
D14*
X268982500Y-302755000D03*
D13*
X269002500Y-302465000D03*
D12*
X272832501Y-201405000D03*
D13*
X273487500Y-200675000D03*
D14*
X278507500Y-199885000D03*
D13*
X278527500Y-199595000D03*
D10*
X162187500Y-311945000D03*
D11*
X162187500Y-304145000D03*
D10*
X276487500Y-311945000D03*
D11*
X276487500Y-304145000D03*
D10*
X266962500Y-292895000D03*
D11*
X266962500Y-285095000D03*
D10*
X366975000Y-254795000D03*
D11*
X366975000Y-246995000D03*
D12*
X296645001Y-247125000D03*
D13*
X297300000Y-246395000D03*
D14*
X302320000Y-245605000D03*
D13*
X302340000Y-245315000D03*
D10*
X305062500Y-209075000D03*
D11*
X305062500Y-201275000D03*
D10*
X428887500Y-209075000D03*
D11*
X428887500Y-201275000D03*
D12*
X401420001Y-247125000D03*
D13*
X402075000Y-246395000D03*
D14*
X407095000Y-245605000D03*
D13*
X407115000Y-245315000D03*
D12*
X315695001Y-247125000D03*
D13*
X316350000Y-246395000D03*
D14*
X321370000Y-245605000D03*
D13*
X321390000Y-245315000D03*
D10*
X252675000Y-254795000D03*
D11*
X252675000Y-246995000D03*
D12*
X210920001Y-225217500D03*
D13*
X211575000Y-224487500D03*
D14*
X216595000Y-223697500D03*
D13*
X216615000Y-223407500D03*
D12*
X353795001Y-225217500D03*
D13*
X354450000Y-224487500D03*
D14*
X359470000Y-223697500D03*
D13*
X359490000Y-223407500D03*
D15*
X462901600Y-173632900D03*
X469201600Y-173632900D03*
X462901600Y-169832900D03*
X469201600Y-169832900D03*
D16*
X465026600Y-176732900D03*
X467076600Y-176732900D03*
D17*
X306125000Y-167550000D03*
X298825000Y-167550000D03*
X306125000Y-172050000D03*
X298825000Y-172050000D03*
D18*
X304075000Y-172050000D03*
X303275000Y-172050000D03*
X302475000Y-172050000D03*
X301675000Y-172050000D03*
X300875000Y-172050000D03*
D19*
X467125000Y-181425000D03*
X364150000Y-176125000D03*
X309050000Y-171675000D03*
X432875000Y-196025000D03*
X427875000Y-197250000D03*
X429775000Y-186637500D03*
X429150000Y-182425000D03*
X428425000Y-184725000D03*
X454100000Y-189925000D03*
X460700000Y-186250000D03*
X450025000Y-183986500D03*
X456175000Y-190800000D03*
X449772500Y-190900000D03*
X438375000Y-171068500D03*
X439725000Y-180975000D03*
X442075000Y-177475000D03*
X460575000Y-170900000D03*
X454275000Y-171750000D03*
X456550000Y-175125000D03*
X457800000Y-176150000D03*
X435066000Y-184724000D03*
X459149000Y-172371000D03*
X452491000Y-171100000D03*
X438426000Y-175815000D03*
X441259000Y-179683000D03*
X439104000Y-187683000D03*
X462414100Y-171949000D03*
X440672000Y-169910000D03*
X455619000Y-179786000D03*
X442240000Y-192106000D03*
X470794800Y-173869900D03*
X434827000Y-180966000D03*
X441880000Y-183506000D03*
X305556100Y-174448900D03*
X452199600Y-174565500D03*
X301248000Y-170283000D03*
X430967000Y-190891100D03*
X452534900Y-188385600D03*
X358316700Y-179812100D03*
X454217900Y-181295500D03*
X436490300Y-182838600D03*
X433894800Y-186371700D03*
X467284000Y-175279000D03*
X453536000Y-174327000D03*
X433789000Y-188457000D03*
X446326000Y-173003000D03*
X452567000Y-172553000D03*
X347654000Y-168792000D03*
X449429000Y-168801000D03*
X370018000Y-182625000D03*
X437391000Y-188629000D03*
X445793000Y-181540000D03*
X449730000Y-176543000D03*
X430967000Y-196430000D03*
X444488000Y-180449000D03*
X445448000Y-179535000D03*
X449048000Y-178202000D03*
X459898000Y-180762000D03*
X460542000Y-181849000D03*
X457132000Y-178136000D03*
X460816000Y-179008000D03*
X445274000Y-173013000D03*
X421831000Y-278719000D03*
X450789000Y-174423000D03*
X448918000Y-174637000D03*
X461318000Y-173870000D03*
X355697000Y-183427000D03*
X351584000Y-185005000D03*
D20*
X467125000Y-181425000D02*
X470794800Y-177755200D01*
X470794800Y-177755200D02*
X470794800Y-173869900D01*
X364020738Y-177545738D02*
X364150000Y-177416476D01*
X364150000Y-177416476D02*
X364150000Y-176125000D01*
X364020738Y-177545738D02*
X370497976Y-171068500D01*
X359120738Y-182445738D02*
X364020738Y-177545738D01*
X309050000Y-171675000D02*
X319820738Y-182445738D01*
X319820738Y-182445738D02*
X359120738Y-182445738D01*
X370497976Y-171068500D02*
X438375000Y-171068500D01*
X439104000Y-189796000D02*
X439104000Y-187683000D01*
X432875000Y-196025000D02*
X439104000Y-189796000D01*
X427875000Y-188537500D02*
X427875000Y-197250000D01*
X429775000Y-186637500D02*
X427875000Y-188537500D01*
X429150000Y-184000000D02*
X428425000Y-184725000D01*
X429150000Y-182425000D02*
X429150000Y-184000000D01*
X455300000Y-189925000D02*
X456175000Y-190800000D01*
X454100000Y-189925000D02*
X455300000Y-189925000D01*
X450025000Y-183986500D02*
X450025000Y-190647500D01*
X450025000Y-190647500D02*
X449772500Y-190900000D01*
X439533500Y-169910000D02*
X438375000Y-171068500D01*
X440672000Y-169910000D02*
X439533500Y-169910000D01*
X441017000Y-179683000D02*
X439725000Y-180975000D01*
X441259000Y-179683000D02*
X441017000Y-179683000D01*
X442075000Y-178867000D02*
X442075000Y-177475000D01*
X441259000Y-179683000D02*
X442075000Y-178867000D01*
X459149000Y-172326000D02*
X460575000Y-170900000D01*
X459149000Y-172371000D02*
X459149000Y-172326000D01*
X456550000Y-174025000D02*
X454275000Y-171750000D01*
X456550000Y-175125000D02*
X456550000Y-174025000D01*
X457575000Y-176150000D02*
X456550000Y-175125000D01*
X457800000Y-176150000D02*
X457575000Y-176150000D01*
X442240000Y-192106000D02*
X442240000Y-190819000D01*
X442240000Y-190819000D02*
X439104000Y-187683000D01*
X470794800Y-173869900D02*
X470615500Y-173869900D01*
X304609100Y-173501900D02*
X304075000Y-173501900D01*
X470615500Y-173869900D02*
X470378500Y-173632900D01*
X304075000Y-172050000D02*
X304075000Y-173501900D01*
X305556100Y-174448900D02*
X304609100Y-173501900D01*
X462414100Y-171949000D02*
X462901600Y-172436500D01*
X462901600Y-172436500D02*
X462901600Y-173632900D01*
X469201600Y-173632900D02*
X470378500Y-173632900D01*
X301248000Y-170283000D02*
X348787600Y-170283000D01*
X467076600Y-176343800D02*
X467076600Y-176732900D01*
X467076600Y-176732900D02*
X466017400Y-177792100D01*
X434480400Y-186371700D02*
X436490300Y-184361800D01*
X467077000Y-176343400D02*
X467076600Y-176343800D01*
X300875000Y-172050000D02*
X300875000Y-170598000D01*
X455935400Y-178301300D02*
X452199600Y-174565500D01*
X430967000Y-190891100D02*
X430967000Y-189299500D01*
X430967000Y-189299500D02*
X433894800Y-186371700D01*
X467077000Y-176343400D02*
X467077000Y-176733000D01*
X466017400Y-177792100D02*
X458380100Y-177792100D01*
X348787600Y-170283000D02*
X358316700Y-179812100D01*
X454217900Y-180018800D02*
X454217900Y-181295500D01*
X456861100Y-177375600D02*
X455935400Y-178301300D01*
X452534900Y-182978500D02*
X452534900Y-188385600D01*
X457963600Y-177375600D02*
X456861100Y-177375600D01*
X436490300Y-184361800D02*
X436490300Y-182838600D01*
X467284000Y-175279000D02*
X467077000Y-175486000D01*
X454217900Y-181295500D02*
X452534900Y-182978500D01*
X433894800Y-186371700D02*
X434480400Y-186371700D01*
X467077000Y-175486000D02*
X467077000Y-176343400D01*
X455935400Y-178301300D02*
X454217900Y-180018800D01*
X300875000Y-170598000D02*
X300932000Y-170598000D01*
X458380100Y-177792100D02*
X457963600Y-177375600D01*
X300932000Y-170598000D02*
X301248000Y-170283000D01*
X144294000Y-247151000D02*
X143590000Y-247855000D01*
X143590000Y-225948000D02*
X144245000Y-225293000D01*
X144294000Y-226652000D02*
X143590000Y-225948000D01*
X147281300Y-303544700D02*
X150952000Y-299874000D01*
X146450000Y-321764000D02*
X146450000Y-305484000D01*
X150733800Y-285955000D02*
X150734000Y-285955000D01*
X144294000Y-246395000D02*
X144294000Y-226652000D01*
X145971000Y-324055000D02*
X145971300Y-324054700D01*
X147281000Y-322745000D02*
X147281000Y-322595000D01*
X145971300Y-324054700D02*
X145971300Y-324055000D01*
X145971300Y-305005300D02*
X145971300Y-305005000D01*
X144244500Y-225293000D02*
X143590000Y-225947500D01*
X150734000Y-285805000D02*
X152043800Y-284495200D01*
X147281300Y-303544700D02*
X147281300Y-303545000D01*
X149662000Y-265445000D02*
X144829000Y-260612000D01*
X152043800Y-284495200D02*
X152044000Y-284495000D01*
X145971000Y-305005000D02*
X145971000Y-304855000D01*
X149662500Y-265445000D02*
X149662000Y-265445000D01*
X144245000Y-225293000D02*
X144900000Y-224638000D01*
X150952000Y-299874000D02*
X150952000Y-286173000D01*
X144829000Y-260612000D02*
X144829000Y-249094000D01*
X144829000Y-249094000D02*
X143590000Y-247855000D01*
X145971000Y-304855000D02*
X147281300Y-303544700D01*
X144900000Y-224487500D02*
X144900000Y-224488000D01*
X145971300Y-324054700D02*
X147281000Y-322745000D01*
X147281000Y-322595000D02*
X146450000Y-321764000D01*
X150734000Y-285955000D02*
X150734000Y-285805000D01*
X150952000Y-286173000D02*
X150734000Y-285955000D01*
X146450000Y-305484000D02*
X145971300Y-305005300D01*
X144294000Y-246395000D02*
X144294000Y-247151000D01*
X145971300Y-305005300D02*
X145971000Y-305005000D01*
X144900000Y-246395000D02*
X144294000Y-246395000D01*
X147281300Y-322595000D02*
X147281000Y-322595000D01*
X143772000Y-223359000D02*
X143772000Y-202317000D01*
X152043800Y-284495200D02*
X152043800Y-284495000D01*
X144900000Y-224638000D02*
X144900000Y-224488000D01*
X144900000Y-224488000D02*
X143772000Y-223359000D01*
X144245000Y-225293000D02*
X144244500Y-225293000D01*
X143772000Y-202317000D02*
X143590000Y-202135000D01*
X162640000Y-247705000D02*
X162640000Y-247855000D01*
X163950000Y-246395000D02*
X162640000Y-247705000D01*
X162968000Y-201658000D02*
X163950000Y-200675000D01*
X162640000Y-202135000D02*
X162968000Y-202135000D01*
X306515000Y-169498000D02*
X307950000Y-168062000D01*
X453536000Y-171062000D02*
X453536000Y-174327000D01*
X307950000Y-168062000D02*
X450536000Y-168062000D01*
X167402000Y-305005000D02*
X167402500Y-305005500D01*
X169784000Y-323905000D02*
X169784000Y-323980000D01*
X167881000Y-319383000D02*
X169487500Y-320989000D01*
X169784000Y-323980000D02*
X169783800Y-323980200D01*
X167402500Y-305005500D02*
X167881000Y-305484000D01*
X169487500Y-320989000D02*
X171094000Y-322595000D01*
X167402000Y-304855000D02*
X167402000Y-305005000D01*
X195127000Y-169498000D02*
X306515000Y-169498000D01*
X163950000Y-200675000D02*
X195127000Y-169498000D01*
X167402500Y-305005500D02*
X167402500Y-305005000D01*
X169487800Y-320989000D02*
X171093800Y-322595000D01*
X167881000Y-305484000D02*
X167881000Y-319383000D01*
X450536000Y-168062000D02*
X453536000Y-171062000D01*
X162879000Y-248094000D02*
X162879000Y-297712000D01*
X162640000Y-247855000D02*
X162879000Y-248094000D01*
X163950000Y-246395000D02*
X162968000Y-245412000D01*
X162968000Y-202135000D02*
X162968000Y-201658000D01*
X169783800Y-323980200D02*
X169783800Y-324055000D01*
X168712500Y-303545000D02*
X168712000Y-303545000D01*
X162968000Y-245412000D02*
X162968000Y-202135000D01*
X169487500Y-320989000D02*
X169487800Y-320989000D01*
X162879000Y-297712000D02*
X168712000Y-303545000D01*
X169784000Y-323980000D02*
X169784000Y-324055000D01*
X171094000Y-322595000D02*
X169784000Y-323905000D01*
X168712000Y-303545000D02*
X167402000Y-304855000D01*
X181690000Y-247855000D02*
X181929000Y-248094000D01*
X185611000Y-202135000D02*
X174466000Y-213279000D01*
X173475000Y-224488000D02*
X173475000Y-224487500D01*
X176928000Y-285805000D02*
X176928000Y-285955000D01*
X172940000Y-236335000D02*
X172940000Y-226722000D01*
X174466000Y-213279000D02*
X174466000Y-223382000D01*
X172838000Y-267578000D02*
X172838000Y-279095000D01*
X176927500Y-285955000D02*
X176928000Y-285955000D01*
X173315500Y-224665000D02*
X174466000Y-223382000D01*
X186452000Y-202135000D02*
X185611000Y-202135000D01*
X173315500Y-224665000D02*
X172165000Y-225815500D01*
X173475000Y-224374000D02*
X174466000Y-223382000D01*
X446326000Y-175920000D02*
X433789000Y-188457000D01*
X181929000Y-248094000D02*
X181929000Y-256991000D01*
X176928000Y-285955000D02*
X177406000Y-286434000D01*
X187762000Y-303545000D02*
X186452000Y-304855000D01*
X181690000Y-247855000D02*
X181690000Y-247705000D01*
X187762500Y-303545000D02*
X187762000Y-303545000D01*
X177406000Y-286434000D02*
X177406000Y-293189000D01*
X178237600Y-284495000D02*
X178237800Y-284495200D01*
X186452000Y-304855000D02*
X186452000Y-305005000D01*
X172838000Y-279095000D02*
X178238000Y-284495000D01*
X186452000Y-202135000D02*
X186452500Y-202135000D01*
X172165000Y-266905000D02*
X172838000Y-267578000D01*
X186452500Y-305005000D02*
X186452000Y-305005000D01*
X446326000Y-173003000D02*
X446326000Y-175920000D01*
X172165000Y-266905000D02*
X172165000Y-266755000D01*
X172165000Y-266755000D02*
X173475000Y-265445000D01*
X178237800Y-284495200D02*
X176928000Y-285805000D01*
X183000000Y-246395000D02*
X172940000Y-236335000D01*
X178238000Y-284495000D02*
X178237800Y-284495200D01*
X178237500Y-284495000D02*
X178237600Y-284495000D01*
X173475000Y-224487500D02*
X173475000Y-224374000D01*
X181690000Y-247705000D02*
X183000000Y-246395000D01*
X177406000Y-293189000D02*
X187762000Y-303545000D01*
X172940000Y-226722000D02*
X172165000Y-225948000D01*
X172165000Y-225948000D02*
X173315500Y-224665000D01*
X181929000Y-256991000D02*
X173475000Y-265445000D01*
X172165000Y-225815500D02*
X172165000Y-225947500D01*
X191215000Y-266905000D02*
X191888000Y-267578000D01*
X191694000Y-226426000D02*
X191215000Y-225948000D01*
X195978000Y-285805000D02*
X195978000Y-285955000D01*
X193596300Y-324055000D02*
X193596200Y-324055000D01*
X193516000Y-223382000D02*
X193516000Y-213305000D01*
X191215000Y-225947500D02*
X191215000Y-225948000D01*
X192525000Y-224487500D02*
X192525000Y-224374000D01*
X200740000Y-247855000D02*
X200740000Y-247705000D01*
X205502500Y-202106200D02*
X205502000Y-202105700D01*
X191888000Y-267578000D02*
X191888000Y-279095000D01*
X196456000Y-293189000D02*
X206812000Y-303545000D01*
X195978000Y-285955000D02*
X196456000Y-286434000D01*
X191215000Y-266755000D02*
X192525000Y-265445000D01*
X197287800Y-284495200D02*
X195978000Y-285805000D01*
X205502000Y-202105700D02*
X205502000Y-201985000D01*
X195898000Y-313826000D02*
X195898000Y-321490000D01*
X194906000Y-322481000D02*
X195898000Y-321490000D01*
X194906300Y-322595000D02*
X194906000Y-322595000D01*
X204687000Y-202135000D02*
X205502000Y-202135000D01*
X193516000Y-213305000D02*
X204687000Y-202135000D01*
X196456000Y-286434000D02*
X196456000Y-293189000D01*
X204718000Y-305005000D02*
X195898000Y-313826000D01*
X191215000Y-266905000D02*
X191215000Y-266755000D01*
X205502000Y-201985000D02*
X206812000Y-200675000D01*
X197287500Y-284495000D02*
X197287600Y-284495000D01*
X200740000Y-247705000D02*
X202050000Y-246395000D01*
X193596100Y-324054900D02*
X195898000Y-321490000D01*
X206812500Y-303545000D02*
X206812000Y-303545000D01*
X193596200Y-324055000D02*
X193596100Y-324054900D01*
X200979000Y-256991000D02*
X192525000Y-265445000D01*
X205502500Y-305005000D02*
X205502000Y-305005000D01*
X205502500Y-202135000D02*
X205502500Y-202106200D01*
X194906000Y-322595000D02*
X194906000Y-322481000D01*
X202050000Y-246395000D02*
X191694000Y-236039000D01*
X191888000Y-279095000D02*
X197288000Y-284495000D01*
X206812000Y-303545000D02*
X205502000Y-304855000D01*
X191215000Y-225948000D02*
X193516000Y-223382000D01*
X193596000Y-324055000D02*
X193596100Y-324054900D01*
X205502000Y-305005000D02*
X204718000Y-305005000D01*
X192525000Y-224488000D02*
X192525000Y-224487500D01*
X197287600Y-284495000D02*
X197287800Y-284495200D01*
X205502000Y-304855000D02*
X205502000Y-305005000D01*
X205502000Y-202135000D02*
X205502000Y-202105700D01*
X200740000Y-247855000D02*
X200979000Y-248094000D01*
X195977500Y-285955000D02*
X195978000Y-285955000D01*
X206812500Y-200675000D02*
X206812000Y-200675000D01*
X200979000Y-248094000D02*
X200979000Y-256991000D01*
X191694000Y-236039000D02*
X191694000Y-226426000D01*
X197288000Y-284495000D02*
X197287800Y-284495200D01*
X192525000Y-224374000D02*
X193516000Y-223382000D01*
X224552500Y-304976200D02*
X224552000Y-304975700D01*
X225862500Y-303545000D02*
X225862000Y-303545000D01*
X221607000Y-214455000D02*
X221607000Y-207586000D01*
X216337500Y-284495500D02*
X216337500Y-284495000D01*
X215506000Y-286434000D02*
X215028000Y-285955000D01*
X210265000Y-225948000D02*
X210744000Y-226426000D01*
X224552000Y-304855000D02*
X225862000Y-303545000D01*
X215506000Y-293189000D02*
X215506000Y-286434000D01*
X210938000Y-279095000D02*
X210938000Y-267578000D01*
X211575200Y-224487700D02*
X221607000Y-214455000D01*
X356676000Y-185802000D02*
X370684000Y-171793000D01*
X210938000Y-267578000D02*
X210265000Y-266905000D01*
X220029000Y-256991000D02*
X211575000Y-265445000D01*
X210265000Y-266755000D02*
X211575000Y-265445000D01*
X210265000Y-225947500D02*
X210265000Y-225948000D01*
X451807000Y-171793000D02*
X452567000Y-172553000D01*
X211575000Y-224488000D02*
X211575200Y-224487700D01*
X221607000Y-207586000D02*
X243391000Y-185802000D01*
X220029000Y-248094000D02*
X220029000Y-256991000D01*
X210265000Y-266905000D02*
X210265000Y-266755000D01*
X215028000Y-285805000D02*
X216337500Y-284495500D01*
X224552000Y-304975700D02*
X224552000Y-304855000D01*
X219790000Y-247855000D02*
X220029000Y-248094000D01*
X215027500Y-285955000D02*
X215028000Y-285955000D01*
X211575000Y-224487500D02*
X211575200Y-224487700D01*
X219790000Y-247705000D02*
X221100000Y-246395000D01*
X224552000Y-305005000D02*
X224552000Y-304975700D01*
X224552500Y-305005000D02*
X224552500Y-304976200D01*
X215028000Y-285955000D02*
X215028000Y-285805000D01*
X210744000Y-226426000D02*
X210744000Y-236039000D01*
X216338000Y-284495000D02*
X210938000Y-279095000D01*
X370684000Y-171793000D02*
X451807000Y-171793000D01*
X216337500Y-284495500D02*
X216338000Y-284495000D01*
X210744000Y-236039000D02*
X221100000Y-246395000D01*
X243391000Y-185802000D02*
X356676000Y-185802000D01*
X219790000Y-247855000D02*
X219790000Y-247705000D01*
X225862000Y-303545000D02*
X215506000Y-293189000D01*
X239079000Y-248094000D02*
X239079000Y-256991000D01*
X244912000Y-303545000D02*
X243602000Y-304855000D01*
X229988000Y-279095000D02*
X235387500Y-284494500D01*
X243602000Y-304855000D02*
X243602000Y-305005000D01*
X244912500Y-303545000D02*
X244912000Y-303545000D01*
X234078000Y-285925700D02*
X234078000Y-285955000D01*
X229315000Y-225798000D02*
X229315000Y-225947500D01*
X238840000Y-247855000D02*
X238840000Y-247705000D01*
X235387500Y-284494500D02*
X235387500Y-284495000D01*
X230625000Y-224488000D02*
X229315000Y-225798000D01*
X238840000Y-247705000D02*
X240150000Y-246395000D01*
X229315000Y-225948000D02*
X229718000Y-226350000D01*
X235387500Y-284494500D02*
X235388000Y-284495000D01*
X229315000Y-225947500D02*
X229315000Y-225948000D01*
X234556000Y-286434000D02*
X234556000Y-293189000D01*
X229988000Y-267578000D02*
X229988000Y-279095000D01*
X234078000Y-285805000D02*
X234078000Y-285925700D01*
X234077500Y-285955000D02*
X234077500Y-285926200D01*
X239079000Y-256991000D02*
X230625000Y-265445000D01*
X230573000Y-224436000D02*
X230573500Y-224436000D01*
X229315000Y-202135000D02*
X230521000Y-203341000D01*
X234078000Y-285955000D02*
X234556000Y-286434000D01*
X229718000Y-235962000D02*
X240150000Y-246395000D01*
X229718000Y-226350000D02*
X229718000Y-235962000D01*
X234077500Y-285926200D02*
X234078000Y-285925700D01*
X230521000Y-203341000D02*
X230521000Y-224384000D01*
X234556000Y-293189000D02*
X244912000Y-303545000D01*
X230521000Y-224384000D02*
X230573000Y-224436000D01*
X235388000Y-284495000D02*
X234078000Y-285805000D01*
X238840000Y-247855000D02*
X239079000Y-248094000D01*
X243602500Y-305005000D02*
X243602000Y-305005000D01*
X229315000Y-266755000D02*
X230625000Y-265445000D01*
X230573500Y-224436000D02*
X230625000Y-224487500D01*
X230573000Y-224436000D02*
X230625000Y-224488000D01*
X229315000Y-266905000D02*
X229315000Y-266755000D01*
X229315000Y-266905000D02*
X229988000Y-267578000D01*
X257054000Y-247855000D02*
X250666000Y-254243000D01*
X264737500Y-320989000D02*
X264737800Y-320989000D01*
X254437500Y-284495500D02*
X254437500Y-284495000D01*
X264737800Y-320989000D02*
X266343800Y-322595000D01*
X257890000Y-247705000D02*
X259200000Y-246395000D01*
X257890000Y-247855000D02*
X257890000Y-247705000D01*
X253606000Y-226426000D02*
X253128000Y-225948000D01*
X262652000Y-304855000D02*
X263962000Y-303545000D01*
X262652000Y-305005000D02*
X262652000Y-304855000D01*
X253606000Y-286434000D02*
X253367000Y-286194500D01*
X253128000Y-285805000D02*
X254437500Y-284495500D01*
X253367000Y-286194500D02*
X253127500Y-285955000D01*
X248844000Y-218894000D02*
X248844000Y-202614000D01*
X253127500Y-225947500D02*
X253128000Y-225948000D01*
X263131000Y-319383000D02*
X263131000Y-305484000D01*
X248844000Y-278901000D02*
X248844000Y-267384000D01*
X263131000Y-305484000D02*
X262652500Y-305005500D01*
X262652500Y-305005500D02*
X262652500Y-305005000D01*
X250666000Y-254243000D02*
X250666000Y-264340000D01*
X265034000Y-323980000D02*
X265033800Y-323980200D01*
X249675000Y-265331000D02*
X250666000Y-264340000D01*
X265033800Y-323980200D02*
X265033800Y-324055000D01*
X263962000Y-303545000D02*
X253606000Y-293189000D01*
X248365000Y-266905000D02*
X250666000Y-264340000D01*
X254438000Y-284495000D02*
X248844000Y-278901000D01*
X265034000Y-323905000D02*
X266344000Y-322595000D01*
X264737500Y-320989000D02*
X263131000Y-319383000D01*
X257890000Y-247855000D02*
X257054000Y-247855000D01*
X253606000Y-240801000D02*
X253606000Y-226426000D01*
X248844000Y-267384000D02*
X248365000Y-266905000D01*
X249675000Y-265445000D02*
X249675000Y-265331000D01*
X266344000Y-322595000D02*
X264737500Y-320989000D01*
X254437500Y-224487500D02*
X248844000Y-218894000D01*
X259200000Y-246395000D02*
X253606000Y-240801000D01*
X254437500Y-284495500D02*
X254438000Y-284495000D01*
X253128000Y-285955000D02*
X253128000Y-285805000D01*
X248365000Y-201985000D02*
X248365000Y-202135000D01*
X253367000Y-286194500D02*
X253128000Y-285955000D01*
X262652500Y-305005500D02*
X262652000Y-305005000D01*
X248844000Y-202614000D02*
X248365000Y-202135000D01*
X263962500Y-303545000D02*
X263962000Y-303545000D01*
X265034000Y-323980000D02*
X265034000Y-323905000D01*
X249675000Y-200675000D02*
X248365000Y-201985000D01*
X254438000Y-224488000D02*
X254437500Y-224487500D01*
X253606000Y-293189000D02*
X253606000Y-286434000D01*
X265034000Y-324055000D02*
X265034000Y-323980000D01*
X281702500Y-304976200D02*
X281702000Y-304975700D01*
X277176000Y-248091000D02*
X277176000Y-256994000D01*
X281702000Y-305005000D02*
X281702000Y-304975700D01*
X273487500Y-284495500D02*
X273487500Y-284495000D01*
X281702500Y-305005000D02*
X281702500Y-304976200D01*
X272178000Y-285805000D02*
X273487500Y-284495500D01*
X272417000Y-286194500D02*
X272177500Y-285955000D01*
X277176000Y-256994000D02*
X268725000Y-265445000D01*
X273487500Y-224487500D02*
X273488000Y-224488000D01*
X272850000Y-240995000D02*
X278250000Y-246395000D01*
X267415000Y-266755000D02*
X267415000Y-266905000D01*
X276940000Y-247855000D02*
X277176000Y-248091000D01*
X272656000Y-293189000D02*
X272656000Y-286434000D01*
X273488000Y-200675000D02*
X273487500Y-200675500D01*
X273487500Y-200675500D02*
X272178000Y-201985000D01*
X273384000Y-203341000D02*
X273384000Y-224384000D01*
X273384000Y-224384000D02*
X273487500Y-224487500D01*
X272178000Y-225873000D02*
X272178000Y-225948000D01*
X272178000Y-202105700D02*
X272178000Y-202135000D01*
X272177500Y-202135000D02*
X272177500Y-202106200D01*
X272178000Y-285955000D02*
X272178000Y-285805000D01*
X273488000Y-284495000D02*
X268088000Y-279095000D01*
X281702000Y-304855000D02*
X283012000Y-303545000D01*
X272850000Y-226620000D02*
X272850000Y-240995000D01*
X272177500Y-225873500D02*
X272177500Y-225947500D01*
X272178000Y-225948000D02*
X272850000Y-226620000D01*
X276940000Y-247705000D02*
X278250000Y-246395000D01*
X268088000Y-267578000D02*
X267415000Y-266905000D01*
X273488000Y-224488000D02*
X272178000Y-225798000D01*
X268725000Y-265445000D02*
X267415000Y-266755000D01*
X272178000Y-225873000D02*
X272177500Y-225873500D01*
X272656000Y-286434000D02*
X272417000Y-286194500D01*
X281702000Y-304975700D02*
X281702000Y-304855000D01*
X273487500Y-200675500D02*
X273487500Y-200675000D01*
X276940000Y-247855000D02*
X276940000Y-247705000D01*
X272177500Y-202106200D02*
X272178000Y-202105700D01*
X272178000Y-202135000D02*
X273384000Y-203341000D01*
X283012500Y-303545000D02*
X283012000Y-303545000D01*
X273487500Y-284495500D02*
X273488000Y-284495000D01*
X272417000Y-286194500D02*
X272178000Y-285955000D01*
X272178000Y-225798000D02*
X272178000Y-225873000D01*
X272178000Y-201985000D02*
X272178000Y-202105700D01*
X268088000Y-279095000D02*
X268088000Y-267578000D01*
X283012000Y-303545000D02*
X272656000Y-293189000D01*
X291706000Y-240801000D02*
X297300000Y-246395000D01*
X302062000Y-303545000D02*
X300752000Y-304855000D01*
X292537500Y-200675500D02*
X292537500Y-200675000D01*
X291227500Y-285926200D02*
X291228000Y-285925700D01*
X291228000Y-285805000D02*
X291228000Y-285925700D01*
X292538000Y-200675000D02*
X292537500Y-200675500D01*
X291228000Y-225948000D02*
X291706000Y-226426000D01*
X295990000Y-247705000D02*
X297300000Y-246395000D01*
X291227500Y-225947500D02*
X291228000Y-225947500D01*
X295187000Y-247855000D02*
X288766000Y-254275000D01*
X286465000Y-266905000D02*
X287138000Y-267578000D01*
X291228000Y-225947500D02*
X291228000Y-225948000D01*
X287775000Y-265445000D02*
X287775000Y-265331000D01*
X295990000Y-247855000D02*
X295187000Y-247855000D01*
X287775000Y-265331000D02*
X288766000Y-264340000D01*
X291228000Y-202060000D02*
X291227500Y-202060500D01*
X292538000Y-284495000D02*
X291228000Y-285805000D01*
X347654000Y-168792000D02*
X347662000Y-168801000D01*
X291706000Y-226426000D02*
X291706000Y-240801000D01*
X292538000Y-224488000D02*
X291228000Y-225798000D01*
X291228000Y-285925700D02*
X291228000Y-285955000D01*
X287138000Y-279095000D02*
X292537500Y-284494500D01*
X347662000Y-168801000D02*
X449429000Y-168801000D01*
X292537500Y-224487500D02*
X292538000Y-224488000D01*
X300752000Y-304855000D02*
X300752000Y-305005000D01*
X291227500Y-285955000D02*
X291227500Y-285926200D01*
X291706000Y-223656000D02*
X292537500Y-224487500D01*
X291706000Y-286434000D02*
X291706000Y-293189000D01*
X292537500Y-284494500D02*
X292538000Y-284495000D01*
X302062500Y-303545000D02*
X302062000Y-303545000D01*
X291706000Y-202614000D02*
X291706000Y-223656000D01*
X291228000Y-201985000D02*
X291228000Y-202060000D01*
X291228000Y-285955000D02*
X291706000Y-286434000D01*
X292537500Y-284494500D02*
X292537500Y-284495000D01*
X292537500Y-200675500D02*
X291228000Y-201985000D01*
X291706000Y-293189000D02*
X302062000Y-303545000D01*
X291227500Y-202060500D02*
X291227500Y-202135000D01*
X291228000Y-202135000D02*
X291706000Y-202614000D01*
X300752500Y-305005000D02*
X300752000Y-305005000D01*
X291228000Y-225798000D02*
X291228000Y-225947500D01*
X291228000Y-202060000D02*
X291228000Y-202135000D01*
X286465000Y-266905000D02*
X288766000Y-264340000D01*
X288766000Y-254275000D02*
X288766000Y-264340000D01*
X287138000Y-267578000D02*
X287138000Y-279095000D01*
X295990000Y-247855000D02*
X295990000Y-247705000D01*
X311587500Y-284494500D02*
X311587500Y-284495000D01*
X311587500Y-224487500D02*
X311588000Y-224488000D01*
X305515000Y-266755000D02*
X305515000Y-266905000D01*
X315276000Y-248091000D02*
X315276000Y-256994000D01*
X319802000Y-304855000D02*
X319802000Y-305005000D01*
X310277500Y-285880500D02*
X310277500Y-285955000D01*
X310278000Y-285880000D02*
X310277500Y-285880500D01*
X310278000Y-285880000D02*
X310278000Y-285955000D01*
X315040000Y-202135000D02*
X315258000Y-202353000D01*
X310756000Y-286434000D02*
X310756000Y-293189000D01*
X315040000Y-247855000D02*
X315276000Y-248091000D01*
X310756000Y-240801000D02*
X310756000Y-226426000D01*
X321112500Y-303545000D02*
X321112000Y-303545000D01*
X315040000Y-201985000D02*
X316350000Y-200675000D01*
X315040000Y-202135000D02*
X315040000Y-201985000D01*
X315276000Y-256994000D02*
X306825000Y-265445000D01*
X305515000Y-266905000D02*
X306188000Y-267578000D01*
X310278000Y-285805000D02*
X310278000Y-285880000D01*
X306188000Y-279095000D02*
X311587500Y-284494500D01*
X315258000Y-220817000D02*
X311588000Y-224488000D01*
X310278000Y-285955000D02*
X310756000Y-286434000D01*
X319802500Y-305005000D02*
X319802000Y-305005000D01*
X316350000Y-246395000D02*
X310756000Y-240801000D01*
X306188000Y-267578000D02*
X306188000Y-279095000D01*
X310756000Y-293189000D02*
X321112000Y-303545000D01*
X306825000Y-265445000D02*
X305515000Y-266755000D01*
X311587500Y-284494500D02*
X311588000Y-284495000D01*
X321112000Y-303545000D02*
X319802000Y-304855000D01*
X311588000Y-284495000D02*
X310278000Y-285805000D01*
X310277500Y-225947500D02*
X310278000Y-225948000D01*
X315040000Y-247705000D02*
X316350000Y-246395000D01*
X310756000Y-226426000D02*
X310278000Y-225948000D01*
X315040000Y-247855000D02*
X315040000Y-247705000D01*
X315258000Y-202353000D02*
X315258000Y-220817000D01*
X330637500Y-284494500D02*
X330637500Y-284495000D01*
X338901000Y-305054000D02*
X338876500Y-305029500D01*
X334090000Y-247855000D02*
X335400000Y-246545000D01*
X336471000Y-323905000D02*
X337760500Y-322615500D01*
X330637500Y-284494500D02*
X330638000Y-284495000D01*
X338901000Y-305054000D02*
X338901000Y-304806000D01*
X334090000Y-247855000D02*
X334329000Y-248094000D01*
X338876500Y-305029500D02*
X338876500Y-305029000D01*
X335400000Y-200675000D02*
X334090000Y-201985000D01*
X335400000Y-224487500D02*
X335399500Y-224487500D01*
X335400000Y-246395000D02*
X335329000Y-246324000D01*
X329327500Y-285926200D02*
X329328000Y-285925700D01*
X339050000Y-321326000D02*
X339050000Y-305203000D01*
X335400000Y-246545000D02*
X335400000Y-246395000D01*
X334329000Y-248094000D02*
X334329000Y-256991000D01*
X324565000Y-266905000D02*
X324565000Y-266755000D01*
X329328000Y-285925700D02*
X329328000Y-285955000D01*
X336471300Y-323980300D02*
X336471300Y-324055000D01*
X335399500Y-224487500D02*
X335365100Y-224453100D01*
X325238000Y-279095000D02*
X330637500Y-284494500D01*
X337760500Y-322615500D02*
X339050000Y-321326000D01*
X338876500Y-305029000D02*
X338852500Y-305005000D01*
X334569000Y-223656000D02*
X335365100Y-224453100D01*
X329806000Y-286434000D02*
X329806000Y-293189000D01*
X336471000Y-323980000D02*
X336471000Y-323905000D01*
X335365100Y-224453100D02*
X335400000Y-224488000D01*
X337760500Y-322615500D02*
X337760800Y-322615500D01*
X329328000Y-285955000D02*
X329806000Y-286434000D01*
X325238000Y-267578000D02*
X325238000Y-279095000D01*
X334090000Y-202135000D02*
X334569000Y-202614000D01*
X339050000Y-305203000D02*
X338901000Y-305054000D01*
X330638000Y-284495000D02*
X329328000Y-285805000D01*
X334090000Y-201985000D02*
X334090000Y-202135000D01*
X338876500Y-305029500D02*
X338852000Y-305005000D01*
X334090000Y-225947500D02*
X334090000Y-225948000D01*
X335329000Y-227187000D02*
X334090000Y-225948000D01*
X324565000Y-266755000D02*
X325875000Y-265445000D01*
X335329000Y-246324000D02*
X335329000Y-227187000D01*
X329328000Y-285805000D02*
X329328000Y-285925700D01*
X338901000Y-304806000D02*
X340162000Y-303545000D01*
X334329000Y-256991000D02*
X325875000Y-265445000D01*
X336471000Y-323980000D02*
X336471300Y-323980300D01*
X337760800Y-322615500D02*
X337781300Y-322595000D01*
X334569000Y-202614000D02*
X334569000Y-223656000D01*
X324565000Y-266905000D02*
X325238000Y-267578000D01*
X329327500Y-285955000D02*
X329327500Y-285926200D01*
X329806000Y-293189000D02*
X340162000Y-303545000D01*
X336471000Y-324055000D02*
X336471000Y-323980000D01*
X359212000Y-303545000D02*
X357902000Y-304855000D01*
X353140000Y-225948000D02*
X353619000Y-226426000D01*
X344925000Y-265445000D02*
X343615000Y-266755000D01*
X354450300Y-224487700D02*
X353140000Y-225798000D01*
X357902000Y-305005000D02*
X358381000Y-305484000D01*
X360284000Y-323980000D02*
X360284000Y-324055000D01*
X359987800Y-320989000D02*
X361593800Y-322595000D01*
X349687600Y-284495000D02*
X349687800Y-284495200D01*
X358121000Y-202353000D02*
X358121000Y-220817000D01*
X354450000Y-246545000D02*
X354450000Y-246395000D01*
X353140000Y-247855000D02*
X353379000Y-248094000D01*
X370018000Y-182625000D02*
X370018000Y-189869000D01*
X358381000Y-319383000D02*
X359987500Y-320989000D01*
X358381000Y-305484000D02*
X358381000Y-319383000D01*
X360283800Y-323980200D02*
X360283800Y-324055000D01*
X357902500Y-305005000D02*
X357902000Y-305005000D01*
X359987500Y-320989000D02*
X361594000Y-322595000D01*
X361594000Y-322595000D02*
X360284000Y-323905000D01*
X353140000Y-247855000D02*
X354450000Y-246545000D01*
X343615000Y-266905000D02*
X344094000Y-267384000D01*
X353379000Y-248094000D02*
X353379000Y-256991000D01*
X348378000Y-285805000D02*
X348378000Y-285955000D01*
X360284000Y-323980000D02*
X360283800Y-323980200D01*
X358121000Y-220817000D02*
X354450300Y-224487700D01*
X354450100Y-224487500D02*
X354450300Y-224487700D01*
X359987500Y-320989000D02*
X359987800Y-320989000D01*
X348856000Y-293189000D02*
X359212000Y-303545000D01*
X348856000Y-286434000D02*
X348856000Y-293189000D01*
X353140000Y-225947500D02*
X353140000Y-225948000D01*
X348378000Y-285955000D02*
X348856000Y-286434000D01*
X344094000Y-278901000D02*
X349688000Y-284495000D01*
X359212500Y-303545000D02*
X359212000Y-303545000D01*
X370018000Y-189869000D02*
X359212300Y-200674700D01*
X359212500Y-200675000D02*
X359212300Y-200674800D01*
X349687800Y-284495200D02*
X348378000Y-285805000D01*
X359212300Y-200674700D02*
X357902000Y-201985000D01*
X357902500Y-202135000D02*
X357902000Y-202135000D01*
X360284000Y-323905000D02*
X360284000Y-323980000D01*
X353619000Y-245564000D02*
X354450000Y-246395000D01*
X353379000Y-256991000D02*
X344925000Y-265445000D01*
X349687500Y-284495000D02*
X349687600Y-284495000D01*
X353140000Y-225798000D02*
X353140000Y-225947500D01*
X357902000Y-202135000D02*
X358121000Y-202353000D01*
X354450000Y-224487500D02*
X354450100Y-224487500D01*
X359212300Y-200674800D02*
X359212300Y-200674700D01*
X357902000Y-304855000D02*
X357902000Y-305005000D01*
X348377500Y-285955000D02*
X348378000Y-285955000D01*
X357902000Y-201985000D02*
X357902000Y-202135000D01*
X349688000Y-284495000D02*
X349687800Y-284495200D01*
X343615000Y-266755000D02*
X343615000Y-266905000D01*
X344094000Y-267384000D02*
X344094000Y-278901000D01*
X353619000Y-226426000D02*
X353619000Y-245564000D01*
X372669000Y-226426000D02*
X372669000Y-245564000D01*
X372429000Y-248094000D02*
X372429000Y-256991000D01*
X367427500Y-285955000D02*
X367427500Y-285926200D01*
X377171000Y-202353000D02*
X377171000Y-220817000D01*
X440745000Y-186589000D02*
X439168000Y-186589000D01*
X372429000Y-256991000D02*
X363975000Y-265445000D01*
X372190000Y-225798000D02*
X372190000Y-225947500D01*
X362665000Y-266755000D02*
X362665000Y-266905000D01*
X439168000Y-186589000D02*
X437391000Y-188366000D01*
X445793000Y-181540000D02*
X440745000Y-186589000D01*
X372190000Y-247855000D02*
X373500000Y-246545000D01*
X373500000Y-224487500D02*
X373500100Y-224487500D01*
X373500100Y-224487500D02*
X373500300Y-224487700D01*
X367427500Y-285926200D02*
X367428000Y-285925700D01*
X372190000Y-225948000D02*
X372669000Y-226426000D01*
X367428000Y-285925700D02*
X367428000Y-285805000D01*
X367428000Y-285955000D02*
X367428000Y-285925700D01*
X376952000Y-201985000D02*
X376952000Y-202135000D01*
X368737500Y-284495000D02*
X368737600Y-284495000D01*
X368737600Y-284495000D02*
X368737800Y-284495200D01*
X377171000Y-220817000D02*
X373500300Y-224487700D01*
X363144000Y-278901000D02*
X363144000Y-267384000D01*
X368737800Y-284495200D02*
X368738000Y-284495000D01*
X373500300Y-224487700D02*
X372190000Y-225798000D01*
X376952500Y-202135000D02*
X376952000Y-202135000D01*
X376952000Y-202135000D02*
X377171000Y-202353000D01*
X373500000Y-246545000D02*
X373500000Y-246395000D01*
X363144000Y-267384000D02*
X362665000Y-266905000D01*
X372190000Y-247855000D02*
X372429000Y-248094000D01*
X372669000Y-245564000D02*
X373500000Y-246395000D01*
X437391000Y-188366000D02*
X437391000Y-188629000D01*
X378262500Y-200675000D02*
X378262000Y-200675000D01*
X363975000Y-265445000D02*
X362665000Y-266755000D01*
X368738000Y-284495000D02*
X363144000Y-278901000D01*
X367428000Y-285805000D02*
X368737800Y-284495200D01*
X372190000Y-225947500D02*
X372190000Y-225948000D01*
X378262000Y-200675000D02*
X376952000Y-201985000D01*
X435295000Y-179432000D02*
X435914000Y-179432000D01*
X381715000Y-304855000D02*
X383025000Y-303545000D01*
X386676000Y-286153000D02*
X386478000Y-285955000D01*
X382194000Y-305484000D02*
X381715000Y-305005000D01*
X444974000Y-172286000D02*
X445857000Y-172286000D01*
X443887000Y-172295000D02*
X444965000Y-172295000D01*
X449730000Y-174396000D02*
X449730000Y-176543000D01*
X382194000Y-312239000D02*
X382194000Y-305484000D01*
X436752000Y-179430000D02*
X443887000Y-172295000D01*
X393541000Y-223382000D02*
X392390500Y-224665000D01*
X388313000Y-260157000D02*
X383025000Y-265445000D01*
X387788000Y-284495000D02*
X382194000Y-278901000D01*
X447629000Y-172295000D02*
X449730000Y-174396000D01*
X392390500Y-224665000D02*
X391240000Y-225815500D01*
X392550000Y-224488000D02*
X392550000Y-224487500D01*
X435914000Y-179432000D02*
X435916000Y-179430000D01*
X445867000Y-172276000D02*
X446627000Y-172276000D01*
X393541000Y-221185000D02*
X435295000Y-179432000D01*
X392390500Y-224665000D02*
X391240000Y-225948000D01*
X392550000Y-224374000D02*
X393541000Y-223382000D01*
X386477500Y-285955000D02*
X386478000Y-285955000D01*
X444965000Y-172295000D02*
X444974000Y-172286000D01*
X383025000Y-303545000D02*
X386676000Y-299894000D01*
X393541000Y-223382000D02*
X393541000Y-221185000D01*
X381715000Y-266755000D02*
X381715000Y-266905000D01*
X392550000Y-224487500D02*
X392550000Y-224374000D01*
X445857000Y-172286000D02*
X445867000Y-172276000D01*
X391240000Y-324055000D02*
X391240000Y-323905000D01*
X435916000Y-179430000D02*
X436752000Y-179430000D01*
X391479000Y-226187000D02*
X391479000Y-240586000D01*
X391240000Y-225948000D02*
X391479000Y-226187000D01*
X381715000Y-305005000D02*
X381715000Y-304855000D01*
X382194000Y-278901000D02*
X382194000Y-267384000D01*
X446646000Y-172295000D02*
X447629000Y-172295000D01*
X386676000Y-299894000D02*
X386676000Y-286153000D01*
X388313000Y-243753000D02*
X388313000Y-260157000D01*
X392550000Y-322595000D02*
X382194000Y-312239000D01*
X446627000Y-172276000D02*
X446646000Y-172295000D01*
X391479000Y-240586000D02*
X388313000Y-243753000D01*
X391240000Y-225815500D02*
X391240000Y-225947500D01*
X391240000Y-323905000D02*
X392550000Y-322595000D01*
X382194000Y-267384000D02*
X381715000Y-266905000D01*
X387787500Y-284495000D02*
X387788000Y-284495000D01*
X383025000Y-265445000D02*
X381715000Y-266755000D01*
X408388000Y-267384000D02*
X408148500Y-267144500D01*
X408148300Y-267144500D02*
X407908800Y-266905000D01*
X411525000Y-322520000D02*
X411525000Y-306240000D01*
X415052000Y-202135000D02*
X415052500Y-202135500D01*
X415628000Y-202711000D02*
X415628000Y-223754000D01*
X408148500Y-267144500D02*
X408148300Y-267144500D01*
X415052500Y-225947500D02*
X415052000Y-225948000D01*
X416362000Y-224488000D02*
X416362000Y-224638000D01*
X411525000Y-306240000D02*
X410290000Y-305005000D01*
X401244000Y-257470000D02*
X401244000Y-248334000D01*
X408148500Y-267144500D02*
X407909000Y-266905000D01*
X408388000Y-300333000D02*
X408388000Y-267384000D01*
X402075000Y-246395000D02*
X402075000Y-246281000D01*
X414256000Y-225948000D02*
X403066000Y-237137000D01*
X430967000Y-193314000D02*
X443832000Y-180449000D01*
X407909000Y-266755000D02*
X409218800Y-265445200D01*
X415052500Y-202135500D02*
X415628000Y-202711000D01*
X411600000Y-303545000D02*
X408388000Y-300333000D01*
X409219000Y-265445000D02*
X401244000Y-257470000D01*
X430967000Y-196430000D02*
X430967000Y-193314000D01*
X415052000Y-201985000D02*
X415052000Y-202135000D01*
X415052500Y-202135500D02*
X415052500Y-202135000D01*
X416362000Y-224638000D02*
X415052500Y-225947500D01*
X401244000Y-248334000D02*
X400765000Y-247855000D01*
X410290000Y-324055000D02*
X411600000Y-322745000D01*
X411600000Y-322745000D02*
X411600000Y-322595000D01*
X403066000Y-237137000D02*
X403066000Y-245290000D01*
X415052000Y-225948000D02*
X414256000Y-225948000D01*
X400765000Y-247855000D02*
X403066000Y-245290000D01*
X407909000Y-266905000D02*
X407909000Y-266755000D01*
X415628000Y-223754000D02*
X416362000Y-224488000D01*
X416362000Y-200675000D02*
X415052000Y-201985000D01*
X416362500Y-224487500D02*
X416362000Y-224488000D01*
X409218800Y-265445200D02*
X409218800Y-265445000D01*
X416362500Y-200675000D02*
X416362000Y-200675000D01*
X443832000Y-180449000D02*
X444488000Y-180449000D01*
X409218800Y-265445200D02*
X409219000Y-265445000D01*
X411600000Y-322595000D02*
X411525000Y-322520000D01*
X402075000Y-246281000D02*
X403066000Y-245290000D01*
X435377600Y-246360600D02*
X435412000Y-246395000D01*
X429340000Y-324055000D02*
X429340000Y-323905000D01*
X446520000Y-181841000D02*
X446520000Y-181239000D01*
X435412000Y-200675000D02*
X435412000Y-200561000D01*
X434102000Y-202135000D02*
X435338000Y-203370000D01*
X445448000Y-180167000D02*
X445448000Y-179535000D01*
X435377600Y-284460600D02*
X435412000Y-284495000D01*
X434102500Y-225947500D02*
X434102000Y-225948000D01*
X434454000Y-226300000D02*
X434454000Y-245437000D01*
X434102500Y-202135000D02*
X434102000Y-202135000D01*
X434284000Y-318961000D02*
X430650000Y-322595000D01*
X445448000Y-190526000D02*
X445448000Y-182913000D01*
X435412000Y-246395000D02*
X434102000Y-247705000D01*
X434102500Y-247855500D02*
X434454000Y-248207000D01*
X435412000Y-200561000D02*
X436404000Y-199570000D01*
X434454000Y-267257000D02*
X434454000Y-283537000D01*
X434102500Y-266905500D02*
X434454000Y-267257000D01*
X434102500Y-266905500D02*
X434102500Y-266905000D01*
X435338000Y-203370000D02*
X435338000Y-224412000D01*
X435338000Y-224412000D02*
X435412000Y-224488000D01*
X435412500Y-200675000D02*
X435412000Y-200675000D01*
X434102000Y-266755000D02*
X434102000Y-266905000D01*
X436404000Y-199570000D02*
X445448000Y-190526000D01*
X434102000Y-247855000D02*
X434102500Y-247855500D01*
X435412500Y-224487500D02*
X435412000Y-224488000D01*
X434454000Y-283537000D02*
X435377600Y-284460600D01*
X434102000Y-285955000D02*
X434102500Y-285955500D01*
X435412000Y-224638000D02*
X434102500Y-225947500D01*
X429340000Y-323905000D02*
X430650000Y-322595000D01*
X435412500Y-265445000D02*
X435412000Y-265445000D01*
X435412500Y-246395000D02*
X435412000Y-246395000D01*
X434102000Y-247705000D02*
X434102000Y-247855000D01*
X445448000Y-182913000D02*
X446520000Y-181841000D01*
X434454000Y-245437000D02*
X435377600Y-246360600D01*
X434454000Y-264487000D02*
X435377600Y-265410600D01*
X435412000Y-265445000D02*
X434102000Y-266755000D01*
X435412000Y-224488000D02*
X435412000Y-224638000D01*
X434102000Y-225948000D02*
X434454000Y-226300000D01*
X446520000Y-181239000D02*
X445448000Y-180167000D01*
X435412000Y-284495000D02*
X434102000Y-285805000D01*
X434454000Y-248207000D02*
X434454000Y-264487000D01*
X434102500Y-285955500D02*
X434284000Y-286137000D01*
X434102000Y-285805000D02*
X434102000Y-285955000D01*
X435412000Y-284495000D02*
X435377600Y-284460600D01*
X436404000Y-199570000D02*
X434102000Y-202135000D01*
X434102500Y-247855500D02*
X434102500Y-247855000D01*
X435412500Y-284495000D02*
X435412000Y-284495000D01*
X434284000Y-286137000D02*
X434284000Y-318961000D01*
X435412000Y-265445000D02*
X435377600Y-265410600D01*
X435412000Y-246395000D02*
X435377600Y-246360600D01*
X435377600Y-265410600D02*
X435412000Y-265445000D01*
X434102500Y-285955500D02*
X434102500Y-285955000D01*
X434102000Y-266905000D02*
X434102500Y-266905500D01*
X453152000Y-285955000D02*
X453152500Y-285954500D01*
X453152500Y-285954500D02*
X454117000Y-284990000D01*
X453152000Y-305005000D02*
X453152500Y-305004500D01*
X454117000Y-284990000D02*
X454117000Y-284495000D01*
X454462000Y-284495000D02*
X454117000Y-284495000D01*
X454462000Y-303545000D02*
X454428100Y-303510600D01*
X453152300Y-266905200D02*
X454117000Y-267870000D01*
X454392000Y-303474000D02*
X454392000Y-287194000D01*
X454462500Y-303545000D02*
X454428100Y-303510600D01*
X453334000Y-248037000D02*
X453334000Y-264317000D01*
X453334000Y-226129000D02*
X453334000Y-245267000D01*
X454117000Y-267870000D02*
X454117000Y-284495000D01*
X449048000Y-195261000D02*
X454462000Y-200675000D01*
X454462500Y-265445000D02*
X454462000Y-265445000D01*
X449048000Y-178202000D02*
X449048000Y-195261000D01*
X454462000Y-265445000D02*
X454462000Y-265595000D01*
X453152500Y-202135000D02*
X453634000Y-202135000D01*
X453334000Y-245267000D02*
X454462000Y-246395000D01*
X453152000Y-225947500D02*
X453152000Y-225948000D01*
X453152500Y-266905000D02*
X453152300Y-266905200D01*
X454462500Y-284495000D02*
X454462000Y-284495000D01*
X453634000Y-223659000D02*
X454462000Y-224488000D01*
X453152000Y-225798000D02*
X453152000Y-225947500D01*
X454462000Y-265595000D02*
X453152000Y-266905000D01*
X453152500Y-285955000D02*
X453152500Y-285954500D01*
X454462500Y-246395000D02*
X454462000Y-246395000D01*
X454462000Y-200675000D02*
X454462000Y-201306000D01*
X454428100Y-303510600D02*
X454392000Y-303474000D01*
X453152000Y-266905000D02*
X453152300Y-266905200D01*
X454462500Y-200675000D02*
X454462000Y-200675000D01*
X454462000Y-303695000D02*
X454462000Y-303545000D01*
X453152500Y-305004500D02*
X453152500Y-305005000D01*
X453152500Y-305004500D02*
X454462000Y-303695000D01*
X454462000Y-246395000D02*
X453152000Y-247705000D01*
X453634000Y-202135000D02*
X453634000Y-223659000D01*
X454462000Y-224488000D02*
X453152000Y-225798000D01*
X454462500Y-224487500D02*
X454462000Y-224488000D01*
X453152500Y-247855000D02*
X453152000Y-247855000D01*
X453152000Y-247855000D02*
X453334000Y-248037000D01*
X453152000Y-202135000D02*
X453152500Y-202135000D01*
X454462000Y-201306000D02*
X453634000Y-202135000D01*
X453334000Y-264317000D02*
X454462000Y-265445000D01*
X453152000Y-247705000D02*
X453152000Y-247855000D01*
X453152500Y-225947500D02*
X453152000Y-225947500D01*
X454392000Y-287194000D02*
X453152000Y-285955000D01*
X453152000Y-225948000D02*
X453334000Y-226129000D01*
X390788000Y-208285500D02*
X390787500Y-208286000D01*
X377620000Y-199177000D02*
X371738000Y-205059000D01*
X371738000Y-205059000D02*
X371738000Y-209075000D01*
X390788000Y-207496000D02*
X386202000Y-202910000D01*
X386202000Y-202910000D02*
X383810000Y-202910000D01*
X465861000Y-186140000D02*
X460484000Y-180762000D01*
X380077000Y-199177000D02*
X377620000Y-199177000D01*
X460484000Y-180762000D02*
X459898000Y-180762000D01*
X390787500Y-208286000D02*
X390787500Y-209075000D01*
X466987500Y-209075000D02*
X466988000Y-209075000D01*
X371737500Y-209075000D02*
X371738000Y-209075000D01*
X390788000Y-208285500D02*
X390788000Y-207496000D01*
X390788000Y-209075000D02*
X390788000Y-208285500D01*
X466988000Y-207948000D02*
X465861000Y-206821000D01*
X465861000Y-206821000D02*
X465861000Y-186140000D01*
X466988000Y-209075000D02*
X466988000Y-207948000D01*
X383810000Y-202910000D02*
X380077000Y-199177000D01*
X466988000Y-232887500D02*
X466988000Y-232888000D01*
X466988000Y-231761000D02*
X466988000Y-232887500D01*
X466987500Y-232887500D02*
X466988000Y-232887500D01*
X465390000Y-230164000D02*
X466988000Y-231761000D01*
X460542000Y-181849000D02*
X465390000Y-186697000D01*
X465390000Y-186697000D02*
X465390000Y-230164000D01*
X457132000Y-195123000D02*
X457132000Y-178136000D01*
X466988000Y-253668000D02*
X463528000Y-250209000D01*
X466987500Y-254795000D02*
X466988000Y-254795000D01*
X463528000Y-250209000D02*
X463528000Y-201519000D01*
X466988000Y-254795000D02*
X466988000Y-253668000D01*
X463528000Y-201519000D02*
X457132000Y-195123000D01*
X466988000Y-272718000D02*
X466988000Y-273845000D01*
X468114000Y-271591000D02*
X466988000Y-272718000D01*
X466987500Y-273845000D02*
X466988000Y-273845000D01*
X468114000Y-186307000D02*
X468114000Y-271591000D01*
X460816000Y-179008000D02*
X468114000Y-186307000D01*
X424125000Y-273845000D02*
X424125000Y-276425000D01*
X430014000Y-266829000D02*
X424125000Y-272718000D01*
X430014000Y-188273000D02*
X430014000Y-266829000D01*
X445274000Y-173013000D02*
X430014000Y-188273000D01*
X424125000Y-272718000D02*
X424125000Y-273845000D01*
X424125000Y-276425000D02*
X421831000Y-278719000D01*
X450789000Y-194239000D02*
X455947000Y-199397000D01*
X455947000Y-199397000D02*
X455947000Y-201516000D01*
X460582000Y-262205000D02*
X465861000Y-267484000D01*
X460294000Y-243597000D02*
X460997000Y-244300000D01*
X450789000Y-174423000D02*
X450789000Y-194239000D01*
X455947000Y-201516000D02*
X454367000Y-203096000D01*
X466988000Y-310818000D02*
X466988000Y-311945000D01*
X466987500Y-311945000D02*
X466988000Y-311945000D01*
X454367000Y-203096000D02*
X454367000Y-221401000D01*
X465861000Y-309691000D02*
X466988000Y-310818000D01*
X454367000Y-221401000D02*
X460294000Y-227328000D01*
X460997000Y-246970000D02*
X460582000Y-247386000D01*
X460582000Y-247386000D02*
X460582000Y-262205000D01*
X465861000Y-267484000D02*
X465861000Y-309691000D01*
X460997000Y-244300000D02*
X460997000Y-246970000D01*
X460294000Y-227328000D02*
X460294000Y-243597000D01*
X449064000Y-323979000D02*
X449064000Y-200808000D01*
X449064000Y-200808000D02*
X448288000Y-200032000D01*
X448288000Y-200032000D02*
X448288000Y-175267000D01*
X448288000Y-175267000D02*
X448918000Y-174637000D01*
X443175000Y-330995000D02*
X443175000Y-329868000D01*
X443175000Y-329868000D02*
X449064000Y-323979000D01*
X149940000Y-199595000D02*
X149900000Y-199635000D01*
X149900000Y-199635000D02*
X149900000Y-200175000D01*
X168990000Y-199595000D02*
X168950000Y-199635000D01*
X168950000Y-199635000D02*
X168950000Y-200175000D01*
X192782500Y-199615000D02*
X192802500Y-199595000D01*
X192802000Y-199595000D02*
X192782000Y-199615000D01*
X192762500Y-200175000D02*
X192762000Y-200175000D01*
X192782000Y-199615000D02*
X192782500Y-199615000D01*
X192762000Y-199635000D02*
X192762000Y-200175000D01*
X192782000Y-199615000D02*
X192762000Y-199635000D01*
X211812500Y-200175000D02*
X211812000Y-200175000D01*
X211832500Y-199615000D02*
X211852500Y-199595000D01*
X211832000Y-199615000D02*
X211812000Y-199635000D01*
X211852000Y-199595000D02*
X211832000Y-199615000D01*
X211812000Y-199635000D02*
X211812000Y-200175000D01*
X211832000Y-199615000D02*
X211832500Y-199615000D01*
X235625000Y-199635000D02*
X235625000Y-200175000D01*
X235665000Y-199595000D02*
X235625000Y-199635000D01*
X254715000Y-199595000D02*
X254675000Y-199635000D01*
X254675000Y-199635000D02*
X254675000Y-200175000D01*
X278528000Y-199595000D02*
X278527500Y-199595500D01*
X278527500Y-199595500D02*
X278527500Y-199595000D01*
X278487500Y-200175000D02*
X278488000Y-200175000D01*
X278488000Y-199635000D02*
X278488000Y-200175000D01*
X278527500Y-199595500D02*
X278488000Y-199635000D01*
X297577500Y-199595500D02*
X297577500Y-199595000D01*
X297537500Y-200175000D02*
X297538000Y-200175000D01*
X297577500Y-199595500D02*
X297538000Y-199635000D01*
X297578000Y-199595000D02*
X297577500Y-199595500D01*
X297538000Y-199635000D02*
X297538000Y-200175000D01*
X321390000Y-199595000D02*
X321350000Y-199635000D01*
X321350000Y-199635000D02*
X321350000Y-200175000D01*
X340400000Y-199635000D02*
X340400000Y-200175000D01*
X340440000Y-199595000D02*
X340400000Y-199635000D01*
X364232000Y-199615000D02*
X364232500Y-199615000D01*
X364252000Y-199595000D02*
X364232000Y-199615000D01*
X364232500Y-199615000D02*
X364252500Y-199595000D01*
X364212500Y-200175000D02*
X364212000Y-200175000D01*
X364212000Y-199635000D02*
X364212000Y-200175000D01*
X364232000Y-199615000D02*
X364212000Y-199635000D01*
X383302000Y-199595000D02*
X383282000Y-199615000D01*
X383282000Y-199615000D02*
X383282500Y-199615000D01*
X383262000Y-199635000D02*
X383262000Y-200175000D01*
X383282500Y-199615000D02*
X383302500Y-199595000D01*
X383282000Y-199615000D02*
X383262000Y-199635000D01*
X383262500Y-200175000D02*
X383262000Y-200175000D01*
X421362000Y-199635000D02*
X421362000Y-200175000D01*
X421382000Y-199615000D02*
X421382500Y-199615000D01*
X421382500Y-199615000D02*
X421402500Y-199595000D01*
X421362500Y-200175000D02*
X421362000Y-200175000D01*
X421382000Y-199615000D02*
X421362000Y-199635000D01*
X421402000Y-199595000D02*
X421382000Y-199615000D01*
X440432000Y-199615000D02*
X440432500Y-199615000D01*
X440432000Y-199615000D02*
X440412000Y-199635000D01*
X440412000Y-199635000D02*
X440412000Y-200175000D01*
X440412500Y-200175000D02*
X440412000Y-200175000D01*
X440432500Y-199615000D02*
X440452500Y-199595000D01*
X440452000Y-199595000D02*
X440432000Y-199615000D01*
X459482000Y-199615000D02*
X459482500Y-199615000D01*
X459482000Y-199615000D02*
X459462000Y-199635000D01*
X459462500Y-200175000D02*
X459462000Y-200175000D01*
X459462000Y-199635000D02*
X459462000Y-200175000D01*
X459502000Y-199595000D02*
X459482000Y-199615000D01*
X459482500Y-199615000D02*
X459502500Y-199595000D01*
X149900000Y-223987500D02*
X149900000Y-223988000D01*
X149900000Y-223448000D02*
X149900000Y-223987500D01*
X149940000Y-223408000D02*
X149940000Y-223407500D01*
X149940000Y-223408000D02*
X149900000Y-223448000D01*
X178515000Y-223408000D02*
X178475000Y-223448000D01*
X178475000Y-223448000D02*
X178475000Y-223987500D01*
X178515000Y-223408000D02*
X178515000Y-223407500D01*
X178475000Y-223987500D02*
X178475000Y-223988000D01*
X197525000Y-223448000D02*
X197525000Y-223987500D01*
X197565000Y-223408000D02*
X197565000Y-223407500D01*
X197565000Y-223408000D02*
X197525000Y-223448000D01*
X197525000Y-223987500D02*
X197525000Y-223988000D01*
X216615000Y-223408000D02*
X216575000Y-223448000D01*
X216615000Y-223408000D02*
X216615000Y-223407500D01*
X216575000Y-223987500D02*
X216575000Y-223988000D01*
X216575000Y-223448000D02*
X216575000Y-223987500D01*
X235665000Y-223408000D02*
X235665000Y-223407500D01*
X235625000Y-223987500D02*
X235625000Y-223988000D01*
X235665000Y-223408000D02*
X235625000Y-223448000D01*
X235625000Y-223448000D02*
X235625000Y-223987500D01*
X259437500Y-223987500D02*
X259438000Y-223987500D01*
X259438000Y-223987500D02*
X259438000Y-223988000D01*
X259438000Y-223448000D02*
X259438000Y-223987500D01*
X259477500Y-223407500D02*
X259478000Y-223408000D01*
X259478000Y-223408000D02*
X259438000Y-223448000D01*
X278527500Y-223407500D02*
X278528000Y-223408000D01*
X278487500Y-223987500D02*
X278488000Y-223987500D01*
X278488000Y-223448000D02*
X278488000Y-223987500D01*
X278528000Y-223408000D02*
X278488000Y-223448000D01*
X278488000Y-223987500D02*
X278488000Y-223988000D01*
X297538000Y-223448000D02*
X297538000Y-223987500D01*
X297577500Y-223407500D02*
X297578000Y-223408000D01*
X297537500Y-223987500D02*
X297538000Y-223987500D01*
X297578000Y-223408000D02*
X297538000Y-223448000D01*
X297538000Y-223987500D02*
X297538000Y-223988000D01*
X316588000Y-223448000D02*
X316588000Y-223987500D01*
X316628000Y-223408000D02*
X316588000Y-223448000D01*
X316588000Y-223987500D02*
X316588000Y-223988000D01*
X316587500Y-223987500D02*
X316588000Y-223987500D01*
X316627500Y-223407500D02*
X316628000Y-223408000D01*
X340440000Y-223408000D02*
X340440000Y-223407500D01*
X340400000Y-223448000D02*
X340400000Y-223987500D01*
X340440000Y-223408000D02*
X340400000Y-223448000D01*
X340400000Y-223987500D02*
X340400000Y-223988000D01*
X359450000Y-223448000D02*
X359450000Y-223987500D01*
X359450000Y-223987500D02*
X359450000Y-223988000D01*
X359490000Y-223408000D02*
X359450000Y-223448000D01*
X359490000Y-223408000D02*
X359490000Y-223407500D01*
X378500000Y-223987500D02*
X378500000Y-223988000D01*
X378540000Y-223408000D02*
X378500000Y-223448000D01*
X378500000Y-223448000D02*
X378500000Y-223987500D01*
X378540000Y-223408000D02*
X378540000Y-223407500D01*
X397590000Y-223408000D02*
X397550000Y-223448000D01*
X397550000Y-223988000D02*
X399080000Y-224093000D01*
X400074000Y-225088000D02*
X405075000Y-225088000D01*
X397550000Y-223987500D02*
X397550000Y-223988000D01*
X405075000Y-225087500D02*
X405075000Y-225088000D01*
X397590000Y-223408000D02*
X397590000Y-223407500D01*
X399080000Y-224093000D02*
X400074000Y-225088000D01*
X397550000Y-223448000D02*
X397550000Y-223987500D01*
X421402500Y-223407500D02*
X421402000Y-223408000D01*
X421402000Y-223408000D02*
X421362000Y-223448000D01*
X421362000Y-223987500D02*
X421362000Y-223988000D01*
X421362500Y-223987500D02*
X421362000Y-223987500D01*
X421362000Y-223448000D02*
X421362000Y-223987500D01*
X440412000Y-223448000D02*
X440412000Y-223987500D01*
X440452000Y-223408000D02*
X440412000Y-223448000D01*
X440412000Y-223987500D02*
X440412000Y-223988000D01*
X440452500Y-223407500D02*
X440452000Y-223408000D01*
X440412500Y-223987500D02*
X440412000Y-223987500D01*
X459462500Y-223987500D02*
X459462000Y-223987500D01*
X459462000Y-223448000D02*
X459462000Y-223987500D01*
X459462000Y-223987500D02*
X459462000Y-223988000D01*
X459502000Y-223408000D02*
X459462000Y-223448000D01*
X459502500Y-223407500D02*
X459502000Y-223408000D01*
X149940000Y-245315000D02*
X149900000Y-245355000D01*
X149900000Y-245355000D02*
X149900000Y-245895000D01*
X168990000Y-245315000D02*
X168950000Y-245355000D01*
X168950000Y-245355000D02*
X168950000Y-245895000D01*
X188000000Y-245355000D02*
X188000000Y-245895000D01*
X188040000Y-245315000D02*
X188000000Y-245355000D01*
X207090000Y-245315000D02*
X207050000Y-245355000D01*
X207050000Y-245355000D02*
X207050000Y-245895000D01*
X226140000Y-245315000D02*
X226100000Y-245355000D01*
X226100000Y-245355000D02*
X226100000Y-245895000D01*
X245150000Y-245355000D02*
X245150000Y-245895000D01*
X245190000Y-245315000D02*
X245150000Y-245355000D01*
X264240000Y-245315000D02*
X264200000Y-245355000D01*
X264200000Y-245355000D02*
X264200000Y-245895000D01*
X283290000Y-245315000D02*
X283250000Y-245355000D01*
X283250000Y-245355000D02*
X283250000Y-245895000D01*
X302300000Y-245355000D02*
X302300000Y-245895000D01*
X302340000Y-245315000D02*
X302300000Y-245355000D01*
X321350000Y-245355000D02*
X321350000Y-245895000D01*
X321390000Y-245315000D02*
X321350000Y-245355000D01*
X340440000Y-245315000D02*
X340400000Y-245355000D01*
X340400000Y-245355000D02*
X340400000Y-245895000D01*
X359490000Y-245315000D02*
X359450000Y-245355000D01*
X359450000Y-245355000D02*
X359450000Y-245895000D01*
X378540000Y-245315000D02*
X378500000Y-245355000D01*
X378500000Y-245355000D02*
X378500000Y-245895000D01*
X440412000Y-245355000D02*
X440412000Y-245895000D01*
X440432000Y-245335000D02*
X440412000Y-245355000D01*
X440412500Y-245895000D02*
X440412000Y-245895000D01*
X440432500Y-245335000D02*
X440452500Y-245315000D01*
X440452000Y-245315000D02*
X440432000Y-245335000D01*
X440432000Y-245335000D02*
X440432500Y-245335000D01*
X459462500Y-245895000D02*
X459462000Y-245895000D01*
X459462000Y-245355000D02*
X459462000Y-245895000D01*
X459482000Y-245335000D02*
X459462000Y-245355000D01*
X459482500Y-245335000D02*
X459502500Y-245315000D01*
X459482000Y-245335000D02*
X459482500Y-245335000D01*
X459502000Y-245315000D02*
X459482000Y-245335000D01*
X178475000Y-264405000D02*
X178475000Y-264945000D01*
X178515000Y-264365000D02*
X178475000Y-264405000D01*
X197565000Y-264365000D02*
X197525000Y-264405000D01*
X197525000Y-264405000D02*
X197525000Y-264945000D01*
X216575000Y-264405000D02*
X216575000Y-264945000D01*
X216615000Y-264365000D02*
X216575000Y-264405000D01*
X235665000Y-264365000D02*
X235625000Y-264405000D01*
X235625000Y-264405000D02*
X235625000Y-264945000D01*
X254675000Y-264405000D02*
X254675000Y-264945000D01*
X254715000Y-264365000D02*
X254675000Y-264405000D01*
X273765000Y-264365000D02*
X273725000Y-264405000D01*
X273725000Y-264405000D02*
X273725000Y-264945000D01*
X292775000Y-264405000D02*
X292775000Y-264945000D01*
X292815000Y-264365000D02*
X292775000Y-264405000D01*
X311825000Y-264405000D02*
X311825000Y-264945000D01*
X311865000Y-264365000D02*
X311825000Y-264405000D01*
X330875000Y-264405000D02*
X330875000Y-264945000D01*
X330915000Y-264365000D02*
X330875000Y-264405000D01*
X349965000Y-264365000D02*
X349925000Y-264405000D01*
X349925000Y-264405000D02*
X349925000Y-264945000D01*
X369015000Y-264365000D02*
X368975000Y-264405000D01*
X368975000Y-264405000D02*
X368975000Y-264945000D01*
X388065000Y-264365000D02*
X388025000Y-264405000D01*
X388025000Y-264405000D02*
X388025000Y-264945000D01*
X441177000Y-264997500D02*
X440465000Y-264997500D01*
X441177000Y-264997500D02*
X440412000Y-264945000D01*
X440452500Y-264365000D02*
X440452000Y-264365000D01*
X442937000Y-266045000D02*
X441942000Y-265051000D01*
X440412000Y-264405000D02*
X440452000Y-264365000D01*
X440412000Y-264945000D02*
X440412000Y-264405000D01*
X447937500Y-266045000D02*
X442937000Y-266045000D01*
X441942000Y-265050000D02*
X441177000Y-264997500D01*
X441942000Y-265051000D02*
X441942000Y-265050000D01*
X440465000Y-264997500D02*
X440412500Y-264945000D01*
X447938000Y-266045000D02*
X447937500Y-266045000D01*
X459462000Y-264405000D02*
X459462000Y-264945000D01*
X459482000Y-264385000D02*
X459482500Y-264385000D01*
X459502000Y-264365000D02*
X459482000Y-264385000D01*
X459482000Y-264385000D02*
X459462000Y-264405000D01*
X459462500Y-264945000D02*
X459462000Y-264945000D01*
X459482500Y-264385000D02*
X459502500Y-264365000D01*
X157084000Y-283415000D02*
X157083800Y-283415200D01*
X157083800Y-283415200D02*
X157044000Y-283455000D01*
X157043800Y-283995000D02*
X157044000Y-283995000D01*
X157044000Y-283455000D02*
X157044000Y-283995000D01*
X157083800Y-283415200D02*
X157083800Y-283415000D01*
X183277500Y-283415500D02*
X183277500Y-283415000D01*
X183277500Y-283415500D02*
X183238000Y-283455000D01*
X183238000Y-283455000D02*
X183238000Y-283995000D01*
X183237500Y-283995000D02*
X183238000Y-283995000D01*
X183278000Y-283415000D02*
X183277500Y-283415500D01*
X202327500Y-283415500D02*
X202288000Y-283455000D01*
X202328000Y-283415000D02*
X202327500Y-283415500D01*
X202327500Y-283415500D02*
X202327500Y-283415000D01*
X202287500Y-283995000D02*
X202288000Y-283995000D01*
X202288000Y-283455000D02*
X202288000Y-283995000D01*
X221378000Y-283415000D02*
X221377500Y-283415500D01*
X221338000Y-283455000D02*
X221338000Y-283995000D01*
X221377500Y-283415500D02*
X221338000Y-283455000D01*
X221337500Y-283995000D02*
X221338000Y-283995000D01*
X221377500Y-283415500D02*
X221377500Y-283415000D01*
X240387500Y-283995000D02*
X240388000Y-283995000D01*
X240428000Y-283415000D02*
X240427500Y-283415500D01*
X240427500Y-283415500D02*
X240388000Y-283455000D01*
X240427500Y-283415500D02*
X240427500Y-283415000D01*
X240388000Y-283455000D02*
X240388000Y-283995000D01*
X259438000Y-283455000D02*
X259438000Y-283995000D01*
X259477500Y-283415500D02*
X259438000Y-283455000D01*
X259478000Y-283415000D02*
X259477500Y-283415500D01*
X259437500Y-283995000D02*
X259438000Y-283995000D01*
X259477500Y-283415500D02*
X259477500Y-283415000D01*
X278488000Y-283455000D02*
X278488000Y-283995000D01*
X278527500Y-283415500D02*
X278488000Y-283455000D01*
X278528000Y-283415000D02*
X278527500Y-283415500D01*
X278527500Y-283415500D02*
X278527500Y-283415000D01*
X278487500Y-283995000D02*
X278488000Y-283995000D01*
X297537500Y-283995000D02*
X297538000Y-283995000D01*
X297538000Y-283455000D02*
X297538000Y-283995000D01*
X297578000Y-283415000D02*
X297577500Y-283415500D01*
X297577500Y-283415500D02*
X297538000Y-283455000D01*
X297577500Y-283415500D02*
X297577500Y-283415000D01*
X316628000Y-283415000D02*
X316627500Y-283415500D01*
X316588000Y-283455000D02*
X316588000Y-283995000D01*
X316627500Y-283415500D02*
X316588000Y-283455000D01*
X316627500Y-283415500D02*
X316627500Y-283415000D01*
X316587500Y-283995000D02*
X316588000Y-283995000D01*
X335677500Y-283415500D02*
X335638000Y-283455000D01*
X335637500Y-283995000D02*
X335638000Y-283995000D01*
X335638000Y-283455000D02*
X335638000Y-283995000D01*
X335678000Y-283415000D02*
X335677500Y-283415500D01*
X335677500Y-283415500D02*
X335677500Y-283415000D01*
X354727500Y-283415500D02*
X354688000Y-283455000D01*
X354728000Y-283415000D02*
X354727500Y-283415500D01*
X354727500Y-283415500D02*
X354727500Y-283415000D01*
X354687500Y-283995000D02*
X354688000Y-283995000D01*
X354688000Y-283455000D02*
X354688000Y-283995000D01*
X381262000Y-285095000D02*
X381262500Y-285095000D01*
X373738000Y-283995000D02*
X375267000Y-284100000D01*
X373738000Y-283725000D02*
X373738000Y-283995000D01*
X373737500Y-283725500D02*
X373737500Y-283995000D01*
X373777500Y-283415500D02*
X373777500Y-283415000D01*
X376262000Y-285095000D02*
X381262000Y-285095000D01*
X373777500Y-283415500D02*
X373738000Y-283455000D01*
X373738000Y-283455000D02*
X373738000Y-283725000D01*
X373738000Y-283725000D02*
X373737500Y-283725500D01*
X375267000Y-284100000D02*
X375267000Y-284101000D01*
X373778000Y-283415000D02*
X373777500Y-283415500D01*
X375267000Y-284101000D02*
X376262000Y-285095000D01*
X392828000Y-283415000D02*
X392827500Y-283415500D01*
X392788000Y-283455000D02*
X392788000Y-283995000D01*
X392827500Y-283415500D02*
X392827500Y-283415000D01*
X392827500Y-283415500D02*
X392788000Y-283455000D01*
X392787500Y-283995000D02*
X392788000Y-283995000D01*
X414218800Y-264675200D02*
X414218800Y-264945000D01*
X414259000Y-264365000D02*
X414258800Y-264365200D01*
X414219000Y-264675000D02*
X414218800Y-264675200D01*
X414219000Y-264675000D02*
X414219000Y-264945000D01*
X414219000Y-264405000D02*
X414219000Y-264675000D01*
X414258800Y-264365200D02*
X414258800Y-264365000D01*
X414258800Y-264365200D02*
X414219000Y-264405000D01*
X442937000Y-285095000D02*
X441942000Y-284101000D01*
X441177000Y-284047500D02*
X440412000Y-283995000D01*
X447937500Y-285095000D02*
X442937000Y-285095000D01*
X440465000Y-284047500D02*
X440412500Y-283995000D01*
X440452500Y-283415000D02*
X440452000Y-283415000D01*
X441177000Y-284047500D02*
X440465000Y-284047500D01*
X440412000Y-283455000D02*
X440452000Y-283415000D01*
X441942000Y-284101000D02*
X441942000Y-284100000D01*
X441942000Y-284100000D02*
X441177000Y-284047500D01*
X447938000Y-285095000D02*
X447937500Y-285095000D01*
X440412000Y-283995000D02*
X440412000Y-283455000D01*
X459462000Y-283455000D02*
X459462000Y-283995000D01*
X459482000Y-283435000D02*
X459482500Y-283435000D01*
X459502000Y-283415000D02*
X459482000Y-283435000D01*
X459462500Y-283995000D02*
X459462000Y-283995000D01*
X459482500Y-283435000D02*
X459502500Y-283415000D01*
X459482000Y-283435000D02*
X459462000Y-283455000D01*
X192802000Y-302465000D02*
X192782000Y-302485000D01*
X192762000Y-302505000D02*
X192762000Y-303045000D01*
X192782000Y-302485000D02*
X192782500Y-302485000D01*
X192762500Y-303045000D02*
X192762000Y-303045000D01*
X192782000Y-302485000D02*
X192762000Y-302505000D01*
X192782500Y-302485000D02*
X192802500Y-302465000D01*
X211852500Y-302465000D02*
X211852000Y-302465000D01*
X212577000Y-303097500D02*
X213342000Y-303150000D01*
X211812000Y-302505000D02*
X211812000Y-303045000D01*
X212577000Y-303097500D02*
X211865000Y-303097500D01*
X211865000Y-303097500D02*
X211812500Y-303045000D01*
X211852000Y-302465000D02*
X211812000Y-302505000D01*
X213342000Y-303150000D02*
X213342000Y-303151000D01*
X219337500Y-304145000D02*
X219338000Y-304145000D01*
X211812000Y-303045000D02*
X212577000Y-303097500D01*
X213342000Y-303151000D02*
X214337000Y-304145000D01*
X214337000Y-304145000D02*
X219337500Y-304145000D01*
X230862500Y-303045000D02*
X230862000Y-303045000D01*
X230862000Y-302505000D02*
X230862000Y-303045000D01*
X230902000Y-302465000D02*
X230882000Y-302485000D01*
X230882000Y-302485000D02*
X230862000Y-302505000D01*
X230882000Y-302485000D02*
X230882500Y-302485000D01*
X230882500Y-302485000D02*
X230902500Y-302465000D01*
X249912000Y-302505000D02*
X249912000Y-303045000D01*
X249952000Y-302465000D02*
X249932000Y-302485000D01*
X249932000Y-302485000D02*
X249932500Y-302485000D01*
X249932500Y-302485000D02*
X249952500Y-302465000D01*
X249932000Y-302485000D02*
X249912000Y-302505000D01*
X249912500Y-303045000D02*
X249912000Y-303045000D01*
X268962000Y-302505000D02*
X268962000Y-303045000D01*
X269002000Y-302465000D02*
X268982000Y-302485000D01*
X268982000Y-302485000D02*
X268982500Y-302485000D01*
X268962500Y-303045000D02*
X268962000Y-303045000D01*
X268982000Y-302485000D02*
X268962000Y-302505000D01*
X268982500Y-302485000D02*
X269002500Y-302465000D01*
X288012000Y-302505000D02*
X288012000Y-303045000D01*
X288052000Y-302465000D02*
X288032000Y-302485000D01*
X288032000Y-302485000D02*
X288032500Y-302485000D01*
X288012500Y-303045000D02*
X288012000Y-303045000D01*
X288032000Y-302485000D02*
X288012000Y-302505000D01*
X288032500Y-302485000D02*
X288052500Y-302465000D01*
X307082000Y-302485000D02*
X307082500Y-302485000D01*
X307062500Y-303045000D02*
X307062000Y-303045000D01*
X307082000Y-302485000D02*
X307062000Y-302505000D01*
X307102000Y-302465000D02*
X307082000Y-302485000D01*
X307082500Y-302485000D02*
X307102500Y-302465000D01*
X307062000Y-302505000D02*
X307062000Y-303045000D01*
X326112500Y-303045000D02*
X326112000Y-303045000D01*
X326132000Y-302485000D02*
X326112000Y-302505000D01*
X326132000Y-302485000D02*
X326132500Y-302485000D01*
X326112000Y-302505000D02*
X326112000Y-303045000D01*
X326152000Y-302465000D02*
X326132000Y-302485000D01*
X326132500Y-302485000D02*
X326152500Y-302465000D01*
X345162000Y-302505000D02*
X345162000Y-303045000D01*
X345202000Y-302465000D02*
X345182000Y-302485000D01*
X345182000Y-302485000D02*
X345182500Y-302485000D01*
X345182000Y-302485000D02*
X345162000Y-302505000D01*
X345182500Y-302485000D02*
X345202500Y-302465000D01*
X345162500Y-303045000D02*
X345162000Y-303045000D01*
X364232000Y-302485000D02*
X364232500Y-302485000D01*
X364212000Y-302505000D02*
X364212000Y-303045000D01*
X364212500Y-303045000D02*
X364212000Y-303045000D01*
X364232500Y-302485000D02*
X364252500Y-302465000D01*
X364252000Y-302465000D02*
X364232000Y-302485000D01*
X364232000Y-302485000D02*
X364212000Y-302505000D01*
X388025000Y-302505000D02*
X388025000Y-303045000D01*
X388065000Y-302465000D02*
X388025000Y-302505000D01*
X416640000Y-302465000D02*
X416600000Y-302505000D01*
X416600000Y-302505000D02*
X416600000Y-303045000D01*
X459482000Y-302485000D02*
X459482500Y-302485000D01*
X459482000Y-302485000D02*
X459462000Y-302505000D01*
X459462000Y-302505000D02*
X459462000Y-303045000D01*
X459502000Y-302465000D02*
X459482000Y-302485000D01*
X459482500Y-302485000D02*
X459502500Y-302465000D01*
X459462500Y-303045000D02*
X459462000Y-303045000D01*
X152301000Y-321535000D02*
X152301300Y-321535000D01*
X152281300Y-322095000D02*
X152281000Y-322095000D01*
X152321000Y-321515000D02*
X152301000Y-321535000D01*
X152301300Y-321535000D02*
X152321300Y-321515000D01*
X152281000Y-321555000D02*
X152281000Y-322095000D01*
X152301000Y-321535000D02*
X152281000Y-321555000D01*
X176093800Y-321825200D02*
X176093800Y-322095000D01*
X176094000Y-321825000D02*
X176093800Y-321825200D01*
X176094000Y-321555000D02*
X176094000Y-321825000D01*
X176133800Y-321515200D02*
X176133800Y-321515000D01*
X176094000Y-321825000D02*
X176094000Y-322095000D01*
X176133800Y-321515200D02*
X176094000Y-321555000D01*
X176134000Y-321515000D02*
X176133800Y-321515200D01*
X199906000Y-321555000D02*
X199906000Y-322095000D01*
X199946000Y-321515000D02*
X199926000Y-321535000D01*
X199926300Y-321535000D02*
X199946300Y-321515000D01*
X199906300Y-322095000D02*
X199906000Y-322095000D01*
X199926000Y-321535000D02*
X199926300Y-321535000D01*
X199926000Y-321535000D02*
X199906000Y-321555000D01*
X271343800Y-321825200D02*
X271343800Y-322095000D01*
X271384000Y-321515000D02*
X271383800Y-321515200D01*
X271383800Y-321515200D02*
X271344000Y-321555000D01*
X271344000Y-321555000D02*
X271344000Y-321825000D01*
X271344000Y-321825000D02*
X271343800Y-321825200D01*
X271383800Y-321515200D02*
X271383800Y-321515000D01*
X271344000Y-321825000D02*
X271344000Y-322095000D01*
X397550000Y-321555000D02*
X397550000Y-322095000D01*
X397590000Y-321515000D02*
X397550000Y-321555000D01*
X416600000Y-321555000D02*
X416600000Y-322095000D01*
X416640000Y-321515000D02*
X416600000Y-321555000D01*
X437180000Y-322200000D02*
X435650000Y-322095000D01*
X435690000Y-321515000D02*
X435650000Y-321555000D01*
X443175000Y-323195000D02*
X438174000Y-323195000D01*
X435650000Y-321555000D02*
X435650000Y-322095000D01*
X438174000Y-323195000D02*
X437180000Y-322201000D01*
X437180000Y-322201000D02*
X437180000Y-322200000D01*
X467077000Y-170781000D02*
X465027000Y-170781000D01*
X464181000Y-176733000D02*
X465026500Y-176733000D01*
X464078000Y-169833000D02*
X462901500Y-169833000D01*
X462901500Y-169833000D02*
X461725000Y-169833000D01*
X461318000Y-170239000D02*
X461318000Y-173870000D01*
X469202000Y-169833000D02*
X469201500Y-169833000D01*
X465026500Y-176733000D02*
X465026600Y-176732900D01*
X461725000Y-169833000D02*
X461318000Y-170239000D01*
X465026500Y-176733000D02*
X465027000Y-176733000D01*
X465027000Y-170781000D02*
X464078000Y-169833000D01*
X468025000Y-169833000D02*
X467077000Y-170781000D01*
X469201500Y-169833000D02*
X468025000Y-169833000D01*
X469201500Y-169833000D02*
X469201600Y-169832900D01*
X462901500Y-169833000D02*
X462901600Y-169832900D01*
X461318000Y-173870000D02*
X464181000Y-176733000D01*
X313200000Y-183427000D02*
X355697000Y-183427000D01*
X303275000Y-173502000D02*
X313200000Y-183427000D01*
X303275000Y-172050000D02*
X303275000Y-173502000D01*
X302475000Y-173502000D02*
X313978000Y-185005000D01*
X313978000Y-185005000D02*
X351584000Y-185005000D01*
X302475000Y-172050000D02*
X302475000Y-173502000D01*
M02*
