M48
; DRILL file {KiCad 7.0.8} date Tue Oct 17 11:30:56 2023
; FORMAT={-:-/ absolute / inch / decimal}
; #@! TF.CreationDate,2023-10-17T11:30:56-05:00
; #@! TF.GenerationSoftware,Kicad,Pcbnew,7.0.8
; #@! TF.FileFunction,Plated,1,2,PTH
FMAT,2
INCH
; #@! TA.AperFunction,Plated,PTH,ViaDrill
T1C0.0157
; #@! TA.AperFunction,Plated,PTH,ComponentDrill
T2C0.0276
; #@! TA.AperFunction,Plated,PTH,ComponentDrill
T3C0.0579
%
G90
G05
T1
X11.8602Y-6.7041
X12.0298Y-6.8681
X12.1673Y-6.7589
X13.6872Y-6.6454
X13.8419Y-7.2837
X14.0038Y-7.2215
X14.107Y-7.0792
X14.3366Y-6.9341
X14.5676Y-7.19
X16.6075Y-10.9732
X16.8455Y-7.7657
X16.8671Y-7.2726
X16.8957Y-7.1821
X16.9203Y-7.3479
X16.9672Y-7.5154
X16.9672Y-7.7335
X17.0423Y-7.7175
X17.0783Y-7.4196
X17.0825Y-7.3375
X17.1192Y-7.1246
X17.1286Y-7.2726
X17.1847Y-7.1984
X17.2201Y-7.4263
X17.2589Y-6.735
X17.2609Y-6.9219
X17.2876Y-7.3891
X17.312Y-7.125
X17.3493Y-6.6894
X17.3724Y-7.0741
X17.3969Y-7.2246
X17.4045Y-6.9872
X17.411Y-7.5632
X17.4995Y-7.1043
X17.5305Y-6.8115
X17.5373Y-7.0683
X17.5509Y-7.1472
X17.5719Y-6.8111
X17.6739Y-6.8755
X17.6791Y-7.0158
X17.6941Y-6.6457
X17.7059Y-6.9505
X17.7076Y-7.5157
X17.7175Y-7.2436
X17.7476Y-6.867
X17.8031Y-6.8727
X17.8146Y-6.7362
X17.8163Y-7.4168
X17.8176Y-6.7934
X17.8557Y-6.8633
X17.878Y-7.4774
X17.8826Y-7.1376
X17.8848Y-6.7618
X17.9378Y-7.0782
X17.9596Y-7.5118
X17.9744Y-6.8947
X17.9973Y-7.0132
X18.0236Y-6.935
X18.0767Y-6.7863
X18.1062Y-7.1166
X18.1316Y-7.1594
X18.1329Y-6.7283
X18.1378Y-7.3327
X18.1424Y-7.0476
X18.1621Y-6.8453
X18.2053Y-6.7696
X18.3907Y-7.1427
X18.397Y-6.9007
X18.5352Y-6.8453
T2
X6.1978Y-7.9242
X6.1978Y-8.2313
X6.1978Y-8.8617
X6.1978Y-9.1688
X6.1978Y-9.7242
X6.1978Y-10.0313
X6.3853Y-11.9742
X6.3853Y-12.2813
X6.3853Y-12.7242
X6.3853Y-13.0313
X6.5728Y-10.4742
X6.5728Y-10.7813
X6.7603Y-11.2242
X6.7603Y-11.5313
X6.9478Y-7.9242
X6.9478Y-8.2313
X6.9478Y-9.7242
X6.9478Y-10.0313
X7.1353Y-11.9742
X7.1353Y-12.2813
X7.3228Y-8.8617
X7.3228Y-9.1688
X7.3228Y-10.4742
X7.3228Y-10.7813
X7.3228Y-12.7242
X7.3228Y-13.0313
X7.5103Y-11.2242
X7.5103Y-11.5313
X7.6978Y-9.7242
X7.6978Y-10.0313
X7.8853Y-7.9242
X7.8853Y-8.2313
X7.8853Y-11.9742
X7.8853Y-12.2813
X8.0728Y-8.8617
X8.0728Y-9.1688
X8.0728Y-10.4742
X8.0728Y-10.7813
X8.2603Y-11.2242
X8.2603Y-11.5313
X8.2603Y-12.7242
X8.2603Y-13.0313
X8.4478Y-9.7242
X8.4478Y-10.0313
X8.6353Y-7.9242
X8.6353Y-8.2313
X8.6353Y-11.9742
X8.6353Y-12.2813
X8.8228Y-8.8617
X8.8228Y-9.1688
X8.8228Y-10.4742
X8.8228Y-10.7813
X9.0103Y-11.2242
X9.0103Y-11.5313
X9.1978Y-9.7242
X9.1978Y-10.0313
X9.3853Y-11.9742
X9.3853Y-12.2813
X9.5728Y-7.9242
X9.5728Y-8.2313
X9.5728Y-8.8617
X9.5728Y-9.1688
X9.5728Y-10.4742
X9.5728Y-10.7813
X9.7603Y-11.2242
X9.7603Y-11.5313
X9.9478Y-9.7242
X9.9478Y-10.0313
X10.1353Y-11.9742
X10.1353Y-12.2813
X10.3228Y-7.9242
X10.3228Y-8.2313
X10.3228Y-10.4742
X10.3228Y-10.7813
X10.5103Y-8.8617
X10.5103Y-9.1688
X10.5103Y-11.2242
X10.5103Y-11.5313
X10.6978Y-9.7242
X10.6978Y-10.0313
X10.8853Y-11.9742
X10.8853Y-12.2813
X11.0728Y-10.4742
X11.0728Y-10.7813
X11.2603Y-7.9242
X11.2603Y-8.2313
X11.2603Y-8.8617
X11.2603Y-9.1688
X11.2603Y-11.2242
X11.2603Y-11.5313
X11.4478Y-9.7242
X11.4478Y-10.0313
X11.6353Y-11.9742
X11.6353Y-12.2813
X11.8228Y-10.4742
X11.8228Y-10.7813
X12.0103Y-7.9242
X12.0103Y-8.2313
X12.0103Y-8.8617
X12.0103Y-9.1688
X12.0103Y-11.2242
X12.0103Y-11.5313
X12.1978Y-9.7242
X12.1978Y-10.0313
X12.3853Y-11.9742
X12.3853Y-12.2813
X12.5728Y-10.4742
X12.5728Y-10.7813
X12.7603Y-8.8617
X12.7603Y-9.1688
X12.7603Y-11.2242
X12.7603Y-11.5313
X12.9478Y-7.9242
X12.9478Y-8.2313
X12.9478Y-9.7242
X12.9478Y-10.0313
X12.9478Y-12.7242
X12.9478Y-13.0313
X13.1353Y-11.9742
X13.1353Y-12.2813
X13.3228Y-10.4742
X13.3228Y-10.7813
X13.5103Y-11.2242
X13.5103Y-11.5313
X13.6978Y-7.9242
X13.6978Y-8.2313
X13.6978Y-8.8617
X13.6978Y-9.1688
X13.6978Y-9.7242
X13.6978Y-10.0313
X13.8853Y-11.9742
X13.8853Y-12.2813
X13.8853Y-12.7242
X13.8853Y-13.0313
X14.0728Y-10.4742
X14.0728Y-10.7813
X14.2603Y-11.2242
X14.2603Y-11.5313
X14.4478Y-8.8617
X14.4478Y-9.1688
X14.4478Y-9.7242
X14.4478Y-10.0313
X14.6353Y-7.9242
X14.6353Y-8.2313
X14.6353Y-11.9742
X14.6353Y-12.2813
X14.8228Y-10.4742
X14.8228Y-10.7813
X14.8228Y-12.7242
X14.8228Y-13.0313
X15.0103Y-11.2242
X15.0103Y-11.5313
X15.1978Y-8.8617
X15.1978Y-9.1688
X15.1978Y-9.7242
X15.1978Y-10.0313
X15.3853Y-7.9242
X15.3853Y-8.2313
X15.5728Y-10.4742
X15.5728Y-10.7813
X15.7603Y-11.2242
X15.7603Y-11.5313
X15.7603Y-11.9742
X15.7603Y-12.2813
X15.9478Y-8.8617
X15.9478Y-9.1688
X15.9478Y-12.7242
X15.9478Y-13.0313
X16.6978Y-9.7242
X16.6978Y-10.0313
X16.6978Y-10.4742
X16.6978Y-10.7813
X16.6978Y-11.9742
X16.6978Y-12.2813
X16.6978Y-12.7242
X16.6978Y-13.0313
X16.8853Y-7.9242
X16.8853Y-8.2313
X16.8853Y-8.8617
X16.8853Y-9.1688
X17.4478Y-12.7242
X17.4478Y-13.0313
X17.6353Y-7.9242
X17.6353Y-8.2313
X17.6353Y-8.8617
X17.6353Y-9.1688
X17.6353Y-9.7242
X17.6353Y-10.0313
X17.6353Y-10.4742
X17.6353Y-10.7813
X17.6353Y-11.2242
X17.6353Y-11.5313
X18.3853Y-7.9242
X18.3853Y-8.2313
X18.3853Y-8.8617
X18.3853Y-9.1688
X18.3853Y-9.7242
X18.3853Y-10.0313
X18.3853Y-10.4742
X18.3853Y-10.7813
X18.3853Y-11.2242
X18.3853Y-11.5313
X18.3853Y-11.9742
X18.3853Y-12.2813
T3
X5.6531Y-7.9581
X5.6531Y-8.8956
X5.6531Y-9.7581
X5.7047Y-7.9006
X5.7047Y-8.8381
X5.7047Y-9.7006
X5.7469Y-12.0081
X5.7469Y-12.7581
X5.7985Y-11.9506
X5.7985Y-12.7006
X5.8406Y-10.5081
X5.8922Y-10.4506
X5.9016Y-7.8809
X5.9016Y-8.8184
X5.9016Y-9.6809
X5.9031Y-7.8581
X5.9031Y-8.7956
X5.9031Y-9.6581
X5.9344Y-11.2581
X5.986Y-11.2006
X5.9953Y-11.9309
X5.9953Y-12.6809
X5.9969Y-11.9081
X5.9969Y-12.6581
X6.0891Y-10.4309
X6.0906Y-10.4081
X6.1828Y-11.1809
X6.1844Y-11.1581
X6.4031Y-7.9581
X6.4031Y-9.7581
X6.4547Y-7.9006
X6.4547Y-9.7006
X6.5906Y-12.0081
X6.6422Y-11.9506
X6.6516Y-7.8809
X6.6516Y-9.6809
X6.6531Y-7.8581
X6.6531Y-9.6581
X6.6844Y-12.7581
X6.736Y-12.7006
X6.7781Y-8.8956
X6.7781Y-10.5081
X6.8297Y-8.8381
X6.8297Y-10.4506
X6.8391Y-11.9309
X6.8406Y-11.9081
X6.9328Y-12.6809
X6.9344Y-12.6581
X6.9656Y-11.2581
X7.0172Y-11.2006
X7.0266Y-8.8184
X7.0266Y-10.4309
X7.0281Y-8.7956
X7.0281Y-10.4081
X7.1531Y-9.7581
X7.2047Y-9.7006
X7.2141Y-11.1809
X7.2156Y-11.1581
X7.3406Y-7.9581
X7.3406Y-12.0081
X7.3922Y-7.9006
X7.3922Y-11.9506
X7.4016Y-9.6809
X7.4031Y-9.6581
X7.5281Y-8.8956
X7.5281Y-10.5081
X7.5797Y-8.8381
X7.5797Y-10.4506
X7.5891Y-7.8809
X7.5891Y-11.9309
X7.5906Y-7.8581
X7.5906Y-11.9081
X7.6219Y-12.7581
X7.6735Y-12.7006
X7.7156Y-11.2581
X7.7672Y-11.2006
X7.7766Y-8.8184
X7.7766Y-10.4309
X7.7781Y-8.7956
X7.7781Y-10.4081
X7.8703Y-12.6809
X7.8719Y-12.6581
X7.9031Y-9.7581
X7.9547Y-9.7006
X7.9641Y-11.1809
X7.9656Y-11.1581
X8.0906Y-7.9581
X8.0906Y-12.0081
X8.1422Y-7.9006
X8.1422Y-11.9506
X8.1516Y-9.6809
X8.1531Y-9.6581
X8.2781Y-8.8956
X8.2781Y-10.5081
X8.3297Y-8.8381
X8.3297Y-10.4506
X8.3391Y-7.8809
X8.3391Y-11.9309
X8.3406Y-7.8581
X8.3406Y-11.9081
X8.4656Y-11.2581
X8.5172Y-11.2006
X8.5266Y-8.8184
X8.5266Y-10.4309
X8.5281Y-8.7956
X8.5281Y-10.4081
X8.6531Y-9.7581
X8.7047Y-9.7006
X8.7141Y-11.1809
X8.7156Y-11.1581
X8.8406Y-12.0081
X8.8922Y-11.9506
X8.9016Y-9.6809
X8.9031Y-9.6581
X9.0281Y-7.9581
X9.0281Y-8.8956
X9.0281Y-10.5081
X9.0797Y-7.9006
X9.0797Y-8.8381
X9.0797Y-10.4506
X9.0891Y-11.9309
X9.0906Y-11.9081
X9.2156Y-11.2581
X9.2672Y-11.2006
X9.2766Y-7.8809
X9.2766Y-8.8184
X9.2766Y-10.4309
X9.2781Y-7.8581
X9.2781Y-8.7956
X9.2781Y-10.4081
X9.4031Y-9.7581
X9.4547Y-9.7006
X9.4641Y-11.1809
X9.4656Y-11.1581
X9.5906Y-12.0081
X9.6422Y-11.9506
X9.6516Y-9.6809
X9.6531Y-9.6581
X9.7781Y-7.9581
X9.7781Y-10.5081
X9.8297Y-7.9006
X9.8297Y-10.4506
X9.8391Y-11.9309
X9.8406Y-11.9081
X9.9656Y-8.8956
X9.9656Y-11.2581
X10.0172Y-8.8381
X10.0172Y-11.2006
X10.0266Y-7.8809
X10.0266Y-10.4309
X10.0281Y-7.8581
X10.0281Y-10.4081
X10.1531Y-9.7581
X10.2047Y-9.7006
X10.2141Y-8.8184
X10.2141Y-11.1809
X10.2156Y-8.7956
X10.2156Y-11.1581
X10.3406Y-12.0081
X10.3922Y-11.9506
X10.4016Y-9.6809
X10.4031Y-9.6581
X10.4344Y-12.7581
X10.486Y-12.7006
X10.5281Y-10.5081
X10.5797Y-10.4506
X10.5891Y-11.9309
X10.5906Y-11.9081
X10.6828Y-12.6809
X10.6844Y-12.6581
X10.7156Y-7.9581
X10.7156Y-8.8956
X10.7156Y-11.2581
X10.7672Y-7.9006
X10.7672Y-8.8381
X10.7672Y-11.2006
X10.7766Y-10.4309
X10.7781Y-10.4081
X10.9031Y-9.7581
X10.9547Y-9.7006
X10.9641Y-7.8809
X10.9641Y-8.8184
X10.9641Y-11.1809
X10.9656Y-7.8581
X10.9656Y-8.7956
X10.9656Y-11.1581
X11.0906Y-12.0081
X11.1422Y-11.9506
X11.1516Y-9.6809
X11.1531Y-9.6581
X11.2781Y-10.5081
X11.3297Y-10.4506
X11.3391Y-11.9309
X11.3406Y-11.9081
X11.4656Y-7.9581
X11.4656Y-8.8956
X11.4656Y-11.2581
X11.5172Y-7.9006
X11.5172Y-8.8381
X11.5172Y-11.2006
X11.5266Y-10.4309
X11.5281Y-10.4081
X11.6531Y-9.7581
X11.7047Y-9.7006
X11.7141Y-7.8809
X11.7141Y-8.8184
X11.7141Y-11.1809
X11.7156Y-7.8581
X11.7156Y-8.7956
X11.7156Y-11.1581
X11.8406Y-12.0081
X11.8922Y-11.9506
X11.9016Y-9.6809
X11.9031Y-9.6581
X12.0281Y-10.5081
X12.0797Y-10.4506
X12.0891Y-11.9309
X12.0906Y-11.9081
X12.2156Y-8.8956
X12.2156Y-11.2581
X12.2672Y-8.8381
X12.2672Y-11.2006
X12.2766Y-10.4309
X12.2781Y-10.4081
X12.4031Y-7.9581
X12.4031Y-9.7581
X12.4547Y-7.9006
X12.4547Y-9.7006
X12.4641Y-8.8184
X12.4641Y-11.1809
X12.4656Y-8.7956
X12.4656Y-11.1581
X12.5906Y-12.0081
X12.6422Y-11.9506
X12.6516Y-7.8809
X12.6516Y-9.6809
X12.6531Y-7.8581
X12.6531Y-9.6581
X12.7781Y-10.5081
X12.8297Y-10.4506
X12.8391Y-11.9309
X12.8406Y-11.9081
X12.9656Y-11.2581
X13.0172Y-11.2006
X13.0266Y-10.4309
X13.0281Y-10.4081
X13.1531Y-7.9581
X13.1531Y-8.8956
X13.1531Y-9.7581
X13.2047Y-7.9006
X13.2047Y-8.8381
X13.2047Y-9.7006
X13.2141Y-11.1809
X13.2156Y-11.1581
X13.2469Y-12.7581
X13.2985Y-12.7006
X13.3406Y-12.0081
X13.3922Y-11.9506
X13.4016Y-7.8809
X13.4016Y-8.8184
X13.4016Y-9.6809
X13.4031Y-7.8581
X13.4031Y-8.7956
X13.4031Y-9.6581
X13.4953Y-12.6809
X13.4969Y-12.6581
X13.5281Y-10.5081
X13.5797Y-10.4506
X13.5891Y-11.9309
X13.5906Y-11.9081
X13.7156Y-11.2581
X13.7672Y-11.2006
X13.7766Y-10.4309
X13.7781Y-10.4081
X13.9031Y-8.8956
X13.9031Y-9.7581
X13.9547Y-8.8381
X13.9547Y-9.7006
X13.9641Y-11.1809
X13.9656Y-11.1581
X14.0906Y-7.9581
X14.0906Y-12.0081
X14.1422Y-7.9006
X14.1422Y-11.9506
X14.1516Y-8.8184
X14.1516Y-9.6809
X14.1531Y-8.7956
X14.1531Y-9.6581
X14.1844Y-12.7581
X14.236Y-12.7006
X14.2781Y-10.5081
X14.3297Y-10.4506
X14.3391Y-7.8809
X14.3391Y-11.9309
X14.3406Y-7.8581
X14.3406Y-11.9081
X14.4328Y-12.6809
X14.4344Y-12.6581
X14.4656Y-11.2581
X14.5172Y-11.2006
X14.5266Y-10.4309
X14.5281Y-10.4081
X14.6531Y-8.8956
X14.6531Y-9.7581
X14.7047Y-8.8381
X14.7047Y-9.7006
X14.7141Y-11.1809
X14.7156Y-11.1581
X14.8406Y-7.9581
X14.8922Y-7.9006
X14.9016Y-8.8184
X14.9016Y-9.6809
X14.9031Y-8.7956
X14.9031Y-9.6581
X15.0281Y-10.5081
X15.0281Y-12.0081
X15.0797Y-10.4506
X15.0797Y-11.9506
X15.0891Y-7.8809
X15.0906Y-7.8581
X15.2156Y-11.2581
X15.2672Y-11.2006
X15.2766Y-10.4309
X15.2766Y-11.9309
X15.2781Y-10.4081
X15.2781Y-11.9081
X15.4031Y-8.8956
X15.4031Y-12.7581
X15.4547Y-8.8381
X15.4547Y-12.7006
X15.4641Y-11.1809
X15.4656Y-11.1581
X15.6516Y-8.8184
X15.6516Y-12.6809
X15.6531Y-8.7956
X15.6531Y-12.6581
X15.7781Y-9.7581
X15.8297Y-9.7006
X16.0266Y-9.6809
X16.0281Y-9.6581
X16.0594Y-10.5081
X16.111Y-10.4506
X16.1531Y-12.0081
X16.1531Y-12.7581
X16.2047Y-11.9506
X16.2047Y-12.7006
X16.3078Y-10.4309
X16.3094Y-10.4081
X16.3406Y-7.9581
X16.3406Y-8.8956
X16.3922Y-7.9006
X16.3922Y-8.8381
X16.4016Y-11.9309
X16.4016Y-12.6809
X16.4031Y-11.9081
X16.4031Y-12.6581
X16.5891Y-7.8809
X16.5891Y-8.8184
X16.5906Y-7.8581
X16.5906Y-8.7956
X16.9031Y-12.7581
X16.9547Y-12.7006
X17.0906Y-7.9581
X17.0906Y-8.8956
X17.0906Y-9.7581
X17.0906Y-10.5081
X17.0906Y-11.2581
X17.1422Y-7.9006
X17.1422Y-8.8381
X17.1422Y-9.7006
X17.1422Y-10.4506
X17.1422Y-11.2006
X17.1516Y-12.6809
X17.1531Y-12.6581
X17.3391Y-7.8809
X17.3391Y-8.8184
X17.3391Y-9.6809
X17.3391Y-10.4309
X17.3391Y-11.1809
X17.3406Y-7.8581
X17.3406Y-8.7956
X17.3406Y-9.6581
X17.3406Y-10.4081
X17.3406Y-11.1581
X17.8406Y-7.9581
X17.8406Y-8.8956
X17.8406Y-9.7581
X17.8406Y-10.5081
X17.8406Y-11.2581
X17.8406Y-12.0081
X17.8922Y-7.9006
X17.8922Y-8.8381
X17.8922Y-9.7006
X17.8922Y-10.4506
X17.8922Y-11.2006
X17.8922Y-11.9506
X18.0891Y-7.8809
X18.0891Y-8.8184
X18.0891Y-9.6809
X18.0891Y-10.4309
X18.0891Y-11.1809
X18.0891Y-11.9309
X18.0906Y-7.8581
X18.0906Y-8.7956
X18.0906Y-9.6581
X18.0906Y-10.4081
X18.0906Y-11.1581
X18.0906Y-11.9081
T2
G00X11.7648Y-6.5728
M15
G01X11.7648Y-6.6201
M16
G05
G00X11.7648Y-6.75
M15
G01X11.7648Y-6.7972
M16
G05
G00X12.0522Y-6.5728
M15
G01X12.0522Y-6.6201
M16
G05
G00X12.0522Y-6.75
M15
G01X12.0522Y-6.7972
M16
G05
T0
M30
