M48
; DRILL file {KiCad 7.0.8} date Tue Oct 17 11:30:56 2023
; FORMAT={-:-/ absolute / inch / decimal}
; #@! TF.CreationDate,2023-10-17T11:30:56-05:00
; #@! TF.GenerationSoftware,Kicad,Pcbnew,7.0.8
; #@! TF.FileFunction,NonPlated,1,2,NPTH
FMAT,2
INCH
; #@! TA.AperFunction,NonPlated,NPTH,ComponentDrill
T1C0.0689
; #@! TA.AperFunction,NonPlated,NPTH,ComponentDrill
T2C0.1200
; #@! TA.AperFunction,NonPlated,NPTH,ComponentDrill
T3C0.1570
%
G90
G05
T1
X5.6031Y-8.0581
X5.6031Y-8.9956
X5.6031Y-9.8581
X5.6969Y-12.1081
X5.6969Y-12.8581
X5.7906Y-10.6081
X5.8844Y-11.3581
X6.0031Y-8.0581
X6.0031Y-8.9956
X6.0031Y-9.8581
X6.0969Y-12.1081
X6.0969Y-12.8581
X6.1906Y-10.6081
X6.2844Y-11.3581
X6.3531Y-8.0581
X6.3531Y-9.8581
X6.5406Y-12.1081
X6.6344Y-12.8581
X6.7281Y-8.9956
X6.7281Y-10.6081
X6.7531Y-8.0581
X6.7531Y-9.8581
X6.9156Y-11.3581
X6.9406Y-12.1081
X7.0344Y-12.8581
X7.1031Y-9.8581
X7.1281Y-8.9956
X7.1281Y-10.6081
X7.2906Y-8.0581
X7.2906Y-12.1081
X7.3156Y-11.3581
X7.4781Y-8.9956
X7.4781Y-10.6081
X7.5031Y-9.8581
X7.5719Y-12.8581
X7.6656Y-11.3581
X7.6906Y-8.0581
X7.6906Y-12.1081
X7.8531Y-9.8581
X7.8781Y-8.9956
X7.8781Y-10.6081
X7.9719Y-12.8581
X8.0406Y-8.0581
X8.0406Y-12.1081
X8.0656Y-11.3581
X8.2281Y-8.9956
X8.2281Y-10.6081
X8.2531Y-9.8581
X8.4156Y-11.3581
X8.4406Y-8.0581
X8.4406Y-12.1081
X8.6031Y-9.8581
X8.6281Y-8.9956
X8.6281Y-10.6081
X8.7906Y-12.1081
X8.8156Y-11.3581
X8.9781Y-8.0581
X8.9781Y-8.9956
X8.9781Y-10.6081
X9.0031Y-9.8581
X9.1656Y-11.3581
X9.1906Y-12.1081
X9.3531Y-9.8581
X9.3781Y-8.0581
X9.3781Y-8.9956
X9.3781Y-10.6081
X9.5406Y-12.1081
X9.5656Y-11.3581
X9.7281Y-8.0581
X9.7281Y-10.6081
X9.7531Y-9.8581
X9.9156Y-8.9956
X9.9156Y-11.3581
X9.9406Y-12.1081
X10.1031Y-9.8581
X10.1281Y-8.0581
X10.1281Y-10.6081
X10.2906Y-12.1081
X10.3156Y-8.9956
X10.3156Y-11.3581
X10.3844Y-12.8581
X10.4781Y-10.6081
X10.5031Y-9.8581
X10.6656Y-8.0581
X10.6656Y-8.9956
X10.6656Y-11.3581
X10.6906Y-12.1081
X10.7844Y-12.8581
X10.8531Y-9.8581
X10.8781Y-10.6081
X11.0406Y-12.1081
X11.0656Y-8.0581
X11.0656Y-8.9956
X11.0656Y-11.3581
X11.2281Y-10.6081
X11.2531Y-9.8581
X11.4156Y-8.0581
X11.4156Y-8.9956
X11.4156Y-11.3581
X11.4406Y-12.1081
X11.6031Y-9.8581
X11.6281Y-10.6081
X11.7906Y-12.1081
X11.8156Y-8.0581
X11.8156Y-8.9956
X11.8156Y-11.3581
X11.9781Y-10.6081
X12.0031Y-9.8581
X12.1656Y-8.9956
X12.1656Y-11.3581
X12.1906Y-12.1081
X12.3531Y-8.0581
X12.3531Y-9.8581
X12.3781Y-10.6081
X12.5406Y-12.1081
X12.5656Y-8.9956
X12.5656Y-11.3581
X12.7281Y-10.6081
X12.7531Y-8.0581
X12.7531Y-9.8581
X12.9156Y-11.3581
X12.9406Y-12.1081
X13.1031Y-8.0581
X13.1031Y-8.9956
X13.1031Y-9.8581
X13.1281Y-10.6081
X13.1969Y-12.8581
X13.2906Y-12.1081
X13.3156Y-11.3581
X13.4781Y-10.6081
X13.5031Y-8.0581
X13.5031Y-8.9956
X13.5031Y-9.8581
X13.5969Y-12.8581
X13.6656Y-11.3581
X13.6906Y-12.1081
X13.8531Y-8.9956
X13.8531Y-9.8581
X13.8781Y-10.6081
X14.0406Y-8.0581
X14.0406Y-12.1081
X14.0656Y-11.3581
X14.1344Y-12.8581
X14.2281Y-10.6081
X14.2531Y-8.9956
X14.2531Y-9.8581
X14.4156Y-11.3581
X14.4406Y-8.0581
X14.4406Y-12.1081
X14.5344Y-12.8581
X14.6031Y-8.9956
X14.6031Y-9.8581
X14.6281Y-10.6081
X14.7906Y-8.0581
X14.8156Y-11.3581
X14.9781Y-10.6081
X14.9781Y-12.1081
X15.0031Y-8.9956
X15.0031Y-9.8581
X15.1656Y-11.3581
X15.1906Y-8.0581
X15.3531Y-8.9956
X15.3531Y-12.8581
X15.3781Y-10.6081
X15.3781Y-12.1081
X15.5656Y-11.3581
X15.7281Y-9.8581
X15.7531Y-8.9956
X15.7531Y-12.8581
X16.0094Y-10.6081
X16.1031Y-12.1081
X16.1031Y-12.8581
X16.1281Y-9.8581
X16.2906Y-8.0581
X16.2906Y-8.9956
X16.4094Y-10.6081
X16.5031Y-12.1081
X16.5031Y-12.8581
X16.6906Y-8.0581
X16.6906Y-8.9956
X16.8531Y-12.8581
X17.0406Y-8.0581
X17.0406Y-8.9956
X17.0406Y-9.8581
X17.0406Y-10.6081
X17.0406Y-11.3581
X17.2531Y-12.8581
X17.4406Y-8.0581
X17.4406Y-8.9956
X17.4406Y-9.8581
X17.4406Y-10.6081
X17.4406Y-11.3581
X17.7906Y-8.0581
X17.7906Y-8.9956
X17.7906Y-9.8581
X17.7906Y-10.6081
X17.7906Y-11.3581
X17.7906Y-12.1081
X18.1906Y-8.0581
X18.1906Y-8.9956
X18.1906Y-9.8581
X18.1906Y-10.6081
X18.1906Y-11.3581
X18.1906Y-12.1081
T2
X8.6159Y-12.5831
X12.5529Y-12.5831
X15.4581Y-9.5831
X16.3981Y-9.5831
T3
X5.8031Y-8.0581
X5.8031Y-8.9956
X5.8031Y-9.8581
X5.8969Y-12.1081
X5.8969Y-12.8581
X5.9906Y-10.6081
X6.0844Y-11.3581
X6.5531Y-8.0581
X6.5531Y-9.8581
X6.7406Y-12.1081
X6.8344Y-12.8581
X6.9281Y-8.9956
X6.9281Y-10.6081
X7.1156Y-11.3581
X7.3031Y-9.8581
X7.4906Y-8.0581
X7.4906Y-12.1081
X7.6781Y-8.9956
X7.6781Y-10.6081
X7.7719Y-12.8581
X7.8656Y-11.3581
X8.0531Y-9.8581
X8.2406Y-8.0581
X8.2406Y-12.1081
X8.4281Y-8.9956
X8.4281Y-10.6081
X8.6156Y-11.3581
X8.6159Y-13.1831
X8.8031Y-9.8581
X8.9906Y-12.1081
X9.1781Y-8.0581
X9.1781Y-8.9956
X9.1781Y-10.6081
X9.3656Y-11.3581
X9.5531Y-9.8581
X9.7406Y-12.1081
X9.9281Y-8.0581
X9.9281Y-10.6081
X10.1156Y-8.9956
X10.1156Y-11.3581
X10.3031Y-9.8581
X10.4906Y-12.1081
X10.5844Y-12.8581
X10.6781Y-10.6081
X10.8656Y-8.0581
X10.8656Y-8.9956
X10.8656Y-11.3581
X11.0531Y-9.8581
X11.2406Y-12.1081
X11.4281Y-10.6081
X11.6156Y-8.0581
X11.6156Y-8.9956
X11.6156Y-11.3581
X11.8031Y-9.8581
X11.9906Y-12.1081
X12.1781Y-10.6081
X12.3656Y-8.9956
X12.3656Y-11.3581
X12.5529Y-13.1831
X12.5531Y-8.0581
X12.5531Y-9.8581
X12.7406Y-12.1081
X12.9281Y-10.6081
X13.1156Y-11.3581
X13.3031Y-8.0581
X13.3031Y-8.9956
X13.3031Y-9.8581
X13.3969Y-12.8581
X13.4906Y-12.1081
X13.6781Y-10.6081
X13.8656Y-11.3581
X14.0531Y-8.9956
X14.0531Y-9.8581
X14.2406Y-8.0581
X14.2406Y-12.1081
X14.3344Y-12.8581
X14.4281Y-10.6081
X14.6156Y-11.3581
X14.8031Y-8.9956
X14.8031Y-9.8581
X14.9906Y-8.0581
X15.1781Y-10.6081
X15.1781Y-12.1081
X15.3656Y-11.3581
X15.4581Y-10.1831
X15.5531Y-8.9956
X15.5531Y-12.8581
X15.9281Y-9.8581
X16.2094Y-10.6081
X16.3031Y-12.1081
X16.3031Y-12.8581
X16.3981Y-10.1831
X16.4906Y-8.0581
X16.4906Y-8.9956
X17.0531Y-12.8581
X17.2406Y-8.0581
X17.2406Y-8.9956
X17.2406Y-9.8581
X17.2406Y-10.6081
X17.2406Y-11.3581
X17.9906Y-8.0581
X17.9906Y-8.9956
X17.9906Y-9.8581
X17.9906Y-10.6081
X17.9906Y-11.3581
X17.9906Y-12.1081
T0
M30
